<svg xmlns="http://www.w3.org/2000/svg" viewBox="0 0 1000 1000"><defs><style>.a{fill:#81d0d8;}</style></defs><path class="a" d="M724.29,345.78c-15.43-9.06-67-32.26-171.2-16.54A62.19,62.19,0,0,0,551,309.43a3.81,3.81,0,0,1,.06-2.29c2.09-6,5-6.1,5.62-14.57.9-3.65,8.45-3.38,8.45-3.38,6-.46,2.22-16.47,2.43-18.48l2.71-1.08a1.7,1.7,0,0,0,.76-2.55l-5.53-7.91a25.72,25.72,0,0,0-4.31-15.76c-14.64-17.26-37.83-8.48-44.65,6.38-6,13.15,5.39,28,8.66,31.82a4.59,4.59,0,0,1,1.1,2.73,15.64,15.64,0,0,1-4.76,12c-6.5,6.75-21.07,2.67-29.57,45.4-59.33,15-131.45,41.24-218.24,84.5a2.36,2.36,0,0,0,.18,4.31l27.23,10.56a2.35,2.35,0,0,1,.83,3.82l-20.3,21a2.36,2.36,0,0,0,1.64,4c78.2,2.38,143.1-1.33,196.86-8.72-7.93,9.9-10.75,30.32-11.7,41.06a18.81,18.81,0,0,1-5.27,11.46c-6.05,6.24-16.13,18.65-20.2,35.38a243.08,243.08,0,0,1-10.39,33.38c0,.08-2.1,4.59-3.21,6.62-1.73,3.14-3.12,6.32-5.12,9.76-1.77,3-4.4,5.95-4.16,9.78,1.23,8.8,14.21,7.06,30.11,13.48a59.15,59.15,0,0,0,7.81,2.71c4.06,1,8.07,1.58,10.32,1.32,3.33-.38,2.46-4.69.65-6.85-6.42-7.63-21.57-9.17-21.61-22.78a20.44,20.44,0,0,1,4.6-12.56c27.52-34.88,23.3-46.21,31.52-52.5,5.71-4.36,7.58-8.28,8.2-10.38a11,11,0,0,1,1.93-3.68c18.05-23.16,22-31.34,22-31.34a142.49,142.49,0,0,0,22.54,32.72c5,5.37,6.26,12.55,8.11,19.64,4.12,31.5,15.62,39.28,26.31,59.85a32.56,32.56,0,0,1,3.48,11.81c.35,3.46.53,7.14.83,11,.26,3.4-.2,7.18,2,10.1,5.55,6.31,14.44-2.14,29.77-5.87a56.07,56.07,0,0,0,9.15-2.85,27.42,27.42,0,0,0,7-4c2.33-2.14-.61-5.1-3.13-5.82-11.13-3.16-27.6,8.84-32.78-18.06-3.17-25.19-11.55-40.55-14.63-48.5-3.57-9.19-2.63-20.32-2.63-20.32a26.82,26.82,0,0,0-4.59-17,16.07,16.07,0,0,1-2.47-6.2c-3.18-18.17-12.1-39-18.95-53.18,125.5-28.91,169.21-78.8,180.44-94.95A6,6,0,0,0,724.29,345.78Z"/><path class="a" d="M722,350.19c-24.09-12.55-52-17.13-78.89-18.89-29.91-2-59.93.58-89.63,4.09-12.55,1.49-25.09,2.95-37.65,4.27,54.65-9.36,111.17-18.56,166-5.26C695.89,337.81,709.66,342.63,722,350.19Z"/><path class="a" d="M284.61,427.16C335.05,400.6,387.5,377.8,442,360.86c12.8-4,25.72-7.45,38.73-10.67A1578.28,1578.28,0,0,0,313.1,414.41Z"/><path class="a" d="M502.17,457.87c-7.07,1.17-14.42,2.24-21.93,3.27a28.47,28.47,0,0,0-2.73,4.11l24.68-7.38Z"/><path class="a" d="M487.17,393.77c.86,6.88,3.16,13.25,5.91,19.6a360.38,360.38,0,0,0,19.74,38.28c-3.47-6.77-6.74-13.65-9.88-20.59-4.64-10.26-9.79-21.08-11.85-32.22s-1.46-23.14-1-34.33A225.66,225.66,0,0,1,492,341.72c-2,.52-4.07,1-6.13,1.57-.59,7.56-.72,15.17-.6,22.74A257.25,257.25,0,0,0,487.17,393.77Z"/><path class="a" d="M520.19,269.29c-4.79-9.82-2.82-20.25,5.9-27.15,8.22-6.52,20.44-8,29.1-1.56-9.32-4-19.43-2.3-27.38,3.89-3.68,2.86-6.93,6.85-8.18,11.42C518.44,260.27,519.22,265,520.19,269.29Z"/><path class="a" d="M428.28,598.36c8.43-15.29,15.16-31,19.14-48.06a69.59,69.59,0,0,1,13.12-27.56c2.9-3.72,6.63-6.87,9.28-10.74,2.89-4.21,3.6-8.75,4.08-13.71.89-9.21,1.17-18.91,4.41-27.68-2.23,7.36-2,15.53-2.31,23.13-.22,4.68-.06,9.61-1.46,14.13-1.49,4.77-4.6,8-7.82,11.68a74.72,74.72,0,0,0-14.82,24.93c-1.69,5-2.62,10.18-4.17,15.21a124.33,124.33,0,0,1-5.23,13.81A146,146,0,0,1,428.28,598.36Z"/><path class="a" d="M581.51,610.06c-2.11-13.31-12.35-23.85-19.07-35s-10.31-23.45-12.14-36.42c-1.19-4.11-2.17-9.79-4.38-14.17-2.09-4.15-5.62-7.44-8.45-11.08a120.59,120.59,0,0,1-16.4-27.3,162.19,162.19,0,0,0,17.36,25.11c3.12,3.68,7,7,9.35,11.18s3.51,8.72,4.68,13.25c1.49,5.72,2.11,11.62,3.56,17.36,2.46,9.67,7,18.39,12.17,26.87,5.61,9.26,12.82,19.05,13.32,30.25C581,606.83,581.36,606.79,581.51,610.06Z"/><path class="a" d="M739.92,482.58H856.13a3.14,3.14,0,1,0,0-6.27H739.92a3.14,3.14,0,1,0,0,6.27Z"/><path class="a" d="M856.13,552.42H739.92a3.14,3.14,0,1,0,0,6.28H856.13a3.14,3.14,0,1,0,0-6.28Z"/><path class="a" d="M143.57,482.58H259.78a3.14,3.14,0,1,0,0-6.27H143.57a3.14,3.14,0,1,0,0,6.27Z"/><path class="a" d="M259.78,552.42H143.57a3.14,3.14,0,1,0,0,6.28H259.78a3.14,3.14,0,1,0,0-6.28Z"/><path class="a" d="M160.67,773.28a49.28,49.28,0,0,1-10.8-17.79A56.3,56.3,0,0,1,146.4,737q0-8.49.91-9.54a10.13,10.13,0,0,1,2.08-1.84,16.53,16.53,0,0,1,4.91-2.12q7.9,20.25,29.22,26a51.08,51.08,0,0,0,13.84,1.93,58.17,58.17,0,0,0,12.44-1.21,28.7,28.7,0,0,0,9.49-3.81q8.79-5.79,8.78-17.46,0-8.85-7-19.76-3-4.82-6.46-9.59c-2.31-3.18-4.47-6.42-6.46-9.69q-7-11.29-7-19.34a34.54,34.54,0,0,1,2.27-13.4,33,33,0,0,1,6.22-9.64,42.67,42.67,0,0,1,9.3-7.57,61.19,61.19,0,0,1,11.62-5.5,79.15,79.15,0,0,1,26.62-4.43q13.31,0,20.92,2.74c5.08,1.83,8.69,3.72,10.85,5.64s3.23,3.83,3.23,5.69a11.14,11.14,0,0,1-.87,4.68,21.53,21.53,0,0,1-2.22,3.71,26.06,26.06,0,0,1-5.69,5.69q-6.65-10.61-22.17-14.94A40.11,40.11,0,0,0,250.59,642a45.59,45.59,0,0,0-11,1.36,34.33,34.33,0,0,0-9.65,3.85q-9.35,5.4-9.35,14.08a16.33,16.33,0,0,0,3.33,9.45,81,81,0,0,0,8.29,9.83q5,5.12,10.75,10.71a110.35,110.35,0,0,1,10.7,12q11.67,14.85,11.67,29.26t-5.4,25A51.5,51.5,0,0,1,245.33,775Q227,789.39,199.14,789.39,175.62,789.39,160.67,773.28Z"/><path class="a" d="M365.38,738.09q0,11.56,8.2,11.58,7.14,0,15.91-6.47a59.87,59.87,0,0,0,13.69-14.65c2.9-.2,4.34,1,4.34,3.56q0,3.28-4,10a120.41,120.41,0,0,1-7.76,11.67,105.72,105.72,0,0,1-8.39,9.64,77,77,0,0,1-9.84,8.49q-11.67,8.29-22.75,8.29-16.78,0-22.37-12A63.45,63.45,0,0,1,310,779.17a35.87,35.87,0,0,1-9,1.06,28.42,28.42,0,0,1-9.84-1.78,23.19,23.19,0,0,1-8.34-5.17q-7.14-6.93-7.14-19.08,0-13.61,9.26-28.55a86,86,0,0,1,19.67-22q11-8.68,17.75-8.68c2.44,0,5.2,1.92,8.29,5.79a63.31,63.31,0,0,0-16.3,17q-7.62,11.49-7.62,20.74,0,11.19,9.36,11.19t14.56-3.19q3.76-15,16.87-31.05t23.82-20q3.48-1.26,9.45,3.28a20.62,20.62,0,0,1,2.22,1.83q-8.2,7-13.31,19.1Q365.39,729.9,365.38,738.09Z"/><path class="a" d="M437.13,722.37A116.84,116.84,0,0,1,417.45,720q-9.93,17.26-19.48,30.77c-.83,1.34-2.73,1.7-5.68,1.06q-7.92-1.74-9.07-4.06a64.24,64.24,0,0,0,24.11-31q-10.12-4.63-10.12-13.11,0-5.22,6.84-13.31,6.46-7.9,9.55-7.91,9.45,0,14.36,4.82a6.42,6.42,0,0,1,1.93,4.88q0,3-3.27,10.17,14.83,7.23,37.41,8.49a15.66,15.66,0,0,1-5.59,10.79,4,4,0,0,1-2.7,1.26,35.3,35.3,0,0,0-9.65,13.4,12.56,12.56,0,0,0-.86,4.44q0,9,10.7,9,7.23,0,16-6.47a60.06,60.06,0,0,0,13.69-14.65c2.89-.2,4.34,1,4.34,3.56q0,3.28-4,10a118.59,118.59,0,0,1-7.76,11.67,102.71,102.71,0,0,1-8.39,9.64,76.2,76.2,0,0,1-9.83,8.49q-11.67,8.29-22.85,8.29-19,0-25.46-11.76a18.52,18.52,0,0,1-2.22-9.21,26.25,26.25,0,0,1,2.17-10.37,44.2,44.2,0,0,1,5.93-9.93A62.3,62.3,0,0,1,437.13,722.37Z"/><path class="a" d="M478.59,747.54q-6.18-7.71-6.17-13.59a5.77,5.77,0,0,1,1.78-4.39,26,26,0,0,1,4.58-3.33,87.62,87.62,0,0,1,13.4-6.27q16.5-29.79,36.06-51.78,20.07-22.56,31.34-22.56,4.93,0,8.2,4.63a18,18,0,0,1,3.28,10.89,35.5,35.5,0,0,1-2,12,50.68,50.68,0,0,1-5.6,11,67.26,67.26,0,0,1-8.53,10.32,76.66,76.66,0,0,1-10.85,9,78.86,78.86,0,0,1-25.75,12.06q10.8,3.86,13.5,23.05a69,69,0,0,1,.68,8.53V751a23.17,23.17,0,0,0,6.13.68,22.09,22.09,0,0,0,8.33-1.93,43.07,43.07,0,0,0,9-5.11,64.5,64.5,0,0,0,14.75-16.1c2.89-.2,4.34,1,4.34,3.56q0,2.8-3.67,9.74a130.38,130.38,0,0,1-6.8,11.62,106.63,106.63,0,0,1-6.84,9.11,67.72,67.72,0,0,1-7.76,7.91q-9.08,7.62-17.65,7.62a21.56,21.56,0,0,1-3.28-.29q-5,21.3-15.33,35.19Q502,828.54,487.75,828.54q-10.61,0-15.91-11.28-4.63-9.84-4.63-26.42T478.59,747.54Zm25.84,20.35a132.52,132.52,0,0,0-.87,14.85,80.14,80.14,0,0,0,.63,11.33q.63,4.18,2.94,4.19,3,0,6.17-6.94,2.79-5.79,5.11-16.68A119.66,119.66,0,0,1,504.43,767.89Zm9.94-42.62-3.09,9.64a44.84,44.84,0,0,0,9.93,10.51Q520.73,728.35,514.37,725.27Zm43.29-60.08q0-5.49-3.23-5.49c-2.15,0-4.52,1.12-7.08,3.37a50.9,50.9,0,0,0-8,9.35q-8.69,12.35-17,31.63,13.59-4,24.39-15.81T557.66,665.19Z"/><path class="a" d="M559.78,769a25.08,25.08,0,0,1-2-10.65A36.74,36.74,0,0,1,560.5,745a87.74,87.74,0,0,1,7-14,126,126,0,0,1,9.59-13.49A130.42,130.42,0,0,1,587.65,706q11.48-10.89,16.87-10.89a9.31,9.31,0,0,1,5.16,2A20.41,20.41,0,0,1,613.3,700q-14.56,15.63-18.42,30.18a31.57,31.57,0,0,0-1.26,8.63,10.59,10.59,0,0,0,3.19,7.53,10.48,10.48,0,0,0,7.9,3.33,21.8,21.8,0,0,0,8.82-1.79,42.06,42.06,0,0,0,8.06-4.68,60.06,60.06,0,0,0,13.69-14.65c2.89-.2,4.34,1,4.34,3.56q0,3.2-4,10a100.35,100.35,0,0,1-8,11.82,96.37,96.37,0,0,1-9,9.78,69.88,69.88,0,0,1-11,8.58q-13.41,8.49-27.58,8.49Q565.07,780.81,559.78,769ZM634,673.82a36.41,36.41,0,0,1-8.54,3,37.17,37.17,0,0,1-8,1,20.8,20.8,0,0,1-6.08-.82,15.92,15.92,0,0,1-4.82-2.36c-3.09-2.25-4.62-4.95-4.62-8.09a17.28,17.28,0,0,1,1.68-8,15.82,15.82,0,0,1,4.87-5.59,27,27,0,0,1,16.44-5q9.6,0,14,4a11.89,11.89,0,0,1,4.39,9.06c0,3.41-.9,6.07-2.7,8A23.22,23.22,0,0,1,634,673.82Z"/><path class="a" d="M654.18,776.56c0,2.58-2.15,3.86-6.46,3.86q-16,0-22.76-12.73a22,22,0,0,1-2.51-10.8,44.07,44.07,0,0,1,1.84-12.48,71.74,71.74,0,0,1,4.92-12.3,91.41,91.41,0,0,1,7.13-11.76,101,101,0,0,1,8.59-10.51q9.54-10.22,18.12-14.37a10.18,10.18,0,0,1,4.2-1.06c1.25,0,2.3,0,3.13.1a6.21,6.21,0,0,1,4.73,2.4q-5.9,12.45-9.65,22.77a89.51,89.51,0,0,1,39.92-23,50.37,50.37,0,0,1,13-2c3.7,0,5.83.7,6.42,2.08a10.07,10.07,0,0,1,.86,3.8,30.67,30.67,0,0,1-.48,4.68,44.54,44.54,0,0,1-2.5,8.15q-2,5.21-4.15,10.51-5.4,13.5-5.4,18.42c0,5.65,2,8.49,6.08,8.49q10.41,0,22.94-13.7a66,66,0,0,0,6.66-8.48c2.89-.2,4.33,1,4.33,3.56q0,3.09-3.94,10.17t-7.58,12.25a98.72,98.72,0,0,1-8.14,10.08,68.66,68.66,0,0,1-9.94,8.87q-11.76,8.58-23,8.58t-17-5.88Q677.8,770.3,677.8,759q0-16.68,17.36-39.92,5.31-7,4.63-7-7.32,0-20.63,9.25T659,741A164.47,164.47,0,0,0,654.18,776.56Z"/><path class="a" d="M825.25,696.72q4.14-4.72,9.54-4.72a8.21,8.21,0,0,1,5.4,1.83q-9.54,15.24-19.67,45.32l-5.59,16.59q16.77-2.31,32.4-17.55a61.35,61.35,0,0,0,7.91-9.64c2.89-.2,4.33,1,4.33,3.56q0,1.54-2.31,7a58.67,58.67,0,0,1-7.86,12.64A76,76,0,0,1,837,764.41a73.19,73.19,0,0,1-30.28,14.37Q797.67,802.12,787,814q-13,14.46-31.14,14.46A36.31,36.31,0,0,1,733.16,821q-10.42-8-10.42-19.57,0-4.83,4.63-9.65a19.91,19.91,0,0,1,9.93-6.07q4.16,5.29,17.27,8.67a25.58,25.58,0,0,0,6.5.87,13.46,13.46,0,0,0,6.85-2.26,35.78,35.78,0,0,0,7.38-6.22q6.75-7.42,14.27-21-13.89,14.46-30.66,14.46A21.93,21.93,0,0,1,742,773q-6.75-7.34-6.75-18.8,0-14.76,11.57-28.64,11.19-13.5,29.31-22A90.93,90.93,0,0,1,815,694.79C819.59,694.79,823,695.44,825.25,696.72Zm-58.92,41.76q0,11.19,9.35,11.19,13.32,0,35-30.58,3.29-4.53,6.18-8.77,1.15-2.12,3.66-6.65-24,.57-39.34,11.18Q766.33,725,766.33,738.48Z"/><path class="a" d="M212.68,339.54c.23-.52.59-.77.88-.64l4.12,1.88c5.25,2.39,6.09,11.49,1.91,20.68-4.33,9.52-11.47,14.8-16.91,12.33l-18.34-8.36c-5.35-2.43-6.05-11.57-1.84-20.84a28.45,28.45,0,0,1,6.44-8.88c-.72-1.77-.53-4.14.64-6.69.23-.51.57-.76.87-.63l13,5.92c.29.13.33.56.09,1.07l-2.93,6.47c-.23.51-.58.76-.87.62l-4.13-1.87c-2.48-1.13-6.49,1.77-8.46,6.11s-1.73,9.47.85,10.64l18.35,8.35c2.72,1.24,6.5-1.56,8.67-6.32a13.3,13.3,0,0,0,1.13-6.36l.05,0c-.27-1.86-1-3.52-2.24-4.09l-4.13-1.88c-.29-.13-.33-.56-.09-1.07Z"/><path class="a" d="M254.15,302.07l-10.08-1.68-10.23,14.72,4.92,9.11a1.64,1.64,0,0,1-.15,1.15l-4.05,5.82c-.26.39-.89.63-1.05.4L212,293.18a1.44,1.44,0,0,1,.15-1.15l2.71-3.91a1.68,1.68,0,0,1,1-.53l43.53,6.75c.27.08.26.75,0,1.13l-4.21,6.06A1.46,1.46,0,0,1,254.15,302.07Zm-30.23-4.67L231,310.27l7.46-10.73Z"/><path class="a" d="M269.54,283.12,241.46,255c-.22-.23-.11-.64.29-1l5-5c.39-.4.81-.51,1-.28l24.92,24.91L290.28,256c.39-.4.78-.55,1-.32l2.83,2.83c.23.23.12.64-.28,1l-23.25,23.24C270.18,283.23,269.77,283.34,269.54,283.12Z"/><path class="a" d="M306,249.06l-24.57-31.2c-.2-.25,0-.65.4-1l5.57-4.39c.45-.34.87-.41,1.07-.16L313,243.52c.2.26,0,.65-.4,1L307,248.9C306.57,249.25,306.14,249.31,306,249.06Z"/><path class="a" d="M332.72,229.55c.17.27,0,.65-.52.94l-6,3.64c-.48.29-.91.3-1.07,0l-20.64-34c-.17-.27,0-.65.52-.94l28-17c.47-.29.9-.3,1.07,0l2.11,3.47c.17.27,0,.65-.52.94l-21.24,12.92,5.43,8.94,10.54-6.4c.48-.3.91-.31,1.08,0l2.08,3.43c.17.27,0,.65-.52.94l-10.54,6.41Z"/><path class="a" d="M385.27,203.07c-9.54,3.83-18.54,2.73-20.74-2.77L357,181.58c-2.17-5.4,3.7-12.59,13.06-16.35s18.43-2.46,20.56,2.85l7.51,18.72C400.33,192.2,394.72,199.28,385.27,203.07ZM372,170c-4.6,1.84-7.81,5.61-6.75,8.28L372.77,197c1,2.57,6.12,3.23,10.63,1.42a13.52,13.52,0,0,0,5.39-3.89l0,.05c1.09-1.54,1.55-3.16,1-4.44l-7.51-18.72C381.26,168.74,376.68,168.11,372,170Z"/><path class="a" d="M416,191.47l-8.43-38.81c-.07-.32.25-.6.8-.72l22.91-5c5.66-1.24,10.63.47,11.31,3.65l1.85,8.5a4.45,4.45,0,0,1-1.11,3.69,4.34,4.34,0,0,1,2.53,2.83l3.59,16.54c.23,1,2.15,1.11,2.25,1.53s-.26.6-.8.72l-8.77,1.92c-.55.12-1,0-1-.32l-4-18.47a2.72,2.72,0,0,0-1.43-.4l-15.15,3.31,4.15,19.15c.07.31-.25.59-.8.71l-6.84,1.5C416.5,191.91,416.09,191.78,416,191.47Zm18.59-29.31a3,3,0,0,0,.78-.39c.05-.23.35-.56.31-.77l-1.85-8.5c-.08-.37-.89-.58-1.46-.56l-15.15,3.31,2.22,10.22Z"/><path class="a" d="M490.23,140.83c0-.32.34-.55.9-.58l7-.36c.56,0,.94.17,1,.48l2,39.64c0,.32-.35.55-.91.58l-5.87.3c-1.12.06-1.55-.93-1.85-1.35L474.2,156.61l1.26,24.72c0,.32-.35.55-.91.58l-7.08.36c-.56,0-1-.16-1-.48l-2-39.63c0-.32.35-.56.9-.59l5.78-.29c1-.05,1.65,1.14,1.95,1.5l18.35,22.82Z"/><path class="a" d="M516.47,180.9l2.7-39.61c0-.32.41-.5,1-.46l7.08.48c.55,0,.91.27.9.59l-2.7,39.61c0,.32-.41.51-1,.47l-7.08-.48C516.81,181.46,516.45,181.23,516.47,180.9Z"/><path class="a" d="M576.07,189.7l-2.41-9.93-17.54-3.66-6.45,8.09a1.63,1.63,0,0,1-1.11.31l-6.95-1.45c-.45-.09-.93-.57-.78-.81l26.91-34.84a1.45,1.45,0,0,1,1.11-.32l4.65,1a1.64,1.64,0,0,1,.9.74l10.83,42.7c0,.28-.58.53-1,.44l-7.22-1.5A1.49,1.49,0,0,1,576.07,189.7Zm-7.54-29.64-9.08,11.52,12.79,2.66Z"/><path class="a" d="M639.29,168.86l21.1,10.42a14.73,14.73,0,0,1,5.72,4.85l0,0a4.89,4.89,0,0,1,.65,5l-3.85,7.8a3.92,3.92,0,0,1-3,2.27,4.1,4.1,0,0,1,.05,3.72l-6.05,12.25c-1.46,3-6.4,3.27-11.59.71l-21.09-10.42c-.5-.24-.75-.6-.6-.89l17.56-35.61C638.36,168.64,638.78,168.61,639.29,168.86Zm5.27,42.49c.67.33,1.17.16,1.34-.18l6-12.25c.12-.24-.28-.91-.7-1.12l-13.89-6.86-6.68,13.55Zm8.92-18.1c.77.14,1.18.17,1.41-.32l3.85-7.8a1.11,1.11,0,0,0-.62-1.26L644.22,177l-4.63,9.38Z"/><path class="a" d="M694.67,243.55c.46.33.66.68.48.94l-2.33,3.25c-.18.27-.61.22-1.07-.1L665,228.55c-.45-.32-.63-.71-.45-1l23.05-32.31c.18-.26.61-.22,1.06.11l26.74,19.08c.46.33.64.71.46,1l-2.36,3.3c-.19.26-.61.21-1.07-.11l-20.21-14.42-6.07,8.51,10.11,7.21c.45.32.64.72.45,1l-2.32,3.26c-.19.26-.62.22-1.07-.11l-10.11-7.2-8.76,12.28Z"/><path class="a" d="M729.71,282.93l3.54-9.59-12.53-12.83-9.87,3.11a1.75,1.75,0,0,1-1.1-.36l-5-5.08c-.33-.34-.45-1-.2-1.12l41.8-13.88a1.48,1.48,0,0,1,1.1.36l3.33,3.41a1.69,1.69,0,0,1,.34,1.11l-14.84,41.47c-.13.26-.79.12-1.12-.22L730.05,284A1.46,1.46,0,0,1,729.71,282.93ZM740,254.12l-14,4.49,9.14,9.35Z"/><path class="a" d="M777.43,322.47c.31.46.34.89.08,1.07l-3.76,2.54c-4.78,3.22-13-.81-18.61-9.17-5.84-8.67-6.59-17.51-1.64-20.85l16.71-11.28c4.86-3.29,13,.89,18.72,9.32a28.52,28.52,0,0,1,4.18,10.12c1.88.31,3.8,1.72,5.36,4,.32.46.34.89.08,1.07l-11.85,8c-.26.18-.65,0-1-.47l-4-5.88c-.31-.46-.35-.89-.08-1.07l3.76-2.54c2.26-1.52,1.89-6.46-.77-10.4s-7.17-6.42-9.51-4.84l-16.71,11.28c-2.48,1.67-2.08,6.36.84,10.69a13.13,13.13,0,0,0,4.82,4.29l0,0c1.73.75,3.52,1,4.67.23l3.75-2.53c.28-.19.66,0,1,.47Z"/><path class="a" d="M772.93,344.59,809,328c.29-.13.65.12.87.63l3,6.45c.24.51.2.94-.09,1.07l-13.67,6.28,7,15.28,13.68-6.28c.29-.14.64.11.88.62l2.91,6.37c.24.51.2.94-.09,1.07l-36.08,16.56c-.28.14-.64-.11-.87-.62l-2.92-6.37c-.23-.51-.19-.94.1-1.07l17.79-8.17-7-15.28-17.79,8.17c-.29.14-.65-.11-.87-.62l-3-6.45C772.59,345.15,772.64,344.72,772.93,344.59Z"/><path class="a" d="M311.73,834.56h-5.06c-.4,0-.67-.21-.67-.54v-4.37c0-2.77-3.07-5.18-6.47-5.18s-6.66,2.35-6.66,5.18c0,10.94,19.53,3,19.53,19.85,0,5.76-5.54,10.61-12.87,10.61s-13-4.32-13-10.3v-4.74c0-.32.27-.53.67-.53h5c.4,0,.67.21.67.53v4.74c0,3,2.93,5.29,6.66,5.29a7.9,7.9,0,0,0,4.6-1.5l-.06.06a6.14,6.14,0,0,0,1.93-4.11c0-12.81-19.47-4.06-19.47-19.32,0-6,5.27-10.88,13-10.88,6.94,0,12.87,4.75,12.87,10.3V834C312.4,834.35,312.13,834.56,311.73,834.56Z"/><path class="a" d="M320.75,859.58V819.89c0-.32.27-.54.67-.54h16.73c3.94,0,7.33,2.88,7.33,6V834a5.43,5.43,0,0,1-2.2,4.22v-.06a7.64,7.64,0,0,1-5.13,1.82H327.08v19.58c0,.32-.26.53-.66.53h-5C321,860.11,320.75,859.9,320.75,859.58Zm18-24.86c.07-.21.33-.48.33-.7v-8.69a1.34,1.34,0,0,0-.93-.86H327.08v10.46h11.07A2.86,2.86,0,0,0,338.75,834.72Z"/><path class="a" d="M366.84,860.11c-7.34,0-13-4.37-13-10.3V829.65c0-5.82,5.8-10.3,13-10.3s12.86,4.59,12.86,10.3v20.16C379.7,855.63,374.1,860.11,366.84,860.11Zm0-35.64c-3.54,0-6.67,2.3-6.67,5.18v20.16c0,2.78,3.2,5.29,6.67,5.29a7.51,7.51,0,0,0,4.6-1.6v0a5.12,5.12,0,0,0,1.86-3.74V829.65C373.3,826.77,370.43,824.47,366.84,824.47Z"/><path class="a" d="M388.06,859.58V819.89c0-.32.26-.54.66-.54h16.73c4.14,0,7.34,2.72,7.34,6V834a5.13,5.13,0,0,1-1.33,3.37,5,5,0,0,1,1.33,3.3v16.92c0,1.06,1.33,1.54,1.33,2s-.26.53-.67.53h-6.4c-.39,0-.66-.21-.66-.53V840.69a1.88,1.88,0,0,0-.94-.69H394.39v19.58c0,.32-.27.53-.67.53h-5C388.32,860.11,388.06,859.9,388.06,859.58Zm17.39-24.65a1.83,1.83,0,0,0,.6-.21c.07-.21.34-.48.34-.7v-8.69c0-.37-.53-.75-.94-.86H394.39v10.46Z"/><path class="a" d="M438.14,859.58c0,.32-.26.53-.67.53h-5.06c-.4,0-.67-.21-.67-.53V824.47h-8.6c-.4,0-.66-.21-.66-.53v-4.05c0-.32.26-.54.66-.54h23.47c.4,0,.66.22.66.54v4.05c0,.32-.26.53-.66.53h-8.47Z"/><path class="a" d="M548.19,834.56h-5.07c-.4,0-.67-.21-.67-.54v-4.37c0-2.77-3.06-5.18-6.46-5.18s-6.67,2.35-6.67,5.18c0,10.94,19.53,3,19.53,19.85,0,5.76-5.52,10.61-12.86,10.61s-13-4.32-13-10.3v-4.74c0-.32.26-.53.66-.53h5c.39,0,.66.21.66.53v4.74c0,3,2.93,5.29,6.67,5.29a7.93,7.93,0,0,0,4.6-1.5l-.07.06a6.1,6.1,0,0,0,1.93-4.11c0-12.81-19.46-4.06-19.46-19.32,0-6,5.27-10.88,13-10.88,6.93,0,12.86,4.75,12.86,10.3V834C548.85,834.35,548.59,834.56,548.19,834.56Z"/><path class="a" d="M582.41,844.75c.4,0,.66.21.66.53v4.53c0,5.77-5.66,10.3-12.86,10.3-7.47,0-13-4.32-13-10.3V829.65c0-5.87,5.73-10.3,13-10.3a15.48,15.48,0,0,1,7.67,2.19,5.25,5.25,0,0,1,4.53-2.19c.4,0,.66.22.66.54v14.29c0,.33-.26.54-.66.54h-5.07c-.4,0-.67-.21-.67-.54v-4.53c0-2.72-3.06-5.18-6.46-5.18s-6.67,2.35-6.67,5.18v20.16c0,3,2.93,5.29,6.67,5.29a7.42,7.42,0,0,0,4.46-1.6v0a5.26,5.26,0,0,0,2-3.74v-4.53c0-.32.27-.53.67-.53Z"/><path class="a" d="M591.43,859.58V819.89c0-.32.26-.54.66-.54h5.07c.4,0,.67.22.67.54v15h12v-15c0-.32.27-.54.66-.54h5c.39,0,.66.22.66.54v39.69c0,.32-.27.53-.66.53h-5c-.39,0-.66-.21-.66-.53V840h-12v19.58c0,.32-.27.53-.67.53h-5.07C591.69,860.11,591.43,859.9,591.43,859.58Z"/><path class="a" d="M637.51,860.11c-7.33,0-13-4.37-13-10.3V829.65c0-5.82,5.8-10.3,13-10.3s12.87,4.59,12.87,10.3v20.16C650.38,855.63,644.78,860.11,637.51,860.11Zm0-35.64c-3.53,0-6.66,2.3-6.66,5.18v20.16c0,2.78,3.2,5.29,6.66,5.29a7.51,7.51,0,0,0,4.6-1.6v0a5.1,5.1,0,0,0,1.87-3.74V829.65C644,826.77,641.11,824.47,637.51,824.47Z"/><path class="a" d="M671.73,860.11c-7.33,0-13-4.37-13-10.3V829.65c0-5.82,5.8-10.3,13-10.3s12.87,4.59,12.87,10.3v20.16C684.6,855.63,679,860.11,671.73,860.11Zm0-35.64c-3.53,0-6.67,2.3-6.67,5.18v20.16c0,2.78,3.2,5.29,6.67,5.29a7.51,7.51,0,0,0,4.6-1.6v0a5.1,5.1,0,0,0,1.87-3.74V829.65C678.2,826.77,675.33,824.47,671.73,824.47Z"/><path class="a" d="M693,859.58V819.89c0-.32.26-.54.67-.54h5.06c.4,0,.67.22.67.54V855.1h17.74c.39,0,.66.16.66.48v4c0,.32-.27.53-.66.53H693.62C693.21,860.11,693,859.9,693,859.58Z"/><path class="a" d="M167.77,535.57c.38,0,.63.19.63.56v4.71a.59.59,0,0,1-.63.63H145.69a.59.59,0,0,1-.63-.63V494.16a.59.59,0,0,1,.63-.62h22.08a.59.59,0,0,1,.63.62v4.77a.6.6,0,0,1-.63.63H151.08v12.29h8.35a.59.59,0,0,1,.62.63v4.71a.59.59,0,0,1-.62.63h-8.35v17.75Z"/><path class="a" d="M198.41,511.42h-4.77a.59.59,0,0,1-.63-.63v-5.15a6.26,6.26,0,0,0-6.09-6.08,6.34,6.34,0,0,0-6.27,6.08c0,12.86,18.38,3.58,18.38,23.34a12.24,12.24,0,0,1-12.11,12.49,11.84,11.84,0,0,1-12.23-12.11v-5.58a.59.59,0,0,1,.63-.63H180a.59.59,0,0,1,.63.63v5.58a6.16,6.16,0,0,0,6.27,6.21,6.51,6.51,0,0,0,4.33-1.76l-.06.07a8.08,8.08,0,0,0,1.82-4.83c0-15.06-18.32-4.77-18.32-22.71,0-7.1,4.95-12.8,12.23-12.8A12.32,12.32,0,0,1,199,505.64v5.15A.59.59,0,0,1,198.41,511.42Z"/><path class="a" d="M220.07,540.84a.59.59,0,0,1-.63.63h-4.77a.59.59,0,0,1-.63-.63V499.56H206a.6.6,0,0,1-.63-.63v-4.77a.59.59,0,0,1,.63-.62H228a.59.59,0,0,1,.63.62v4.77a.6.6,0,0,1-.63.63h-8Z"/><path class="a" d="M235,540.84V494.16a.59.59,0,0,1,.63-.62h15.81a7.15,7.15,0,0,1,6.9,7v34.13a6.86,6.86,0,0,1-6.9,6.78H235.58A.59.59,0,0,1,235,540.84Zm6-5.27h10.42a1.06,1.06,0,0,0,.88-.88V500.56c0-.43-.57-.81-.88-1H241Z"/><path class="a" d="M744.53,505.24a.58.58,0,0,1-.13-.88l8.1-10.48a.52.52,0,0,1,.75-.19h4.64a.59.59,0,0,1,.63.63V541a.59.59,0,0,1-.63.63h-4.77a.59.59,0,0,1-.62-.63V503.73L749.17,508a.57.57,0,0,1-.88.13Z"/><path class="a" d="M764.36,505.8a12.17,12.17,0,0,1,24.34,0v4.58l.13,18.13c.06,7.09-5.15,13.11-12.42,13.11-6.53,0-12-6.27-12-12.8l-.06-.68a.59.59,0,0,1,.62-.63h4.77a.6.6,0,0,1,.64.63v1.38a6.25,6.25,0,0,0,6.08,6.08c3.26,0,6.27-1.69,6.27-6.08l.07-6.4a12.46,12.46,0,0,1-6.28,1.69,12.08,12.08,0,0,1-12.11-12.11Zm6,6.9a6,6,0,0,0,6.08,6.09,6.26,6.26,0,0,0,6.28-6.09v-6.9a6.5,6.5,0,0,0-6.28-6.21,6.24,6.24,0,0,0-4.33,1.88v-.06a6.65,6.65,0,0,0-1.75,4.39Z"/><path class="a" d="M822,529.52c0,6.83-6.09,12.1-12.92,12.1s-13.81-5.14-13.81-12.1V525a11.5,11.5,0,0,1,5.27-9.29,11.94,11.94,0,0,1-3.7-8.84v-1.38a12.17,12.17,0,0,1,24.34,0v1.38a12.1,12.1,0,0,1-3.83,9A11.85,11.85,0,0,1,822,525ZM816,525c0-3.08-3-6.09-7.21-6.09s-7.53,3-7.53,6.09v4.52c0,3.26,4.58,6.21,7.85,6.21a6.23,6.23,0,0,0,4.32-1.89v.07c1.07-1.19,2.57-2.76,2.57-4.39Zm-.81-19.51a6.05,6.05,0,0,0-6.08-6.09,6.26,6.26,0,0,0-6.28,6.09v1.38a6.44,6.44,0,0,0,6.21,6.21,6.08,6.08,0,0,0,4.39-1.89v.07a6.66,6.66,0,0,0,1.76-4.39Z"/><path class="a" d="M827.32,505.8a12.18,12.18,0,0,1,24.35,0v4.58l.13,18.13c.06,7.09-5.15,13.11-12.43,13.11-6.52,0-12-6.27-12-12.8l-.06-.68a.59.59,0,0,1,.63-.63h4.77a.59.59,0,0,1,.63.63v1.38a6.25,6.25,0,0,0,6.08,6.08c3.26,0,6.28-1.69,6.28-6.08l.06-6.4a12.43,12.43,0,0,1-6.28,1.69,12.08,12.08,0,0,1-12.11-12.11Zm6,6.9a6.05,6.05,0,0,0,6.08,6.09,6.26,6.26,0,0,0,6.28-6.09v-6.9a6.5,6.5,0,0,0-6.28-6.21,6.26,6.26,0,0,0-4.33,1.88v-.06a6.7,6.7,0,0,0-1.75,4.39Z"/></svg>