<svg xmlns="http://www.w3.org/2000/svg" viewBox="0 0 1000 1000"><defs><style>.a{fill:#81d0d8;}</style></defs><path class="a" d="M280.45,164.52a16.21,16.21,0,0,0-3.22-8,15.3,15.3,0,0,0-6-4.54,39.23,39.23,0,0,0-8.57-2.33l-9-1.54q-28.72,0-51,5.9t-36.77,15.33q-14.52,9.47-21.64,20.12c-4.75,7.11-7.14,13.88-7.14,20.26,0,4.62,2.23,9.14,6.69,13.47s11.4,7.92,20.84,10.64,21,4.1,34.62,4.1h5.14q-22.65,5.46-39.06,11.14a145.16,145.16,0,0,0-28.83,13.28Q124,270,117.19,280.45a42.68,42.68,0,0,0-6.88,24q.31,13.86,16.37,22.71a85.42,85.42,0,0,0,34.44,10.43,170,170,0,0,0,33.69-3.17,155,155,0,0,0,26.7-7.7,129.86,129.86,0,0,0,18.56-9.09,98,98,0,0,0,11.6-8c5.63-4.57,9.47-9.11,11.47-13.67s3-10.15,3-16.77c0-3.76-.07-6.69-.23-8.8q-3.54,1.95-14.77,8.8t-19,10.82a98.09,98.09,0,0,1-15.55,6.39q-28.38,8.79-52.08,8.79c-.68,0-1.66,0-2.94-.13s-2.25-.1-2.93-.1q-20.62-.74-20.63-7.86c0-2.47,1.74-5.89,5.22-10.31s8.79-9.05,16-14,16.35-9.6,27.54-13.93a193.57,193.57,0,0,1,38.64-10.1,71.09,71.09,0,0,0,12-3.5c5.38-2,8.91-3.64,10.62-5.06.52-.45,1.89-1.48,4.15-3.09a31,31,0,0,0,5.24-4.6,6.86,6.86,0,0,0,1.87-4.62q-.7-5.37-16.4-5.37-8.33.24-22.11.24-25.57,0-37.73-1.53c-8.08-1-13.06-2.16-14.87-3.43a7.57,7.57,0,0,1-3.38-4.65c0-3.58,2.26-8,6.75-13.26s11.26-9.83,20.34-13.73,20.09-5.84,33.07-5.84a132.63,132.63,0,0,1,18.4,1.2l14,2a16,16,0,0,1,2,1.25,2.56,2.56,0,0,1,1.19,2.18q0,3.42-12.77,5.86c0,.73,1.33,1.66,4,2.78a20.43,20.43,0,0,0,8,1.66,14.14,14.14,0,0,0,5.45-1.19,36.42,36.42,0,0,0,11.37-8.72c2.88-3.4,4.34-8.62,4.34-15.6A43.63,43.63,0,0,0,280.45,164.52Z"/><path class="a" d="M364.56,273c-2.52,2.18-5.74,4.93-9.68,8.28q-2.56,2.18-5.06,4a75.23,75.23,0,0,1-6.46,4.42c-3.77,2.25-7.09,3.4-9.94,3.4q-8.88,0-8.88-11.55l.29-10.33,17.38-16.4a91.79,91.79,0,0,0,14.56-12.23c4.57-4.67,6.83-8.38,6.83-11.08q-.78-4-3.22-4-5.06,0-14,8.33l-21.88,19.91.78-22.37a37.58,37.58,0,0,0-.91-9.74,3.83,3.83,0,0,0-4-3q-3.5,0-13.93,7.84a216.49,216.49,0,0,0-19.88,16.87q-9.39,9-9.4,11.37a2.85,2.85,0,0,0,2.7,3.21q1.1,0,23.59-11.54l.26,19.17c-1.09.55-2.75,1.43-5,2.6s-4.28,2.26-6,3.27c-.83.44-2.81,1.37-5.92,2.85a39.39,39.39,0,0,0-7.84,4.75,84.28,84.28,0,0,0-6.64,5.82,8.15,8.15,0,0,0-1.92,3.81,72.41,72.41,0,0,0-1,9c0,5.32.39,9.16,1.12,11.57a15.66,15.66,0,0,0,1.84,4.44,3.56,3.56,0,0,0,2.7,1.66,2.87,2.87,0,0,0,2.26-1.32c.64-.86,1.84-2.75,3.58-5.64s3.5-5.52,5.26-8a61.86,61.86,0,0,1,6.6-7.63,65.51,65.51,0,0,1,5.5-4.77q3.58-2.85,5.29-4.05c0,.72,0,2.39-.1,5s-.13,4.7-.13,6.28c0,15.75,3.87,23.62,11.55,23.62,4.93,0,10.35-2.13,16.35-6.41a180.78,180.78,0,0,0,20.78-18q9.27-9.15,12.7-12.33c.62-.57,1.09-1,1.42-1.3Z"/><path class="a" d="M413.37,245.54q10.28,0,15.81-3.06a22.92,22.92,0,0,0,8.69-8.25q3.15-5.17,10.1-19.62l-15.24-1.25,3.9-5a57.2,57.2,0,0,0,4.1-6.1,10.39,10.39,0,0,0,1.6-4.83c0-3.11-2.62-4.67-7.83-4.67a20.69,20.69,0,0,0-9,1.84,23.28,23.28,0,0,0-6.64,4.73,56.18,56.18,0,0,0-5.45,6.59q-2.64,3.69-6,8.49c-8.7.28-15.16,1.11-19.42,2.54a22.1,22.1,0,0,0-10.12,6.56q-3.76,4.44-12,17.37l-2.7,4.43A108.71,108.71,0,0,1,374.34,244c.94,0,2.49.05,4.67.15s4.73.13,7.58.13q-11.37,19.4-37.29,39.27l.52,1.76,2.15,7.58,12.54-10.07.49.47c-.13.28-.23.54-.36.83-4.05,9.24-6.05,17.15-6.05,23.69,0,5,1.4,8.93,4.18,12s6.56,4.51,11.29,4.51q9.53,0,20.76-6.51A131,131,0,0,0,414.64,304q8.57-7.4,21.34-19.18l-.34-2.93-.91-7.86q-7.94,5.68-13.44,9.6c-4.21,3-7.37,5.24-9.53,6.77a97.8,97.8,0,0,1-10.79,6.7,18.91,18.91,0,0,1-8.46,2.46q-7.36,0-7.37-8.56,0-16.79,22.32-45.68A49.05,49.05,0,0,0,413.37,245.54Z"/><path class="a" d="M521.62,272c-.16.11-.5.39-1,.86-1.4,1.14-4.08,3.43-8.1,6.8a131.78,131.78,0,0,1-14.3,10.74c-3.94,2.47-7.5,3.72-10.66,3.72a7.9,7.9,0,0,1-5.27-2,6.18,6.18,0,0,1-2.34-4.9q0-11.44,19.1-28a55.34,55.34,0,0,0,7.94-7.69q2.39-3,2.39-8.25c-.49-4.23-2.44-8.56-5.89-13-.78-.81-2.44-1.19-4.9-1.19a57.42,57.42,0,0,0-7.3.57c-2.93.36-7,1-12.3,1.76s-10.09,1.48-14.5,2a17.8,17.8,0,0,0,1.68-6.83,3.93,3.93,0,0,0-1.27-2.93,4.23,4.23,0,0,0-3.11-1.25c-2.18,0-5.87,1.82-11,5.5a63.44,63.44,0,0,0-13.81,13.68q-6.07,8.13-6.07,16.17c0,2.65.47,4.49,1.4,5.6s2.67,1.77,5.19,2a88.72,88.72,0,0,1-16.17,17.91l0,.26.91,10.54c2.36-2.37,5.78-5.51,10.27-9.48,1.09-1,2.16-1.89,3.17-2.8q4.67-4.25,8-7.73a71.14,71.14,0,0,0,8.07-10.44l25.53-5.63.5.5c-1.9,2.23-4.36,5.16-7.42,8.82a114.22,114.22,0,0,0-7.87,10.51,51.65,51.65,0,0,0-5.32,10.61,34.15,34.15,0,0,0-2,11.5,20.37,20.37,0,0,0,4.65,13.18,14.77,14.77,0,0,0,12.07,5.77q9.18,0,25.17-13.06a253.68,253.68,0,0,0,21-19.05c1.86-1.92,3.66-3.84,5.32-5.71Z"/><path class="a" d="M608.74,271.05c-.08.06-.13.11-.21.16q-17.06,13.59-28.29,20.84l-.49.31a125.37,125.37,0,0,0,.23,15.78,122.21,122.21,0,0,0,11.65-8.72,170.65,170.65,0,0,0,13.21-12.28c2.13-2.23,4.18-4.46,6.13-6.74ZM572.46,309.7c-.11-1.35-.52-7.32-.44-13.32a37.12,37.12,0,0,1-14.3,3A19.1,19.1,0,0,1,547,296.41q-4.44-3-4.44-9.6l.41-2.31a62.61,62.61,0,0,0-7,4,83.09,83.09,0,0,0-15.58,13.31,36.06,36.06,0,0,0,5,9.61c4.6,6.33,11.08,9.47,19.44,9.47q11.37,0,23.67-6.13c1.43-.72,2.85-1.45,4.25-2.23v0C572.59,311.54,572.51,310.6,572.46,309.7Zm24.08-82.48A22.54,22.54,0,0,0,584.42,224,56,56,0,0,0,561,229.32,79,79,0,0,0,539.42,244a74.71,74.71,0,0,0-15.65,21,58.61,58.61,0,0,0-3.19,7.79,47.84,47.84,0,0,0-2.54,14,15.1,15.1,0,0,0-.08,1.9,41.54,41.54,0,0,0,.34,4.25,85.64,85.64,0,0,1,13.41-10.82c10.85-7.08,23.52-11.47,37.61-13.1a11.31,11.31,0,0,1,5.73.51,67.56,67.56,0,0,0,14.9-9.44,38.69,38.69,0,0,0,9.37-11.6,26.24,26.24,0,0,0,2.77-11.32C601.89,232.75,600,229.4,596.54,227.22Zm-20.81,21.54a75.37,75.37,0,0,1-31.25,20.55,55,55,0,0,1,14.17-20.21c6.26-5.66,12.56-9.29,19-10.93,2,0,2.93.88,2.93,2.68C580.53,242.43,578.94,245.05,575.73,248.76Z"/><path class="a" d="M783.47,271.29c-.21.15-.44.31-.65.44-13.05,8.9-21.67,14.45-25.77,16.69a52.78,52.78,0,0,1-11.62,4.75,5.25,5.25,0,0,1-4.13-2,6.23,6.23,0,0,1-1.74-4.2,19.48,19.48,0,0,1,1.56-6.23c.83-1.95,2.77-4.88,5.86-8.8s7.55-9.13,13.42-15.65c5.09-5.5,7.6-9.68,7.6-12.5q0-2.9-4.43-9.79c-.08-.1-.47-.83-1.2-2.18a25.91,25.91,0,0,0-2-3.35c-.67-.91-1.3-1.35-1.89-1.35a8.86,8.86,0,0,0-4.65,1.87c-1.82,1.27-4.1,2.93-6.85,5l-54.55,42.9-.47-.47c1-1.84,3.82-5.94,8.36-12.35s8.07-11.84,10.64-16.32,3.84-8.36,3.84-11.6a12.4,12.4,0,0,0-2.59-8.13,9.19,9.19,0,0,0-7.48-3.14c-3.76,0-8.95,2.21-15.54,6.57a202.13,202.13,0,0,0-21,16.22q-11.05,9.65-20.22,18.53T633,281.12c-2.62,2.65-4.25,3.95-4.9,3.95-.39,0-.78-.29-1.17-.86a2.71,2.71,0,0,1-.57-1.35,9.39,9.39,0,0,1,1.11-4.49,33.79,33.79,0,0,1,3.38-4.95c1.53-1.9,2.41-3,2.64-3.33a68.55,68.55,0,0,1,6.83-7.83c3.19-3.27,5.43-5.66,6.64-7.14q9.85-11.37,9.84-15.7c0-2.23-.91-3.63-2.72-4.15a53.86,53.86,0,0,0-8.31-1.53q-7.9,0-17.59,8.84a80.21,80.21,0,0,0-16.51,21.91c-1.19,2.28-2.23,4.51-3.14,6.72a48.59,48.59,0,0,0-3.69,15.93c0,.52-.05,1.07-.05,1.59a50.53,50.53,0,0,0,3.71,18.6q3.71,9.39,11.5,9.4c3.12,0,6.64-2.31,10.56-6.9q13-15.93,38.05-42.44,7.59-7.59,9.57-7.6a1.5,1.5,0,0,1,1.69,1.69,4.9,4.9,0,0,1-1.45,3.22q-21.61,33-21.62,42.66a10.69,10.69,0,0,0,10.85,10.33q5.45,0,10.82-4.31a124.38,124.38,0,0,0,11.94-11.16l39.08-35.84.47.5c-.62,1.06-2.29,3.71-4.91,8s-4.9,8.18-6.82,11.84a74.26,74.26,0,0,0-4.65,10.61,28.93,28.93,0,0,0-1.76,9.37,15.24,15.24,0,0,0,3.58,9.89,11.14,11.14,0,0,0,8.93,4.36q8.76,0,23.59-10.36,13.11-9.18,32-23.8l5-3.89Z"/><path class="a" d="M870.59,271.05q-17.16,13.71-28.49,21t-22.53,7.29a19.12,19.12,0,0,1-10.77-2.93q-4.44-3-4.44-9.6l1.19-6.83a141.22,141.22,0,0,0,28-8.8q11.69-5.25,18.27-11.05a38.54,38.54,0,0,0,9.37-11.6A26.26,26.26,0,0,0,864,237.21c-.21-4.46-2.05-7.81-5.56-10A22.54,22.54,0,0,0,846.27,224a56.08,56.08,0,0,0-23.38,5.37A79,79,0,0,0,801.27,244a74.9,74.9,0,0,0-15.65,21,60.79,60.79,0,0,0-2.8,6.65,48.8,48.8,0,0,0-2.93,15c0,.65-.08,1.33-.08,2,.29,8.85,2.73,16.4,7.35,22.71s11.08,9.47,19.43,9.47q11.37,0,23.67-6.13a117.41,117.41,0,0,0,23.25-15.36,165.83,165.83,0,0,0,19.31-19Zm-50.09-22c6.26-5.66,12.56-9.29,19-10.93,2,0,2.93.88,2.93,2.68,0,1.58-1.58,4.2-4.8,7.91a75.37,75.37,0,0,1-31.25,20.55A55.36,55.36,0,0,1,820.5,249.1Z"/><path class="a" d="M410.23,503.82a173.51,173.51,0,0,0-19.1-1.82,54.64,54.64,0,0,0-9.34.31,19.5,19.5,0,0,0-4.36.93,7.1,7.1,0,0,0-3.14,1.95c-1.4,1.35-.34,4.41,1.12,7.06a67.66,67.66,0,0,0,5.21,7.86c.68.91,1.38,1.82,2.08,2.75.47.57.91,1.17,1.4,1.74,1.58-.41,3.3-.93,5.09-1.58q12.84-4.9,18.94-9.47a22.22,22.22,0,0,0,7.11-9ZM363.73,618q-15.5-14.32-45.34-21.36-58.15-13.62-72.51-17.2a214,214,0,0,1-23.2-6.93c-5.89-2.26-9.24-4.18-10-5.79s-1.46-5.06-2-10.33q0-10.86,18-23.9t43.58-22.16c1.68-.6,3.35-1.17,5-1.69-27.72-5-47.7-9-63.63-16.27q-24.53,14.17-33,24.91a140.47,140.47,0,0,0-12.61,18,34.55,34.55,0,0,0-4.65,17.31q0,26.21,46.09,46.87,4.8,1.9,44.28,10.9t64.36,17.36q24.92,8.37,25,17.31,0,12.07-28.37,20a369.23,369.23,0,0,1-56.55,11.24Q230,679.61,216,680.49c-1.74,0-8.25-.12-19.57-.38s-20.71-.42-28.13-.42q-33.13,0-41.06,3.22c-5.5,2.07-9.68,7.16-12.56,15.21s-4.33,15.2-4.33,21.51q0,23.82,66.17,23.85,26.13,0,59.77-4.88a380.3,380.3,0,0,0,66.78-16q33.12-11.18,54.68-29.74t21.54-44.38Q379.25,632.32,363.73,618Zm38.61-156A88.36,88.36,0,0,0,380,456.45c-.1,1.12-.26,2.24-.41,3.35-.52,3.3-1,6.59-1.74,9.86a145.88,145.88,0,0,1-5.27,19.26c.62-6.64,1.45-13.21,2.21-19.78.52-4.38,1-8.72,1.42-13.13-3-.31-6.09-.52-9.36-.67-.11,1.92-.24,3.81-.34,5.71-.16,2.77-.34,5.58-.57,8.35-.39,5.58-.89,11.14-1.46,16.69s-1.22,11.13-2.07,16.69c-.31-5.61-.39-11.21-.37-16.82s.08-11.16.29-16.76c.05-2.78.18-5.58.31-8.36.08-1.87.16-3.74.26-5.63-1.63,0-3.3,0-5,0-2.75,0-5.47,0-8.2.13l-.05,8.43-.26,12.79c-.08,8.52-.29,17.05-.91,25.59-1-8.48-1.69-17-2.18-25.53-.36-7.06-.44-14.1-.52-21.15-4.82.15-9.63.46-14.38.88-.15,4.46-.38,8.9-.51,13.34-.16,3.89-.11,7.81-.16,11.73s-.15,7.83-.39,11.78c-.62-3.89-1.09-7.79-1.56-11.7s-.88-7.84-1-11.79-.18-7.89-.18-11.83c0-.39,0-.81,0-1.2a280.21,280.21,0,0,0-48.74,9.27q-32.78,9.38-56.7,21.77c14.4,5.58,32.65,9.19,57.59,13.71,4.93.9,9.73,1.76,14.37,2.59a105.36,105.36,0,0,1,22.66-2.72q19,0,25.12,9l4.52,2.46c.26,0,.52.08.75.13q15.84,5.22,30.73,8.83a58.84,58.84,0,0,1-5.56-7.74,18.92,18.92,0,0,1-2.1-4.9A8.56,8.56,0,0,1,370,506a6.58,6.58,0,0,1,.46-1.67,6.72,6.72,0,0,1,.83-1.45,10.41,10.41,0,0,1,4.86-3.27,25.09,25.09,0,0,1,5.11-1.17,62.24,62.24,0,0,1,10-.41,185.44,185.44,0,0,1,25.25,3.06q2.3-7.86,2.31-23.33C418.82,471.79,413.32,466.55,402.34,462Z"/><path class="a" d="M479.58,591.74c-1.56,0-3.51,0-5.84.18s-3.82.21-4.42.21q-9.33,0-15.26,2.88a157.78,157.78,0,0,0,35.69,15.47c.26-.24.49-.5.73-.73a12.67,12.67,0,0,0,3.94-9C494.08,594.75,489.15,591.74,479.58,591.74Zm122.83,83.77L600.56,662q-14.13,11.4-25.43,19.43Q548,700.68,537.21,700.69q-10.35,0-10.35-9,0-12.33,13.26-30.33a204.93,204.93,0,0,1,26.71-30.13l6.59-5.61a70.52,70.52,0,0,0,7-6.93,47.08,47.08,0,0,0,5.86-8.43A33.58,33.58,0,0,0,589.82,600a55.66,55.66,0,0,0,1.22-9.84c0-4-1-6.54-3.06-7.53s-6.23-1.5-12.51-1.5c-3,0-7.74,2.72-14.15,8.23s-14.4,12.89-23.92,22.24l-1.85,1.81a12.65,12.65,0,0,1-.67,3.87,14.6,14.6,0,0,1-3.12,5.27,7.6,7.6,0,0,1-5.65,2.52,5.36,5.36,0,0,1-.7-.06c-.6-.05-1.22-.13-1.82-.2q-2.54,2.29-3.66,3.11-13.54,16.47-40.67,41.16t-49.41,24.71c-1.94-1.15-2.9-3.35-2.9-6.62q0-8.83,7.47-22.76t14.71-20.84a158.84,158.84,0,0,1,15.52-12.69q8.69-6.27,14.93-11.6c1.27-1,2.49-2,3.6-2.91A161.07,161.07,0,0,1,447,599.58a127.51,127.51,0,0,0-22.68,21.67,144.67,144.67,0,0,0-21.8,35.29Q394,676,394,695q0,43.17,31.33,43.18,22.31-1.51,41.23-21.26t27.05-32.59q-9.93,25.73-9.94,35.76a28.83,28.83,0,0,0,6.69,19.13q6.66,8,17.62,8,10.44,0,23.44-7.08a165.38,165.38,0,0,0,26-17.78q12.92-10.71,25.35-22.79T603,679.79Z"/><path class="a" d="M743.27,662Q742,663,728,674.84c-2,1.63-3.84,3.22-5.68,4.67A191.29,191.29,0,0,1,704,692.85q-9.93,6.23-17.88,6.23a13.16,13.16,0,0,1-8.83-3.33,10.28,10.28,0,0,1-3.92-8.22q0-19.15,32-46.9,9.35-7.82,13.31-12.9c2.65-3.37,4-8,4-13.8-.8-7.11-4.1-14.35-9.83-21.8-1.35-1.32-4.1-2-8.26-2a96.39,96.39,0,0,0-12.19,1q-7.39.93-20.64,3t-24.29,3.4A29.55,29.55,0,0,0,650.29,586a6.7,6.7,0,0,0-2.11-4.9,7.07,7.07,0,0,0-5.24-2.13q-5.52,0-18.48,9.24a106.41,106.41,0,0,0-23.15,22.91c-6.77,9.09-10.17,18.15-10.17,27.1,0,4.44.78,7.55,2.36,9.39s4.47,3,8.67,3.38q-13.35,18.87-27.09,30l0,.44,1.56,17.63q5.91-5.93,17.2-15.86c3.07-2.7,5.89-5.27,8.52-7.71q5.76-5.37,10.12-10a116.9,116.9,0,0,0,13.54-17.49l42.8-9.43.8.81q-4.74,5.61-12.4,14.79a188.77,188.77,0,0,0-13.21,17.65,84.74,84.74,0,0,0-8.9,17.75,56.57,56.57,0,0,0-3.35,19.28A34.21,34.21,0,0,0,639.59,731a24.83,24.83,0,0,0,20.22,9.63q15.38,0,42.2-21.88,12.91-10.59,23.69-20.6c7.66-7.16,14.51-14.12,20.48-20.87Z"/><path class="a" d="M882.66,529.82q7-17.72,7-28.57c0-12.05-3.3-18.07-9.83-18.07-3,0-6.49,1.69-10.59,5,.62.85,1.27,1.68,1.92,2.52a7.56,7.56,0,0,1,.85,8.17,7.65,7.65,0,0,1-6.8,4.18,1.12,1.12,0,0,1-.31,0,72.73,72.73,0,0,1-8.67-.88c-.93,1.17-1.86,2.41-2.82,3.69a519.57,519.57,0,0,0-32.55,49.36q-15.57,26.65-25.79,45.93-10.67,19.82-22,33.24a97,97,0,0,1-28.26,22.71c-5.81,3.22-10.12,5.71-12.85,7.53a24,24,0,0,0-7.13,7.52,19.76,19.76,0,0,0-2.62,7.35,32.75,32.75,0,0,0-.39,5.21,23,23,0,0,0,2.75,11.76c.31.55.67,1.09,1.06,1.69a86.34,86.34,0,0,0,8,9.94q-4.51,9.57-9.52,19.95T715,748.9a178.2,178.2,0,0,0-7.09,21.44A82.14,82.14,0,0,0,705,790.76a98.53,98.53,0,0,0,5.81,32.18q5.83,16.81,18.38,16.82,15.57-2.29,36.85-17.1a151.6,151.6,0,0,0,37-36.85q15.74-22.08,17.13-44.74c.26-2.49.42-6.21.42-11.16a59.4,59.4,0,0,0-.81-11.45q21.3-10.55,53-39.16l-4.51-15.16-55.54,34.55q-6.42-15-9.94-21.44c-2.36-4.33-6.18-8-11.44-11.11l76.92-107.36C873.19,551.31,878,541.63,882.66,529.82ZM778.77,773.25q-11,20.82-29.37,32.77-8.22-15.25-8.23-36.64,2.3-18.37,19-46.4c9,2.49,14.22,3.71,15.57,3.71.34,0,1.77-.08,4.31-.24s5.79-.25,9.76-.25Q789.78,752.39,778.77,773.25Zm84.94-279.76c-.54.57-1.09,1.14-1.63,1.76,1.14.13,2.2.18,3.16.23C864.75,494.86,864.23,494.21,863.71,493.49Z"/><path class="a" d="M358.1,835.4V787.86h-7.27v54.78h15.39V835.4Z"/><path class="a" d="M385.92,823.15V809.21c0-5.63-2.52-8.43-7.58-8.43s-7.4,2.8-7.4,8.43v25.72c0,5.53,2.47,8.31,7.4,8.31s7.58-2.78,7.58-8.31v-9h-6.13v9c0,1.16-.49,1.73-1.45,1.73S377,836,377,834.93V823.15ZM377,809.21c0-1.08.45-1.66,1.33-1.66s1.45.58,1.45,1.66v9.27H377Z"/><path class="a" d="M407.22,828.65a11.52,11.52,0,0,0-2.07-5c-.63-.83-1.38-1.73-2.31-2.77s-1.61-1.79-2.21-2.47a14.27,14.27,0,0,1-1.35-1.81,5.42,5.42,0,0,1-.67-1.56,8.06,8.06,0,0,1-.16-1.74V809q0-1.74,1.32-1.74,1.53,0,1.53,1.74v6.39h5.92v-6.33c0-2.89-.52-5-1.58-6.31s-3.09-2-6.07-2A7.84,7.84,0,0,0,394,802.6c-1.29,1.22-2,3.4-2,6.49v3.14a17.76,17.76,0,0,0,.34,3.53,13.65,13.65,0,0,0,.93,2.77,13.93,13.93,0,0,0,1.48,2.44c.57.78,1.22,1.58,1.92,2.44.94,1.06,1.66,2,2.23,2.65a16.69,16.69,0,0,1,1.28,1.87,5.44,5.44,0,0,1,.54,1.42,6.46,6.46,0,0,1,.16,1.46v4.25c0,1.14-.47,1.72-1.41,1.72s-1.53-.58-1.53-1.72v-6.2H392v6.33c0,2.81.62,4.83,1.87,6.13a7.19,7.19,0,0,0,5.47,1.92c2.65,0,4.68-.57,6-1.77s2-3.16,2-5.94v-3.74A22.18,22.18,0,0,0,407.22,828.65Z"/><path class="a" d="M428.53,828.65a10.38,10.38,0,0,0-.7-2.54,10.64,10.64,0,0,0-1.4-2.47,33.39,33.39,0,0,0-2.29-2.77c-.88-1-1.63-1.79-2.2-2.47a11.86,11.86,0,0,1-1.35-1.81,5.77,5.77,0,0,1-.68-1.56,8.81,8.81,0,0,1-.15-1.74V809q0-1.74,1.32-1.74c1,0,1.53.58,1.53,1.74v6.39h5.92v-6.33c0-2.89-.52-5-1.58-6.31s-3.09-2-6.08-2a7.83,7.83,0,0,0-5.55,1.82c-1.32,1.22-2,3.4-2,6.49v3.14a18.59,18.59,0,0,0,.33,3.53,14.29,14.29,0,0,0,.94,2.77,13.76,13.76,0,0,0,1.45,2.44c.6.78,1.25,1.58,1.95,2.44.93,1.06,1.66,2,2.23,2.65a19.59,19.59,0,0,1,1.27,1.87,5.17,5.17,0,0,1,.55,1.42,6.55,6.55,0,0,1,.13,1.46v4.25c0,1.14-.45,1.72-1.38,1.72s-1.53-.58-1.53-1.72v-6.2h-5.94v6.33c0,2.81.62,4.83,1.87,6.13a7.19,7.19,0,0,0,5.47,1.92c2.65,0,4.65-.57,6-1.77s2-3.16,2-5.94v-3.74A22.18,22.18,0,0,0,428.53,828.65Z"/><path class="a" d="M448.72,802.91c-1.3-1.43-3.27-2.13-5.94-2.13s-4.65.7-5.92,2.13-1.92,3.45-1.92,6.12v26c0,2.65.62,4.7,1.92,6.08s3.27,2.1,5.92,2.1,4.64-.7,5.94-2.1a8.73,8.73,0,0,0,1.92-6.08V809A8.84,8.84,0,0,0,448.72,802.91Zm-4.46,31.87c0,1.22-.5,1.81-1.48,1.81s-1.46-.59-1.46-1.81V809.29c0-1.19.5-1.79,1.46-1.79s1.48.6,1.48,1.79Z"/><path class="a" d="M468.21,800.78a5.71,5.71,0,0,0-5.06,2.86,9.54,9.54,0,0,0-.21-2.21h-5.5v41.21H464V807.81a2,2,0,0,1,1.53-.65c.89,0,1.33.52,1.33,1.59v33.89h6.54V808.36Q473.35,800.77,468.21,800.78Z"/><path class="a" d="M494.84,828.65a10.4,10.4,0,0,0-.71-2.54,10.14,10.14,0,0,0-1.37-2.47c-.62-.83-1.38-1.73-2.31-2.77s-1.61-1.79-2.21-2.47a14.27,14.27,0,0,1-1.35-1.81,5.71,5.71,0,0,1-.67-1.56,8.06,8.06,0,0,1-.16-1.74V809c0-1.16.44-1.74,1.33-1.74s1.53.58,1.53,1.74v6.39h5.92v-6.33c0-2.89-.52-5-1.59-6.31s-3.09-2-6.07-2a7.85,7.85,0,0,0-5.55,1.82c-1.3,1.22-2,3.4-2,6.49v3.14a17.76,17.76,0,0,0,.34,3.53,14.29,14.29,0,0,0,.93,2.77A14.56,14.56,0,0,0,482.4,821c.58.78,1.22,1.58,1.92,2.44.94,1.06,1.67,2,2.24,2.65a17.87,17.87,0,0,1,1.27,1.87,5.11,5.11,0,0,1,.54,1.42,5.93,5.93,0,0,1,.16,1.46v4.25c0,1.14-.47,1.72-1.4,1.72s-1.53-.58-1.53-1.72v-6.2h-6v6.33c0,2.81.63,4.83,1.87,6.13a7.22,7.22,0,0,0,5.48,1.92c2.64,0,4.67-.57,6-1.77s2-3.16,2-5.94v-3.74A22.3,22.3,0,0,0,494.84,828.65Z"/><path class="a" d="M533,838.26a2.38,2.38,0,0,1-1-.19,2.2,2.2,0,0,1-.7-.36,17.87,17.87,0,0,0,2.31-6,34.45,34.45,0,0,0,.7-7v-2.33h-3.86v2.12a30.52,30.52,0,0,1-.31,4.26,16.55,16.55,0,0,1-1,3.92l-6.31-18c.88-1.19,1.69-2.36,2.39-3.5a30.32,30.32,0,0,0,1.84-3.45,24.46,24.46,0,0,0,1.2-3.66,18.76,18.76,0,0,0,.44-4.05v-3.84a15.4,15.4,0,0,0-.39-3.58,7.48,7.48,0,0,0-1.17-2.78A5.21,5.21,0,0,0,525,788a7.9,7.9,0,0,0-3.32-.62c-2.52,0-4.36.67-5.45,2.05s-1.66,3.69-1.66,6.88v3.32c0,.8,0,1.58.05,2.36a16.28,16.28,0,0,0,.42,2.7c.2,1,.54,2.26,1,3.69s1.07,3.26,1.87,5.42a39.44,39.44,0,0,0-2.36,3.4,15.13,15.13,0,0,0-1.53,3.27,18.82,18.82,0,0,0-.83,3.5,27.84,27.84,0,0,0-.29,4.08v3.81a27.73,27.73,0,0,0,.42,5,8.63,8.63,0,0,0,1.4,3.56,5.84,5.84,0,0,0,2.75,2.13,14.76,14.76,0,0,0,8,.28,7.57,7.57,0,0,0,2.7-1.37,4.28,4.28,0,0,0,1.51,1.06,5.13,5.13,0,0,0,2.07.39,7.81,7.81,0,0,0,2-.21,6.94,6.94,0,0,0,1.27-.57V837.4A2.25,2.25,0,0,1,533,838.26Zm-14.11-41.81a5.66,5.66,0,0,1,.7-3.17,2.56,2.56,0,0,1,2.31-1,2.13,2.13,0,0,1,2.12,1.27,7.55,7.55,0,0,1,.6,3.2v2.8a15,15,0,0,1-1,5.92,19,19,0,0,1-2.56,4.46,49.76,49.76,0,0,1-1.54-5,22,22,0,0,1-.59-5Zm3.53,42.07c-1.77,0-3-.52-3.61-1.54s-1-2.75-1-5.19v-3.92c0-1.11.05-2.1.11-2.93a22.77,22.77,0,0,1,.31-2.31,9.08,9.08,0,0,1,.59-1.89,15.57,15.57,0,0,1,1-1.79l6.41,18.45A5.77,5.77,0,0,1,522.4,838.52Z"/><path class="a" d="M569.58,823.07a14,14,0,0,0-.83-2.9,28.91,28.91,0,0,0-1.56-3c-.65-1-1.48-2.2-2.44-3.5s-1.87-2.42-2.54-3.3a25.88,25.88,0,0,1-1.59-2.28,8.65,8.65,0,0,1-.88-1.84,6.87,6.87,0,0,1-.26-1.9v-8.12a1.74,1.74,0,0,1,3.48,0v10.07h6.64V796.24c0-3.06-.65-5.32-2-6.8s-3.5-2.18-6.62-2.18c-5.89,0-8.85,3-8.85,9v8.2a14.33,14.33,0,0,0,.34,3.22,15.73,15.73,0,0,0,1,3,17.67,17.67,0,0,0,1.61,2.93c.62,1,1.37,2,2.23,3.14,1.09,1.4,2,2.57,2.67,3.48a18.51,18.51,0,0,1,1.64,2.41,6.53,6.53,0,0,1,.8,1.89,8.75,8.75,0,0,1,.21,1.92v7.79a1.59,1.59,0,0,1-1.79,1.82c-1.17,0-1.74-.6-1.74-1.82V822.53h-6.93v11.65c0,2.93.7,5.19,2.13,6.75s3.66,2.31,6.72,2.31,5.35-.78,6.72-2.31,2.08-3.82,2.08-6.75v-7.84A21.59,21.59,0,0,0,569.58,823.07Z"/><path class="a" d="M590.93,803.09a5,5,0,0,0-4.15-2,6.1,6.1,0,0,0-3.09.65,4.13,4.13,0,0,0-1.63,2,13.29,13.29,0,0,0-.21-2.26h-5.53v50.48h6.54v-9.79a6.56,6.56,0,0,0,8.15-.65c1-1.16,1.51-3.09,1.51-5.76V808.9A9.14,9.14,0,0,0,590.93,803.09Zm-4.95,32a1.4,1.4,0,0,1-1.59,1.59,1.61,1.61,0,0,1-1.53-.86V809a1.65,1.65,0,0,1,1.53-.94c1.07,0,1.59.57,1.59,1.74Z"/><path class="a" d="M612.68,802.91c-1.3-1.43-3.27-2.13-5.91-2.13s-4.65.7-5.95,2.13A8.84,8.84,0,0,0,598.9,809v26a8.73,8.73,0,0,0,1.92,6.08c1.3,1.4,3.27,2.1,5.95,2.1s4.61-.7,5.91-2.1,1.92-3.43,1.92-6.08V809C614.6,806.36,614,804.31,612.68,802.91Zm-4.46,31.87c0,1.22-.49,1.81-1.45,1.81s-1.48-.59-1.48-1.81V809.29c0-1.19.49-1.79,1.48-1.79s1.45.6,1.45,1.79Z"/><path class="a" d="M631.13,801a4.17,4.17,0,0,0-4,2.6,11.15,11.15,0,0,0-.21-2.13H621.4v41.21h6.52V809.09a1.52,1.52,0,0,1,.9-.89,3.87,3.87,0,0,1,1.3-.23,3.55,3.55,0,0,1,2.13.52v-7.32A2.59,2.59,0,0,0,631.13,801Z"/><path class="a" d="M645.9,837a2.87,2.87,0,0,1-.8-2.36V807.09h3v-5.66h-3v-13h-6.52v13h-2.07v5.66h2.07v27.64A9.65,9.65,0,0,0,640.4,841q1.83,2.26,5.84,2.26c.36,0,.67,0,1,0s.65-.05,1-.1v-5.53A3.74,3.74,0,0,1,645.9,837Z"/><path class="a" d="M854.94,480c-3.81-6.88-6.77-14-10.38-26.11a305.23,305.23,0,0,1-7.47-30.62,54.47,54.47,0,0,1,.52-23.26,321.5,321.5,0,0,1,44.48-102q-15.15,9-30.26,18a195.11,195.11,0,0,0-47,45.54,192.56,192.56,0,0,0-18.6,31.12,21.43,21.43,0,0,1-10.85,10.48,35.3,35.3,0,0,1-14,2.78,42.8,42.8,0,0,1-12.75-2c-2.49-.39-5.14-.78-7.89-1.19a2.58,2.58,0,0,1-2.18-2.39,22.76,22.76,0,0,0-2.28-8.05,15.62,15.62,0,0,0-5.37.68c-3.14,1-4.31,2.57-7.58,4.23a24.21,24.21,0,0,1-5.61,1.95c-11.88-1.87-25.17-4-39.68-6.41s-30.18-5.06-46.89-8c-12.77-2.26-24.08-4.28-34.18-6.15a16.46,16.46,0,0,1-10.72-7.08s0-.06,0-.08a.54.54,0,0,1-.11-.18,70.2,70.2,0,0,1-11.57-33.17c-.8-10.09-1.4-18.74-1.9-25.64v0c-.07-1-.15-1.92-.2-2.82-.11-1.35-.52-7.32-.44-13.32.05-5.19.46-10.38,1.81-12.53a6,6,0,0,0,1-4.15,3.67,3.67,0,0,0-4.41-3.12,80.65,80.65,0,0,0-27.49,7.92,62.61,62.61,0,0,0-7,4,83.09,83.09,0,0,0-15.58,13.31,156.12,156.12,0,0,0-13,16.72c-6.62,9.44-14.82,17.77-20.81,27.63a22,22,0,0,1-5.48,6.23,23.26,23.26,0,0,1-10,4.31c-16.38-1.19-32.21-1.74-47.34-1.74-74.14,0-131.62,12.56-155,19-7.68,2.11-24.71,7.17-58.75,17.26-23.59,7-35.69,10.22-52.32,16.74-12.8,5-23.52,10-31.72,14.09a6.59,6.59,0,0,0-2.41,9.73,61.46,61.46,0,0,0,8.43,9.63c14.17,13.18,30.47,16.07,36.8,17.1a75.77,75.77,0,0,0,16.79.89s.06,0,.06.07a48,48,0,0,0,11.73-.26c3.42-.54,5.5-1.27,8.95-1.09a22.43,22.43,0,0,1,8.15,2.11,95.38,95.38,0,0,1-12.93,4.85,91.47,91.47,0,0,1-9.6,2.28c.29.34.6.68.94,1,8.25,8.82,17.51,14.74,29.4,19.3,14.4,5.58,32.65,9.19,57.59,13.71,4.93.9,9.73,1.76,14.37,2.59,20.69,3.63,38.41,6.57,52.3,8.77.26,0,.52.08.75.13q15.84,5.22,30.73,8.83a58.84,58.84,0,0,1-5.56-7.74,18.92,18.92,0,0,1-2.1-4.9A8.56,8.56,0,0,1,370,506a6.58,6.58,0,0,1,.46-1.67,6.72,6.72,0,0,1,.83-1.45,10.41,10.41,0,0,1,4.86-3.27,25.09,25.09,0,0,1,5.11-1.17,62.24,62.24,0,0,1,10-.41,185.44,185.44,0,0,1,25.25,3.06c4.49.8,9,1.74,13.39,2.73q19,4.23,37.45,10.17c-12.71-2.34-25.35-4.91-38-7.14-4.7-.8-9.4-1.61-14.07-2.33l-5-.7a173.51,173.51,0,0,0-19.1-1.82,54.64,54.64,0,0,0-9.34.31,19.5,19.5,0,0,0-4.36.93,7.1,7.1,0,0,0-3.14,1.95c-1.4,1.35-.34,4.41,1.12,7.06a67.66,67.66,0,0,0,5.21,7.86c.68.91,1.38,1.82,2.08,2.75.47.57.91,1.17,1.4,1.74,2.78,3.56,5.68,7.09,8.62,10.59,4.07,5,8.25,10,12.27,15,16.43,18.09,24.63,27.1,34.93,35.14A142.3,142.3,0,0,0,454.06,595a157.78,157.78,0,0,0,35.69,15.47,188.78,188.78,0,0,0,36.36,6.95,7.11,7.11,0,0,0,1.53-2.54c2-6.2-6.18-13.91-9.71-17.42A173.13,173.13,0,0,1,488.22,555c-5.43-11.06-6.57-17.93-6.1-22.53,10-.39,18.84-1.17,26.44-2,55.1-6.41,102.93-25.2,126.54-35.76.39-.16.76-.34,1.12-.49a31.37,31.37,0,0,1,20.45-1.82l.13,0c6,1.53,19.7,6.64,31.3,8,1.43.15,5.24.54,6.1-1.09.33-.7,0-1.56-2.24-5.71-2.67-4.93-3.37-5.84-3.6-7.61-.24-1.61,0-3.11,1.11-5.89.18-.47.39-.93.57-1.37a39.72,39.72,0,0,1,19.81-20.14c2.2-1,4.49-2.11,6.85-3.19,24.47-11.35,45-20.38,59.48-26.58a5.83,5.83,0,0,1,6.75,1.56c5.86,6.8,13.49,15.6,22.42,25.77,19.77,22.5,27,30.13,39.37,35a61.59,61.59,0,0,0,17.36,4.05c1.14.13,2.2.18,3.16.23-.49-.62-1-1.27-1.53-2A107.7,107.7,0,0,1,854.94,480ZM171.37,435.38a5,5,0,1,1,4.88-4.62A4.77,4.77,0,0,1,171.37,435.38ZM327.73,446.1l0-11.73.08-5.84c0-2,.05-4,.23-6a89.34,89.34,0,0,1,1.84-11.76,18.3,18.3,0,0,0-.67-11.26,17.21,17.21,0,0,1,2.62,11.57c-.39,3.9-.65,7.76-.68,11.6,0,1.92.08,3.82.16,5.77l.18,5.89.18,11.83c-.05,3.4-.15,6.77-.34,10.15-.15,4.46-.38,8.9-.51,13.34-.16,3.89-.11,7.81-.16,11.73s-.15,7.83-.39,11.78c-.62-3.89-1.09-7.79-1.56-11.7s-.88-7.84-1-11.79-.18-7.89-.18-11.83c0-.39,0-.81,0-1.2C327.63,453.11,327.76,449.6,327.73,446.1Zm21.88,17.62-.26,12.79c-.08,8.52-.29,17.05-.91,25.59-1-8.48-1.69-17-2.18-25.53-.36-7.06-.44-14.1-.52-21.15,0-1.48,0-3,0-4.47l.07-12.79a39.81,39.81,0,0,1,2.52-13.06l.62-1.53c.21-.49.39-1,.55-1.43a26.72,26.72,0,0,0,.88-2.93,27.6,27.6,0,0,0,.86-6.07,31.79,31.79,0,0,0-2.13-12.33,27.38,27.38,0,0,1,4.08,12.28,30.14,30.14,0,0,1-.24,6.64,26.06,26.06,0,0,1-.7,3.27c-.16.55-.34,1.09-.49,1.61s-.31,1-.47,1.48a40.4,40.4,0,0,0-1.71,12.07l.13,12.77,0,4.36Zm16.87-2.67c-.16,2.77-.34,5.58-.57,8.35-.39,5.58-.89,11.14-1.46,16.69s-1.22,11.13-2.07,16.69c-.31-5.61-.39-11.21-.37-16.82s.08-11.16.29-16.76c.05-2.78.18-5.58.31-8.36.08-1.87.16-3.74.26-5.63,0-.91.08-1.82.13-2.75.31-5.58.65-11.14,1.12-16.72l0-.26.05-.15c.78-2.39,1.54-4.75,2.18-7.19s1.28-4.85,1.77-7.32a149.42,149.42,0,0,0,2.28-15,75.92,75.92,0,0,1,0,15.37c-.26,2.54-.63,5.11-1.12,7.63s-1,4.87-1.69,7.29c-.15,5.5-.39,11-.65,16.55,0,.91-.07,1.79-.12,2.68C366.71,457.26,366.58,459.15,366.48,461.05Zm13.08-1.25c-.52,3.3-1,6.59-1.74,9.86a145.88,145.88,0,0,1-5.27,19.26c.62-6.64,1.45-13.21,2.21-19.78.52-4.38,1-8.72,1.42-13.13.21-2.15.42-4.36.65-6.56.42-3.35,1-6.65,1.66-9.94s1.46-6.47,2.31-9.68,1.66-6.44,2.5-9.63,1.68-6.41,2.72-9.6c-.16,3.32-.49,6.64-.8,10s-.86,6.59-1.38,9.86-1.09,6.54-1.64,9.81-1.06,6.44-1.42,9.68c-.29,2.16-.52,4.34-.81,6.54C379.87,457.57,379.71,458.69,379.56,459.8Zm241.27-39.94c-9.39-1.69-18.76-3.63-28.08-5.66s-18.61-4.25-27.9-6.46l-27.74-6.88c-9.21-2.2-18.53-3.94-27.92-5.37a513.25,513.25,0,0,0-56.86-4.75c9.55-.52,19.07-.52,28.65-.33s19.1.9,28.62,2,19,2.75,28.37,4.78l27.82,6.67c18.53,4.54,37,8.92,55.64,12.94,9.31,2,18.63,3.85,28,5.51s18.79,3.16,28.23,4.51A451.34,451.34,0,0,1,620.83,419.86Z"/><path class="a" d="M854.94,480c-3.81-6.88-6.77-14-10.38-26.11a305.23,305.23,0,0,1-7.47-30.62,54.47,54.47,0,0,1,.52-23.26,321.5,321.5,0,0,1,44.48-102q-15.15,9-30.26,18a195.11,195.11,0,0,0-47,45.54,192.56,192.56,0,0,0-18.6,31.12,21.43,21.43,0,0,1-10.85,10.48,35.3,35.3,0,0,1-14,2.78,42.8,42.8,0,0,1-12.75-2c-2.49-.39-5.14-.78-7.89-1.19a2.58,2.58,0,0,1-2.18-2.39,22.76,22.76,0,0,0-2.28-8.05,15.62,15.62,0,0,0-5.37.68c-3.14,1-4.31,2.57-7.58,4.23a24.21,24.21,0,0,1-5.61,1.95c-11.88-1.87-25.17-4-39.68-6.41s-30.18-5.06-46.89-8c-12.77-2.26-24.08-4.28-34.18-6.15a16.46,16.46,0,0,1-10.72-7.08s0-.06,0-.08a.54.54,0,0,1-.11-.18,70.2,70.2,0,0,1-11.57-33.17c-.8-10.09-1.4-18.74-1.9-25.64v0c-.07-1-.15-1.92-.2-2.82-.11-1.35-.52-7.32-.44-13.32.05-5.19.46-10.38,1.81-12.53a6,6,0,0,0,1-4.15,3.67,3.67,0,0,0-4.41-3.12,80.65,80.65,0,0,0-27.49,7.92,62.61,62.61,0,0,0-7,4,83.09,83.09,0,0,0-15.58,13.31,156.12,156.12,0,0,0-13,16.72c-6.62,9.44-14.82,17.77-20.81,27.63a22,22,0,0,1-5.48,6.23,23.26,23.26,0,0,1-10,4.31c-16.38-1.19-32.21-1.74-47.34-1.74-74.14,0-131.62,12.56-155,19-7.68,2.11-24.71,7.17-58.75,17.26-23.59,7-35.69,10.22-52.32,16.74-12.8,5-23.52,10-31.72,14.09a6.59,6.59,0,0,0-2.41,9.73,61.46,61.46,0,0,0,8.43,9.63c14.17,13.18,30.47,16.07,36.8,17.1a75.77,75.77,0,0,0,16.79.89s.06,0,.06.07a48,48,0,0,0,11.73-.26c3.42-.54,5.5-1.27,8.95-1.09a22.43,22.43,0,0,1,8.15,2.11,95.38,95.38,0,0,1-12.93,4.85,91.47,91.47,0,0,1-9.6,2.28c.29.34.6.68.94,1,8.25,8.82,17.51,14.74,29.4,19.3,14.4,5.58,32.65,9.19,57.59,13.71,4.93.9,9.73,1.76,14.37,2.59,20.69,3.63,38.41,6.57,52.3,8.77.26,0,.52.08.75.13q15.84,5.22,30.73,8.83a58.84,58.84,0,0,1-5.56-7.74,18.92,18.92,0,0,1-2.1-4.9A8.56,8.56,0,0,1,370,506a6.58,6.58,0,0,1,.46-1.67,6.72,6.72,0,0,1,.83-1.45,10.41,10.41,0,0,1,4.86-3.27,25.09,25.09,0,0,1,5.11-1.17,62.24,62.24,0,0,1,10-.41,185.44,185.44,0,0,1,25.25,3.06c4.49.8,9,1.74,13.39,2.73q19,4.23,37.45,10.17c-12.71-2.34-25.35-4.91-38-7.14-4.7-.8-9.4-1.61-14.07-2.33l-5-.7a173.51,173.51,0,0,0-19.1-1.82,54.64,54.64,0,0,0-9.34.31,19.5,19.5,0,0,0-4.36.93,7.1,7.1,0,0,0-3.14,1.95c-1.4,1.35-.34,4.41,1.12,7.06a67.66,67.66,0,0,0,5.21,7.86c.68.91,1.38,1.82,2.08,2.75.47.57.91,1.17,1.4,1.74,2.78,3.56,5.68,7.09,8.62,10.59,4.07,5,8.25,10,12.27,15,16.43,18.09,24.63,27.1,34.93,35.14A142.3,142.3,0,0,0,454.06,595a157.78,157.78,0,0,0,35.69,15.47,188.78,188.78,0,0,0,36.36,6.95,7.11,7.11,0,0,0,1.53-2.54c2-6.2-6.18-13.91-9.71-17.42A173.13,173.13,0,0,1,488.22,555c-5.43-11.06-6.57-17.93-6.1-22.53,10-.39,18.84-1.17,26.44-2,55.1-6.41,102.93-25.2,126.54-35.76.39-.16.76-.34,1.12-.49a31.37,31.37,0,0,1,20.45-1.82l.13,0c6,1.53,19.7,6.64,31.3,8,1.43.15,5.24.54,6.1-1.09.33-.7,0-1.56-2.24-5.71-2.67-4.93-3.37-5.84-3.6-7.61-.24-1.61,0-3.11,1.11-5.89.18-.47.39-.93.57-1.37a39.72,39.72,0,0,1,19.81-20.14c2.2-1,4.49-2.11,6.85-3.19,24.47-11.35,45-20.38,59.48-26.58a5.83,5.83,0,0,1,6.75,1.56c5.86,6.8,13.49,15.6,22.42,25.77,19.77,22.5,27,30.13,39.37,35a61.59,61.59,0,0,0,17.36,4.05c1.14.13,2.2.18,3.16.23-.49-.62-1-1.27-1.53-2A107.7,107.7,0,0,1,854.94,480ZM171.37,435.38a5,5,0,1,1,4.88-4.62A4.77,4.77,0,0,1,171.37,435.38ZM327.73,446.1l0-11.73.08-5.84c0-2,.05-4,.23-6a89.34,89.34,0,0,1,1.84-11.76,18.3,18.3,0,0,0-.67-11.26,17.21,17.21,0,0,1,2.62,11.57c-.39,3.9-.65,7.76-.68,11.6,0,1.92.08,3.82.16,5.77l.18,5.89.18,11.83c-.05,3.4-.15,6.77-.34,10.15-.15,4.46-.38,8.9-.51,13.34-.16,3.89-.11,7.81-.16,11.73s-.15,7.83-.39,11.78c-.62-3.89-1.09-7.79-1.56-11.7s-.88-7.84-1-11.79-.18-7.89-.18-11.83c0-.39,0-.81,0-1.2C327.63,453.11,327.76,449.6,327.73,446.1Zm21.88,17.62-.26,12.79c-.08,8.52-.29,17.05-.91,25.59-1-8.48-1.69-17-2.18-25.53-.36-7.06-.44-14.1-.52-21.15,0-1.48,0-3,0-4.47l.07-12.79a39.81,39.81,0,0,1,2.52-13.06l.62-1.53c.21-.49.39-1,.55-1.43a26.72,26.72,0,0,0,.88-2.93,27.6,27.6,0,0,0,.86-6.07,31.79,31.79,0,0,0-2.13-12.33,27.38,27.38,0,0,1,4.08,12.28,30.14,30.14,0,0,1-.24,6.64,26.06,26.06,0,0,1-.7,3.27c-.16.55-.34,1.09-.49,1.61s-.31,1-.47,1.48a40.4,40.4,0,0,0-1.71,12.07l.13,12.77,0,4.36Zm16.87-2.67c-.16,2.77-.34,5.58-.57,8.35-.39,5.58-.89,11.14-1.46,16.69s-1.22,11.13-2.07,16.69c-.31-5.61-.39-11.21-.37-16.82s.08-11.16.29-16.76c.05-2.78.18-5.58.31-8.36.08-1.87.16-3.74.26-5.63,0-.91.08-1.82.13-2.75.31-5.58.65-11.14,1.12-16.72l0-.26.05-.15c.78-2.39,1.54-4.75,2.18-7.19s1.28-4.85,1.77-7.32a149.42,149.42,0,0,0,2.28-15,75.92,75.92,0,0,1,0,15.37c-.26,2.54-.63,5.11-1.12,7.63s-1,4.87-1.69,7.29c-.15,5.5-.39,11-.65,16.55,0,.91-.07,1.79-.12,2.68C366.71,457.26,366.58,459.15,366.48,461.05Zm13.08-1.25c-.52,3.3-1,6.59-1.74,9.86a145.88,145.88,0,0,1-5.27,19.26c.62-6.64,1.45-13.21,2.21-19.78.52-4.38,1-8.72,1.42-13.13.21-2.15.42-4.36.65-6.56.42-3.35,1-6.65,1.66-9.94s1.46-6.47,2.31-9.68,1.66-6.44,2.5-9.63,1.68-6.41,2.72-9.6c-.16,3.32-.49,6.64-.8,10s-.86,6.59-1.38,9.86-1.09,6.54-1.64,9.81-1.06,6.44-1.42,9.68c-.29,2.16-.52,4.34-.81,6.54C379.87,457.57,379.71,458.69,379.56,459.8Zm241.27-39.94c-9.39-1.69-18.76-3.63-28.08-5.66s-18.61-4.25-27.9-6.46l-27.74-6.88c-9.21-2.2-18.53-3.94-27.92-5.37a513.25,513.25,0,0,0-56.86-4.75c9.55-.52,19.07-.52,28.65-.33s19.1.9,28.62,2,19,2.75,28.37,4.78l27.82,6.67c18.53,4.54,37,8.92,55.64,12.94,9.31,2,18.63,3.85,28,5.51s18.79,3.16,28.23,4.51A451.34,451.34,0,0,1,620.83,419.86Z"/></svg>