<svg xmlns="http://www.w3.org/2000/svg" viewBox="0 0 1930.24 677.2"><path d="M645.37,451.13q-13.89,39.72-29.88,63.36t-32.3,36.09q-16.31,12.45-32,16.23a123.66,123.66,0,0,1-28.91,3.79q-22,0-36.82-6.15t-23.9-16.39a62.82,62.82,0,0,1-13.09-23.33,91.17,91.17,0,0,1-4-27q0-16.38,4.68-38.3t10.17-44.92q5.49-23,10.18-44.44t4.68-36.88q0-33.1-23.9-33.1a31.6,31.6,0,0,0-16.79,4.73,55.19,55.19,0,0,0-14.22,12.77,94.84,94.84,0,0,0-11.62,18.91,180,180,0,0,0-9,23.17L353.71,566.81H258.42L306.87,344a64.58,64.58,0,0,0,1.94-16.08,56.65,56.65,0,0,0-1-10.72,26.48,26.48,0,0,0-3.39-9,19.16,19.16,0,0,0-6.14-6.3,17.39,17.39,0,0,0-9.53-2.37,35.43,35.43,0,0,0-17.92,4.73A53.27,53.27,0,0,0,256,317.16a94.78,94.78,0,0,0-11.79,19.23,188.84,188.84,0,0,0-9,23.33l-44.9,207.09H95L165.08,244h95.28l-7.1,33.42a117.82,117.82,0,0,1,21.31-18.76,107.16,107.16,0,0,1,21-11,94.85,94.85,0,0,1,20-5.36A127.74,127.74,0,0,1,334,240.88a94.3,94.3,0,0,1,24.23,3,55.16,55.16,0,0,1,34.88,26.79q6.13,10.56,8.72,25.69,12-18,24.55-28.84A111.15,111.15,0,0,1,450.93,251a89.1,89.1,0,0,1,22.93-7.57,118.7,118.7,0,0,1,20-1.89,99.77,99.77,0,0,1,29.24,4.1,61.22,61.22,0,0,1,23.25,12.92,59,59,0,0,1,15.34,22.7q5.49,13.88,5.49,33.1a174.94,174.94,0,0,1-2.42,27.89q-2.41,15-5.81,30.58t-7.59,31.05q-4.2,15.45-7.59,29.63T538,459.8a111.1,111.1,0,0,0-2.42,21.27q0,12,5.65,19.55T562,508.18a40.87,40.87,0,0,0,18.73-4.09,47.09,47.09,0,0,0,14.53-11.67,90.47,90.47,0,0,0,11.79-18.12q5.34-10.56,10.5-23.17Z"/><path d="M993.23,451.13a285.77,285.77,0,0,1-20.35,45.39A192.25,192.25,0,0,1,950.11,529a127.74,127.74,0,0,1-24.06,21.43A120.08,120.08,0,0,1,902.15,563a106.73,106.73,0,0,1-22.29,6,133.77,133.77,0,0,1-19.38,1.58q-28.1,0-44.73-15T795.56,511.3a255,255,0,0,1-17.77,21.59,130.75,130.75,0,0,1-21.64,18.91,110.56,110.56,0,0,1-26.64,13.55,96.57,96.57,0,0,1-32.46,5.21,102.24,102.24,0,0,1-32.95-5.36A71.76,71.76,0,0,1,636,547.58q-12.27-12.29-19.7-32.15t-7.43-48.54a268.88,268.88,0,0,1,4.52-47.28,294,294,0,0,1,13.89-50.44,282.47,282.47,0,0,1,23.42-48.38,195,195,0,0,1,32.94-41,150.93,150.93,0,0,1,42.8-28.37q23.89-10.56,52.65-10.56,28.1,0,40.86,9.46t12.75,23.32v4.73L839.81,244h95.28L887.61,463.42A63.88,63.88,0,0,0,885.35,474a83.59,83.59,0,0,0-.65,10.25q0,27.74,27.14,27.74a34.45,34.45,0,0,0,17.92-4.89,57.93,57.93,0,0,0,15-13.08,88.09,88.09,0,0,0,12-19.39,164.61,164.61,0,0,0,8.72-23.48ZM826.57,305.5a25.57,25.57,0,0,0-1.3-7.09,25.13,25.13,0,0,0-4.36-8.2,24.61,24.61,0,0,0-8.23-6.62q-5.17-2.67-13.24-2.68-13.91,0-26.33,8.83a96.74,96.74,0,0,0-22.77,23.48,186.66,186.66,0,0,0-18.41,33.26,313.55,313.55,0,0,0-13.73,38.3,309.67,309.67,0,0,0-8.56,38.77,229.08,229.08,0,0,0-2.9,34.2q0,18.6,3.55,28.68t8.56,15a20,20,0,0,0,10.82,5.83,65,65,0,0,0,10.33.94,38.76,38.76,0,0,0,15.67-3.62,56.79,56.79,0,0,0,15.83-10.72A78.63,78.63,0,0,0,785.38,476a86.66,86.66,0,0,0,9.53-24.9Z"/><path d="M1335.92,451.13Q1322,491.8,1305.4,515.59t-33.1,35.94q-16.48,12.13-31.82,15.6t-26.32,3.47q-41.36,0-62.34-19.07t-21-54.38a167.08,167.08,0,0,1,3.88-33.73l5.49-25.21a73.21,73.21,0,0,0,2.1-12.3c.32-4,.49-7.77.49-11.35q0-14.18-5.17-22.69t-18.74-8.51q-11.3,0-23.09,6.46a185.66,185.66,0,0,0-25.68,17.49l-34.56,159.5H940.26l95.93-439.09,97.86-12.92-49.41,227.27,127.58-98h65.57l-132.43,89.84a87.35,87.35,0,0,1,22-2.84q18.42,0,32.14,6a63.27,63.27,0,0,1,22.77,16.39,67.51,67.51,0,0,1,13.41,24.12,95.72,95.72,0,0,1,4.36,29.15q0,6-.49,12.14a72.93,72.93,0,0,1-2.1,12.45l-7.45,32.1a78.83,78.83,0,0,0-2.42,10.4,64.75,64.75,0,0,0-.81,10.41,27.8,27.8,0,0,0,5.17,16.86q5.16,7.1,20.67,7.09a40.91,40.91,0,0,0,18.74-4.09,47.09,47.09,0,0,0,14.53-11.67,90.47,90.47,0,0,0,11.79-18.12q5.32-10.56,10.5-23.17Z"/><path d="M1683.79,451.13a285.77,285.77,0,0,1-20.35,45.39A192.25,192.25,0,0,1,1640.67,529a126.8,126.8,0,0,1-24.07,21.43A119.29,119.29,0,0,1,1592.7,563a106.81,106.81,0,0,1-22.28,6,134.45,134.45,0,0,1-19.42,1.6q-28.11,0-44.74-15t-20.18-44.28a255,255,0,0,1-17.77,21.59,131.15,131.15,0,0,1-21.64,18.91A110.62,110.62,0,0,1,1420,565.37a96.57,96.57,0,0,1-32.46,5.21,102.18,102.18,0,0,1-32.94-5.36,71.78,71.78,0,0,1-28.1-17.66q-12.29-12.28-19.7-32.15t-7.43-48.54a267.93,267.93,0,0,1,4.52-47.28,294,294,0,0,1,13.89-50.44,283.17,283.17,0,0,1,23.41-48.38,194.67,194.67,0,0,1,33-41A150.93,150.93,0,0,1,1417,251.4q23.9-10.56,52.64-10.56,28.11,0,40.86,9.46t12.76,23.32v4.73l7.11-34.36h95.28l-47.48,219.39a63.44,63.44,0,0,0-2.26,10.56,81.66,81.66,0,0,0-.65,10.25q0,27.74,27.13,27.74a34.51,34.51,0,0,0,17.93-4.89,57.93,57.93,0,0,0,15-13.08,88.7,88.7,0,0,0,12-19.39,165.06,165.06,0,0,0,8.72-23.48ZM1517.12,305.5a26.84,26.84,0,0,0-5.65-15.29,24.74,24.74,0,0,0-8.24-6.62q-5.16-2.67-13.24-2.68-13.89,0-26.32,8.83a96.74,96.74,0,0,0-22.77,23.48,185.41,185.41,0,0,0-18.41,33.26,317.33,317.33,0,0,0-22.29,77.07,229.09,229.09,0,0,0-2.91,34.2q0,18.6,3.56,28.68t8.56,15a20,20,0,0,0,10.82,5.83,65,65,0,0,0,10.33.94,38.76,38.76,0,0,0,15.67-3.62,56.75,56.75,0,0,0,15.82-10.72A78.67,78.67,0,0,0,1475.94,476a86.66,86.66,0,0,0,9.53-24.9Z"/><path d="M1700.91,244h95.28l-47.48,219.39a53.53,53.53,0,0,0-2.1,10.56c-.32,3.47-.49,6.89-.49,10.25q0,13.55,6.46,18.75t20.35,5.2q9.38,0,13.57-1.26a64.69,64.69,0,0,0,7.75-2.83q-1.29,17.32-7.91,29.78a65.7,65.7,0,0,1-39.25,32.79,87.07,87.07,0,0,1-53.29-.48,58,58,0,0,1-22.45-13.87,66.16,66.16,0,0,1-15-23.95q-5.49-14.51-5.49-35a161.2,161.2,0,0,1,1.29-19.39q1.3-10.56,3.88-22.85Zm118.53-85.73a48,48,0,0,1-4.2,20,49.75,49.75,0,0,1-11.46,16.08,55.49,55.49,0,0,1-16.8,10.72,54.11,54.11,0,0,1-57.65-10.72,48.75,48.75,0,0,1-11.14-16.08,51.58,51.58,0,0,1,0-40A52.52,52.52,0,0,1,1746,110.7a53.36,53.36,0,0,1,41,0,54.88,54.88,0,0,1,16.8,11.19,53.4,53.4,0,0,1,11.46,16.39,48.1,48.1,0,0,1,4.18,20Z"/></svg>