<svg xmlns="http://www.w3.org/2000/svg" viewBox="0 0 416.48 446"><defs><style>.a{fill:#333;}</style></defs><path class="a" d="M319.67,305.29a158.32,158.32,0,1,0-29.14,29.14l60.52,61,29.64-29.63ZM195.6,343.35A133.83,133.83,0,1,1,329.42,209.53,133.82,133.82,0,0,1,195.6,343.35Z"/><path class="a" d="M320.33,305.25c53-69.44,39.84-169.09-29.5-222.34S121.49,42.69,68.15,112.14a158.81,158.81,0,0,0,222.33,223l60.57,61.07,30.35-30.35ZM98,334c-69-53-82-152.27-29-221.28s152.27-82,221.29-29,82,152.26,29,221.28l-.27.35,61,60.48-28.93,28.92-60.48-61-.34.27A158,158,0,0,1,98,334Z"/></svg>