<svg xmlns="http://www.w3.org/2000/svg" viewBox="0 0 1000 1000"><defs><style>.a{fill:#81d0d8;}</style></defs><path class="a" d="M455.49,295.38c6.94.45,10.54-1.47,12.57-3.3a9.55,9.55,0,0,0,2.58-3.88,78.54,78.54,0,0,1-11.1,1c-17.39,0-19.78-11.18-20.08-14.51-1.83,2.64-3.55,5.35-5.13,8.13a88.9,88.9,0,0,0-7.6,16.86A43.79,43.79,0,0,0,424.17,313c0,9.46,2.75,11.18,9.32,11.29a95.67,95.67,0,0,0,23.7-5.47,121,121,0,0,0,18.66-8.76c-1.44-.89-3-1.83-4.6-2.86-4-2.55-9.57-6.21-16-11.07A.42.42,0,0,1,455.49,295.38Z"/><path class="a" d="M720.71,498.77c-4.94,2.5-9.43,3.75-13.62,3.75a23.49,23.49,0,0,1-10.9-2.58q-16.77,7.23-33.84,14.37-51.51,21.56-101.42,40.52A10.91,10.91,0,0,0,552.08,539a38.52,38.52,0,0,1-11-2.35,207.55,207.55,0,0,1-38.28-20.2l-.22-.14a123.51,123.51,0,0,1-16.42-13.17c-4.55.33-8.85.5-12.87.5-10.71,0-43.22-.06-43.19-22.81a37.06,37.06,0,0,1,1.27-9.37,78.14,78.14,0,0,0-8.07-.2c1.83-.55,5-1.58,9.07-3.16.14-.47.31-.94.47-1.44,3.14-8.77,8.55-12.46,12.57-14,2.77-1.08,7.18-2.11,19.69-2.27a112.94,112.94,0,0,0,19.14-17.59c-18.89-8.6-28.43-19.61-28.4-32.73a27.62,27.62,0,0,1,3.74-13.93,76,76,0,0,1,7.1-10.18c3.75-4.74,10.13-9.63,20-15.23a128,128,0,0,1,18.53-8.49c-1.35-3.8-3.07-8.49-5-13.34a114.81,114.81,0,0,1-16.73,11.73c-12.26,7-23.58,11.52-33.67,13.46A153.64,153.64,0,0,1,421,366.81a54.25,54.25,0,0,1-24.8-5.68,43.61,43.61,0,0,1-18-17.09,49.28,49.28,0,0,1-6.33-25.13,75.41,75.41,0,0,1,4.58-25.13,124.09,124.09,0,0,1,11.65-23.92,181.33,181.33,0,0,1,15.31-21.11c.92-1.08,1.83-2.13,2.81-3.19-.7-.11-1.45-.19-2.2-.3-24.6-3.5-24.3-10.68-40.44-9-10.9,1.11-16.95,5-34.62,6.38a137.92,137.92,0,0,1-17.45.31,10.45,10.45,0,0,0-1.75-8.74l-.5-.58a13.7,13.7,0,0,1-3.85-8.77,38.33,38.33,0,0,0-7.85-22.63c-11.65-15-29.88-14.62-32.87-14.57-10.07.23-22.86,4.33-23.86,9.91-.22,1.3-.08,4-2,6.1a7.76,7.76,0,0,1-3.5,2,7.26,7.26,0,0,0-5.82-.3c-4,1.74-4.66,7.74-4.08,11.34a13.76,13.76,0,0,0,3.49,7,29.36,29.36,0,0,0-1.44,7.85c-.14,2.69-.42,9,3.5,14.84a20.48,20.48,0,0,0,4.63,4.94,45.07,45.07,0,0,1-2,11.35c-.66,2-1.38,3.8-.58,5.52,1,2,3.5,2.8,4.94,3.19a13,13,0,0,0,6.88,0c.83,2.38,2.08,5.82,3.88,9.9,2.64,5.91,4,8.88,6.1,9.9,2.94,1.39,5.36-.19,13.29-2.05a98.61,98.61,0,0,1,11.26-1.94,74.27,74.27,0,0,1-8.54,16.67c-4.47,6.55-6.77,7.63-8.9,12.82-2.5,6-1.72,10-1.95,18.22a120.46,120.46,0,0,1-3.1,23.66,166.56,166.56,0,0,1-15.12,27.91c-6.35,9.4-9.6,12-15.54,21.33-5.13,8.07-6.35,11.85-13.17,26.38-17.42,37.17-24.64,45.11-27.55,48.1a68.64,68.64,0,0,1-20.36,14.73,66.69,66.69,0,0,1-6.43,2.58,6.35,6.35,0,0,0-3.44,2.86c-.48.83-1,1.66-1.56,2.52a48.59,48.59,0,0,1-5.07,6.36,14.53,14.53,0,0,0-3.78,7c-.74,3.44-1.27,5.94-1.63,7.58-.86,4-1.45,6.68,0,8.12a4.41,4.41,0,0,0,3.49,1c-.44,3,1,5.39,2.91,5.83a4,4,0,0,0,3.11-.78,3.37,3.37,0,0,0,.58,2.53c1.45,1.69,5.08.66,7-.39a9.78,9.78,0,0,0,4.46-5.63,5.78,5.78,0,0,0,3.69,2.91,5.55,5.55,0,0,0,3.89-.58c2.8-9.71,7.29-15.26,11.23-18.61,4.16-3.56,6.41-3.53,10.87-7.38,6.52-5.61,8.49-11.46,11.63-17.45,2.33-4.44,2.88-4.3,19.39-23.66,22.94-26.88,27-33.1,29.49-37.23a142.76,142.76,0,0,0,10.45-20.94,122.21,122.21,0,0,0,38.81-72.9c7.19,2.47,13,4.46,17.06,5.79,2.52.86,4.24,1.45,20.94,7,4.61,1.56,6.94,2.31,7,2.33,10.26,4,14.37,9,24.44,14.73,5.1,2.92,10.15,5.69,15.14,8.35-15.59,12-28.21,21.17-36.28,27,0,0-42.28,30.34-55.26,51.57a29.65,29.65,0,0,0-4.66,13.95,26.74,26.74,0,0,0,.58,7.18,272.53,272.53,0,0,1,17.26,21.14C320.9,514,321.26,517.36,330.94,530c10.43,13.62,12.35,12.76,20.75,25.19,7.85,11.57,11,19.45,12.62,27.35a25,25,0,0,1-6.07,21.72,101.94,101.94,0,0,1-15.07,14c-4.24,3.1-7.65,7.35-12.23,9.9-2.08,1.16-5.41,2.8-6.18,6a7,7,0,0,0,.38,4.24c.81,2.17-87,33-94.62,35.81-53.92,19.89-113.28,34.24-171.07,32.65-2.91-.08-9.46-.27-10.26,2.14-.53,1.58,1.5,3.69,3.25,5.19,18.47,15.92,49.23,8.93,71.79,6.29,48.62-5.71,84.52-17,102.05-23.16,148.35-52,297.4-100.44,442.5-161.22q24.72-10.36,49-21.78a48.47,48.47,0,0,1,1.69-11.48C719.85,501.49,720.3,500.13,720.71,498.77Zm-200.5,57.17a14.43,14.43,0,0,0-2.72,5.5,12.31,12.31,0,0,0-.33,1.94,6.18,6.18,0,0,1-3.5,5q-22.59,10.62-47.35,21-29,12.11-56.14,21.8A42.14,42.14,0,0,0,407.84,601,42.87,42.87,0,0,0,400,587.62q-11.21-24.72-22.39-49.46a99.39,99.39,0,0,0-2.05-14.53,94.69,94.69,0,0,0-6.41-19.2q6.28-4.37,12.51-8.74a53.32,53.32,0,0,0,17.75,5.55,54.41,54.41,0,0,0,6.86.42,29.26,29.26,0,0,1,16.33,5,108.14,108.14,0,0,0,12,6.83c9,4.35,13.4,4.85,26.47,9.29,7.35,2.52,19.33,6.6,31.43,12.81A155.44,155.44,0,0,1,520,553.67,1.63,1.63,0,0,1,520.21,555.94Z"/><path class="a" d="M211.38,754.75c-.33,3-.66,6.08-1,9.24s-.67,6.3-1,9.38-.59,5.93-.86,8.57-.53,5-.72,7-.37,3.52-.48,4.46L203,750l-5.29,2c-.28,2.47-.59,5.21-.89,8.21s-.67,6.08-1,9.24-.66,6.29-1,9.37-.58,5.94-.86,8.57-.53,4.94-.72,7-.36,3.52-.47,4.49c-.08-.89-.22-2.27-.42-4.16s-.39-4-.61-6.46-.47-5.11-.75-8-.52-5.77-.83-8.68-.58-5.77-.89-8.55-.61-5.27-.89-7.52l-5.49,2.06,6.41,54.84,6.46-2.41c.28-2.14.59-4.61.86-7.38s.64-5.66.95-8.66.64-6,.91-9,.53-5.71.78-8.26.42-4.77.58-6.66.25-3.27.31-4.11c0,.81.14,2.11.3,3.86s.36,3.86.56,6.24.47,5,.75,7.71.55,5.55.83,8.33.55,5.43.83,8,.53,4.8.75,6.77l6.41-2.41,7.24-59.92-5.58,2.08C212,749,211.69,751.76,211.38,754.75Z"/><path class="a" d="M237.32,789.51V759.19q0-8.49-7.57-5.66A10.86,10.86,0,0,0,224,757.8a12.68,12.68,0,0,0-1.78,7v9.1l4.24-1.58v-9a6.57,6.57,0,0,1,.61-3,4.48,4.48,0,0,1,2.53-1.91c1.19-.45,2-.45,2.47.05a3.76,3.76,0,0,1,.64,2.53v9.4c-1.53,1.22-2.94,2.41-4.3,3.58a24.46,24.46,0,0,0-3.53,3.77,17.86,17.86,0,0,0-2.36,4.47,16.59,16.59,0,0,0-.85,5.57v6.36c0,2.38.52,3.93,1.63,4.6s2.61.61,4.55-.11a9,9,0,0,0,5.13-5.13,7,7,0,0,0,.31,2.47l4.38-1.64a8.53,8.53,0,0,1-.3-2C237.35,791.48,237.32,790.54,237.32,789.51Zm-4.6-.11a5.51,5.51,0,0,1-1.2,2.55,4.78,4.78,0,0,1-1.91,1.33c-2.19.84-3.27.06-3.27-2.3v-4.6a27.14,27.14,0,0,1,.19-3.53,9.75,9.75,0,0,1,.89-3,11.16,11.16,0,0,1,1.94-2.78,27.13,27.13,0,0,1,3.36-2.94Z"/><polygon class="a" points="245.39 791.42 250.19 789.65 250.19 746.6 245.39 748.37 245.39 791.42"/><polygon class="a" points="245.39 742.88 250.19 741.11 250.19 732.39 245.39 734.2 245.39 742.88"/><polygon class="a" points="275.77 737.03 270.69 738.91 262.92 760.41 262.92 727.65 258.26 729.4 258.26 786.63 262.92 784.88 262.92 762.77 270.69 781.97 275.99 780 267.36 759.22 275.77 737.03"/><polygon class="a" points="282.12 777.72 286.92 775.92 286.92 732.87 282.12 734.67 282.12 777.72"/><polygon class="a" points="282.12 729.18 286.92 727.37 286.92 718.69 282.12 720.47 282.12 729.18"/><polygon class="a" points="312.5 723.32 307.42 725.21 299.62 746.68 299.62 713.92 294.96 715.67 294.96 772.92 299.62 771.17 299.62 749.07 307.42 768.26 312.72 766.29 304.09 745.52 312.5 723.32"/><polygon class="a" points="318.82 715.45 323.62 713.67 323.62 704.96 318.82 706.76 318.82 715.45"/><polygon class="a" points="318.82 764.02 323.62 762.22 323.62 719.16 318.82 720.94 318.82 764.02"/><path class="a" d="M358,719.72c2.33-1.5,3.5-4.05,3.5-7.63V700.63c0-3.49-.67-5.74-1.94-6.79s-3.5-1-6.55.14l-9.13,3.41v57.25l9.13-3.41a14.46,14.46,0,0,0,6.88-4.88,13.56,13.56,0,0,0,2.3-8.21V724.49c0-2.08-.41-3.44-1.25-4.08A3.7,3.7,0,0,0,358,719.72Zm-8.82-19,3.83-1.44c1.3-.47,2.22-.5,2.75,0s.8,1.47.8,3.11v12a5.94,5.94,0,0,1-.8,3.25,5.44,5.44,0,0,1-2.69,1.88L349.22,721Zm7.58,39.39c0,3-1.25,4.91-3.75,5.86l-3.83,1.41V725.68l3.89-1.47c1.49-.55,2.46-.55,3,0a5.08,5.08,0,0,1,.73,3.25Z"/><path class="a" d="M376.35,698.77a10.87,10.87,0,0,0-5.52,4.3,13.16,13.16,0,0,0-1.91,7.33v26.85q0,8.7,7.43,5.91,7.69-2.91,7.71-11.6V722.1l-4.52,1.7v9.45c0,2.56-1.05,4.25-3.19,5s-3-.14-3-2.69v-13l10.7-4V704.74C384.06,698.83,381.48,696.86,376.35,698.77Zm3.19,18-6.18,2.3V708.73c0-2.55,1-4.19,3-4.93s3.19.08,3.19,2.6Z"/><path class="a" d="M406.26,726.43V696.08q0-8.49-7.58-5.66a11.06,11.06,0,0,0-5.74,4.28,12.84,12.84,0,0,0-1.78,7v9.1l4.25-1.58v-9a6.57,6.57,0,0,1,.61-3,4.42,4.42,0,0,1,2.52-1.91c1.2-.44,2-.42,2.47.05a3.81,3.81,0,0,1,.64,2.56v9.37c-1.53,1.22-2.94,2.42-4.3,3.61a23.55,23.55,0,0,0-3.52,3.77,17.05,17.05,0,0,0-2.36,4.47,16.58,16.58,0,0,0-.86,5.57V731c0,2.41.53,3.94,1.64,4.6s2.6.64,4.55-.11a9.1,9.1,0,0,0,5.15-5.1,7.59,7.59,0,0,0,.28,2.47l4.36-1.64a12.35,12.35,0,0,1-.28-2C406.28,728.37,406.26,727.43,406.26,726.43Zm-4.61-.11a5.36,5.36,0,0,1-1.19,2.55,4.81,4.81,0,0,1-1.92,1.33c-2.19.81-3.27,0-3.27-2.33V723.3a29,29,0,0,1,.19-3.53,9.78,9.78,0,0,1,.89-3,10.88,10.88,0,0,1,1.94-2.78,23.54,23.54,0,0,1,3.36-2.94Z"/><path class="a" d="M424.48,716.47c0,2.55-1.08,4.25-3.19,5s-3.22-.08-3.22-2.69V692a6.06,6.06,0,0,1,.81-3.16,4.58,4.58,0,0,1,2.41-1.94c2.11-.8,3.19.08,3.19,2.63V699l4.3-1.64V688c0-2.66-.58-4.58-1.78-5.74s-3.07-1.28-5.71-.31a11.34,11.34,0,0,0-5.94,4.69,13.77,13.77,0,0,0-1.94,7.16v26.71c0,2.64.67,4.52,1.94,5.63s3.28,1.17,5.94.2a11.1,11.1,0,0,0,5.8-4.5,13.25,13.25,0,0,0,1.83-7v-9.6L424.48,707Z"/><path class="a" d="M446.87,672.45a9.32,9.32,0,0,0-3.28,2.08,13.37,13.37,0,0,0-2.41,3.16V661.08l-4.8,1.8v57.23l4.8-1.81V681.94a6.5,6.5,0,0,1,3.69-4c1-.36,1.72-.38,2.13,0a3.4,3.4,0,0,1,.64,2.45v35.53l4.8-1.78V678.3c0-2.8-.44-4.63-1.33-5.57S448.81,671.7,446.87,672.45Z"/><path class="a" d="M459.82,709.82l2.27-.87v2.17a1.65,1.65,0,0,1-1.16,1.69l-.42.17v2.3l.56-.22A5.55,5.55,0,0,0,464,713a5.73,5.73,0,0,0,.86-3.19v-9l-5,1.86Z"/><path class="a" d="M493.19,641c-6,2.25-9,6.6-9,13.09v39c0,6.49,3,8.62,9,6.4s9-6.63,9-13.12v-39Q502.23,637.64,493.19,641Zm3.75,47.35c0,3-1.25,5-3.75,5.94s-3.69-.14-3.69-3.16v-39c0-2.94,1.22-4.85,3.69-5.77s3.75.06,3.75,3Z"/><path class="a" d="M524.43,682.3V652c0-5.63-2.53-7.52-7.6-5.63a11,11,0,0,0-5.72,4.24,12.87,12.87,0,0,0-1.77,7.05v9.1l4.24-1.58v-9a6.53,6.53,0,0,1,.61-3,4.39,4.39,0,0,1,2.52-1.91c1.2-.45,2-.42,2.47.05a4,4,0,0,1,.64,2.55v9.38c-1.52,1.22-3,2.41-4.3,3.61a22.26,22.26,0,0,0-3.52,3.77,17.15,17.15,0,0,0-2.36,4.46,16.68,16.68,0,0,0-.86,5.58v6.32c0,2.42.53,3.94,1.64,4.61s2.6.64,4.55-.08a9.15,9.15,0,0,0,5.13-5.14,8.16,8.16,0,0,0,.28,2.47l4.38-1.63a9.8,9.8,0,0,1-.28-2C524.45,684.24,524.43,683.3,524.43,682.3Zm-4.61-.11a5.25,5.25,0,0,1-1.22,2.55,4.46,4.46,0,0,1-1.89,1.33c-2.19.83-3.27.06-3.27-2.33v-4.58a28.86,28.86,0,0,1,.19-3.52,9.93,9.93,0,0,1,.89-3,10.14,10.14,0,0,1,1.94-2.77,24.18,24.18,0,0,1,3.36-2.94Z"/><path class="a" d="M542.85,636.58a9.85,9.85,0,0,0-3.28,2.11,13.37,13.37,0,0,0-2.41,3.16V625.24l-4.8,1.77v57.26l4.8-1.81V646.1a6.49,6.49,0,0,1,1.58-2.61,5.86,5.86,0,0,1,2.08-1.42q1.54-.57,2.16,0a3.4,3.4,0,0,1,.64,2.45v35.53l4.8-1.78V642.44c0-2.78-.44-4.64-1.33-5.55S544.79,635.86,542.85,636.58Z"/><path class="a" d="M567.12,664.46a6.64,6.64,0,0,1-1.56,2.58,6.11,6.11,0,0,1-2.13,1.36c-.92.36-1.58.36-2,0a3.36,3.36,0,0,1-.64-2.47V630.59l-4.8,1.8v36.09c0,5,1.86,6.74,5.58,5.36a10.25,10.25,0,0,0,3.58-2.28,12,12,0,0,0,2.52-3.63c0,.55,0,1.11.06,1.61s0,1,.08,1.47l4.11-1.53V626.43l-4.8,1.8Z"/><path class="a" d="M579.52,665.13l2.27-.86v2.16a1.67,1.67,0,0,1-1.16,1.69l-.42.14v2.3l.55-.19a5.58,5.58,0,0,0,2.89-2.14,5.76,5.76,0,0,0,.86-3.16v-9l-5,1.89Z"/><polygon class="a" points="616.99 620.94 609.61 623.68 609.61 598.16 604.34 600.13 604.34 657.39 609.61 655.42 609.61 628.9 616.99 626.15 616.99 652.64 622.26 650.67 622.26 593.45 616.99 595.42 616.99 620.94"/><path class="a" d="M644.87,637.3V607q0-8.47-7.57-5.65a11.05,11.05,0,0,0-5.74,4.27,12.93,12.93,0,0,0-1.78,7v9.1l4.25-1.58v-9a6.59,6.59,0,0,1,.63-3,4.4,4.4,0,0,1,2.5-1.91c1.19-.44,2-.44,2.47.06a3.73,3.73,0,0,1,.66,2.52v9.38Q638,620,636,621.74a25.21,25.21,0,0,0-3.5,3.77,16,16,0,0,0-3.24,10v6.32c0,2.41.55,4,1.63,4.63s2.61.61,4.55-.11a9.14,9.14,0,0,0,5.16-5.13,7.43,7.43,0,0,0,.28,2.47l4.38-1.64a7.71,7.71,0,0,1-.28-2C644.9,639.27,644.87,638.33,644.87,637.3Zm-4.58-.11a5.39,5.39,0,0,1-1.22,2.55,4.81,4.81,0,0,1-1.91,1.34c-2.19.83-3.27,0-3.27-2.31v-4.6a26.65,26.65,0,0,1,.22-3.52,9.69,9.69,0,0,1,.86-3,11.16,11.16,0,0,1,1.94-2.78,29.17,29.17,0,0,1,3.38-2.94Z"/><polygon class="a" points="669.84 623.65 666.32 591.17 661.65 592.92 657.69 628.21 654.97 595.42 650.45 597.11 654.61 638.61 660.32 636.47 663.93 602.99 667.15 633.92 672.92 631.78 677.63 586.96 673.11 588.65 669.84 623.65"/><path class="a" d="M697.94,617.47V587.15q0-8.49-7.58-5.66a11.25,11.25,0,0,0-5.74,4.27,13.1,13.1,0,0,0-1.77,7v9.13l4.24-1.58v-9.05a6.43,6.43,0,0,1,.64-3,4.4,4.4,0,0,1,2.5-1.91c1.19-.45,2-.42,2.46,0a3.77,3.77,0,0,1,.67,2.55v9.38c-1.53,1.22-3,2.41-4.33,3.61a23.34,23.34,0,0,0-3.49,3.77,16.77,16.77,0,0,0-2.39,4.46,17.48,17.48,0,0,0-.86,5.58v6.32c0,2.42.56,3.94,1.64,4.61s2.61.64,4.55-.11a9.13,9.13,0,0,0,5.16-5.11,7.62,7.62,0,0,0,.27,2.47l4.39-1.63a10.14,10.14,0,0,1-.28-2C698,619.44,697.94,618.5,697.94,617.47Zm-4.58-.08a5.68,5.68,0,0,1-1.22,2.55,5.1,5.1,0,0,1-1.91,1.33c-2.2.8-3.28,0-3.28-2.33v-4.58a28.48,28.48,0,0,1,.22-3.52,9.89,9.89,0,0,1,.86-3,10.89,10.89,0,0,1,2-2.77,22.6,22.6,0,0,1,3.38-2.94Z"/><polygon class="a" points="706.01 619.41 710.81 617.61 710.81 574.56 706.01 576.36 706.01 619.41"/><polygon class="a" points="706.01 570.87 710.81 569.06 710.81 560.38 706.01 562.16 706.01 570.87"/><polygon class="a" points="719.02 614.56 723.82 612.75 723.82 569.7 719.02 571.5 719.02 614.56"/><polygon class="a" points="719.02 566.01 723.82 564.21 723.82 555.53 719.02 557.3 719.02 566.01"/><path class="a" d="M731.47,608.37l2.28-.86v2.16a1.68,1.68,0,0,1-1.17,1.7l-.41.16v2.28l.55-.2a5.66,5.66,0,0,0,2.89-2.13,5.78,5.78,0,0,0,.86-3.16v-9l-5,1.88Z"/><path class="a" d="M768.76,586.87c0,3-1.25,5-3.69,5.88s-3.69-.11-3.69-3.13V541.49l-5.3,2v48.13c0,6.49,3,8.63,9,6.38s9-6.58,9-13.07V536.78l-5.27,2Z"/><path class="a" d="M798.3,562.38a5.09,5.09,0,0,0-.75-1.55,8.45,8.45,0,0,0-1.19-1.31,15.24,15.24,0,0,0-1.92-1.44c-.72-.47-1.47-1-2.3-1.44s-1.61-1-2.38-1.5a11.58,11.58,0,0,1-2.08-1.69,3.4,3.4,0,0,1-1-1.45,8.8,8.8,0,0,1-.25-2.55V541a5.35,5.35,0,0,1,3.69-5.46c1.44-.56,2.41-.47,2.88.25a5.46,5.46,0,0,1,.75,3.19v9.74l4.94-1.84V536.41q0-4.81-1.91-6.43c-1.28-1.06-3.47-1-6.58.14q-9.1,3.4-9.12,12.84v8.57c0,1,0,1.78.05,2.44a6.88,6.88,0,0,0,.22,1.78,4.92,4.92,0,0,0,.61,1.33,7.34,7.34,0,0,0,1,1.19,25.29,25.29,0,0,0,4.11,2.86,28.87,28.87,0,0,1,4.8,3.36,5.42,5.42,0,0,1,.83.83,3,3,0,0,1,.55.91,4.81,4.81,0,0,1,.28,1.36,20.88,20.88,0,0,1,.08,2.14v8.15a6.72,6.72,0,0,1-.83,3.44,5.08,5.08,0,0,1-2.8,2.14c-1.47.56-2.5.5-3-.22a5.61,5.61,0,0,1-.81-3.36v-11.4l-5.07,1.89v12.18c0,3.1.72,5.18,2.13,6.26s3.69,1,6.85-.16a13.32,13.32,0,0,0,6.83-5,14.39,14.39,0,0,0,2-7.79V567.7a26.08,26.08,0,0,0-.13-3.16A11.49,11.49,0,0,0,798.3,562.38Z"/><path class="a" d="M387.06,297.52a64.07,64.07,0,0,0-3.94,21.39,38.43,38.43,0,0,0,4.8,19.5,32.19,32.19,0,0,0,13.45,12.73,42.67,42.67,0,0,0,19.7,4.47,142.84,142.84,0,0,0,26.63-2.55q13.4-2.58,30.23-12.18a107.47,107.47,0,0,0,17.92-13,160.65,160.65,0,0,0,15.4-15.61,41.31,41.31,0,0,0,5.41-7.91l.58,6.71c1.92-1.91,4.69-4.46,8.32-7.68s6.66-6.05,9.05-8.54a56.27,56.27,0,0,0,6.54-8.44l20.72-4.55.39.39-6,7.16a99.55,99.55,0,0,0-6.4,8.51,40.68,40.68,0,0,0-4.3,8.6,27.31,27.31,0,0,0-1.64,9.32,16.66,16.66,0,0,0,3.74,10.71,12,12,0,0,0,9.8,4.66q7.44,0,20.41-10.57c3.83-3.13,7.38-6.18,10.6-9.15a36.28,36.28,0,0,0-.83,7.24q0,12.74,12.73,12.73a30.82,30.82,0,0,0,7-.8q3-.54,10.74-5.36a84.48,84.48,0,0,0,10.79-7.57l18.31-16.28.44.41c-4.94,10-7.41,17.48-7.43,22.25a11.62,11.62,0,0,0,2.46,7.6c1.61,2,4,3,7.11,3s7.51-1.83,13.51-5.52a160.79,160.79,0,0,0,18-13,113,113,0,0,0,13.43-12.51l-1.53-7.33A94.61,94.61,0,0,0,684.9,303a94.83,94.83,0,0,1-9.46,7.52,12.86,12.86,0,0,1-7.16,2.49,6.83,6.83,0,0,1-3.41-.77,5.11,5.11,0,0,1-2.77-5,16,16,0,0,1,1.94-7.46q1.92-3.66,7-12.23t5-10.51a12,12,0,0,0-.89-5.27,6.71,6.71,0,0,0-3.69-2.92c.67-.14,1.42-.36,2.31-.58a4.56,4.56,0,0,0,2.24-1.5,6.85,6.85,0,0,0,1.25-3.69,6.72,6.72,0,0,0-3.16-5.74c-2.14-1.5-5.38-2.22-9.77-2.25a71.42,71.42,0,0,0-23.21,5.39A114.22,114.22,0,0,0,618,273a99.81,99.81,0,0,0-18.42,16.39,64.36,64.36,0,0,0-5,6.58c-1.08.94-2.47,2.11-4.13,3.49a104,104,0,0,1-11.6,8.71c-3.22,2-6.1,3-8.65,3a6.53,6.53,0,0,1-4.28-1.61,4.93,4.93,0,0,1-1.88-4q0-9.27,15.5-22.66a47,47,0,0,0,6.47-6.24,10.64,10.64,0,0,0,1.91-6.69,21.47,21.47,0,0,0-4.74-10.54c-.67-.66-2-1-4-1a47.21,47.21,0,0,0-5.91.45q-3.53.45-10,1.41c-4.27.64-8.18,1.19-11.76,1.64a14.32,14.32,0,0,0,1.38-5.52,3.32,3.32,0,0,0-1-2.39,3.44,3.44,0,0,0-2.53-1c-1.77,0-4.77,1.49-9,4.46a51,51,0,0,0-11.2,11.07c-3.28,4.38-4.94,8.77-4.94,13.09,0,2.14.39,3.66,1.14,4.55s2.16,1.45,4.19,1.64a78.19,78.19,0,0,1-11.38,13,37.85,37.85,0,0,0,2.39-11.07q-10.74,9.53-18.26,15.64a161,161,0,0,1-15.95,11.29c-.69.45-1.38.89-2.1,1.33a132.45,132.45,0,0,1-23.17,11.27A108.32,108.32,0,0,1,434,335.5q-21.09,0-21-22.53a54.31,54.31,0,0,1,3.1-16.78,102.45,102.45,0,0,1,8.52-18.95,115.92,115.92,0,0,1,12.48-17.78q6.12-7.15,11.82-13.2c5.8-6.16,11.21-11.49,16.28-15.93q12.61-11,21.25-16.06A66.08,66.08,0,0,1,501,207.56c3.94-1.11,6.27-1.75,7-1.94,3.57,0,5.38,1.33,5.38,4a39.89,39.89,0,0,1-1.42,10.51q-1.41,5.24-7.43,12.32t-18.45,14.36l-9.9,4.33-6.44,2.83a82.86,82.86,0,0,0-10.45,5.38,20.36,20.36,0,0,0-6.39,6.05,14.54,14.54,0,0,0-2.27,8.24c.17,2.91,3.14,4.38,8.93,4.38a72.51,72.51,0,0,0,10.1-1c4.24-.67,6.38-1,6.44-1a39.81,39.81,0,0,0,4.91-1.11q9.74-2.87,20-11.26a89.74,89.74,0,0,0,21.36-25.24q8.45-14.73,8.49-28.41c-.3-6.16-2.22-10.84-5.8-14.06s-8.37-4.86-14.45-4.86q-10.91,0-26.6,8a223,223,0,0,0-30.74,19.19,276.24,276.24,0,0,0-25.07,20.61c-2.5,2.36-5,4.8-7.35,7.3-3,3.13-6,6.41-8.83,9.76a166.6,166.6,0,0,0-14.36,19.81A108.81,108.81,0,0,0,387.06,297.52Zm221.67.22A42.39,42.39,0,0,1,618,286.62a49.5,49.5,0,0,1,14.57-8.68A50.15,50.15,0,0,1,651,274.61a48.64,48.64,0,0,1,7.38.44q-23.51,23.59-33.81,32.07t-13.82,8.46a3.55,3.55,0,0,1-2-.58c-2.14-1.39-3.22-3.67-3.19-6.77A22,22,0,0,1,608.73,297.74Z"/><path class="a" d="M684.4,355.36a20.07,20.07,0,0,0-4.8,13.06,10.68,10.68,0,0,0,2.5,6.74,8.19,8.19,0,0,0,6.46,2.81q5.12-.56,12.82-4.66a74.62,74.62,0,0,0,15.25-11.13A73.87,73.87,0,0,0,730,345.4a56.16,56.16,0,0,0,7.35-20.94l28.07-24.3a28.2,28.2,0,0,0-.17,3q0,10,5.33,16.59c3.55,4.38,7,6.68,10.37,6.9q1.92,0,11.41-6.93t21.85-17.28l.37.38-26.69,45c-.67,1.17-1.44,2.55-2.33,4.16s-1.61,3.05-2.19,4.36a8.93,8.93,0,0,0-.83,3.38,26,26,0,0,0,1.58,8.43c1,3.17,2.52,4.75,4.35,4.75.92,0,2.08-.64,3.5-1.86a32.75,32.75,0,0,0,3.63-3.66c1-1.17,2.19-2.67,3.64-4.44l59.94-65.8-1.61-7.35L813.36,329l-.41-.45,29.51-43.74q8.16-12.29,8.18-17.48a17.26,17.26,0,0,0-1.47-6.38c-1-2.38-2.3-3.58-3.91-3.6-1.19.19-3.27,1.58-6.18,4.13s-7.91,7.18-14.9,13.9-12.29,11.79-15.95,15.17A187.17,187.17,0,0,1,792.81,303a28,28,0,0,1-13.07,5,21.16,21.16,0,0,1,3.8-11.49,183.44,183.44,0,0,0,18.39-17.31q10.7-11.19,10.68-16.09c0-1.44-1.05-3.32-3.16-5.68s-3.91-3.52-5.35-3.52-4.41,1.6-8.82,4.66a93.24,93.24,0,0,0-13.37,11.51,73.77,73.77,0,0,0-11.74,15.75c-.58,1-1.08,2-1.55,3l0-.53-31.43,24.25a26.71,26.71,0,0,0-10.35-15.76l25.47-18.48c4-2.6,6-5.21,6-7.76a36,36,0,0,0-1.94-9.32q-1.92-6.37-4.41-6.38c-1.11,0-4.41.75-9.85,2.22a146.67,146.67,0,0,1-16.61,3.52,5,5,0,0,0-2.2-4.11,8.29,8.29,0,0,0-5.13-1.66c-2.08,0-4.66,1.16-7.74,3.49a39.13,39.13,0,0,0-8.1,8.3c-2.3,3.16-3.46,5.93-3.46,8.29,0,2.86,1.77,4.64,5.35,5.36l-3.8,7.38,10.54-3,4.16-5.55,24.3-4.13.39.39q-8.32,6.86-19.14,14.53T706.93,300a8.61,8.61,0,0,0-3.36,5.32,3.33,3.33,0,0,0,1.08,2.67,7.28,7.28,0,0,0,2.86,1.47c1.19.3,2.24.61,3.19.86,4.3,1.22,7.27,2.44,8.9,3.74s2.89,3.88,3.8,7.8l-25.85,20.66A100,100,0,0,0,684.4,355.36ZM723.18,334q-1.12,6.15-6.8,14.34a73.44,73.44,0,0,1-12.56,14c-4.61,3.89-8.35,5.86-11.26,5.83a2.5,2.5,0,0,1-3-2.8c0-1.72,1.08-3.89,3.27-6.49a44.47,44.47,0,0,1,7.47-7Z"/><path class="a" d="M498.6,390.36a67.45,67.45,0,0,1,8.68-5.29,91.7,91.7,0,0,1,12.43-5.41c8.24-2.91,15.42-4.39,21.55-4.36s10.18,1.47,12.15,4.39c1.56.83,3.61,2,6.13,3.41a49.06,49.06,0,0,0,6.25,3.08,13.24,13.24,0,0,0,4.71.91,17.66,17.66,0,0,0,5.77-1.22,39.21,39.21,0,0,0,9.18-4.58,11.4,11.4,0,0,0,4-6A42.55,42.55,0,0,0,590.64,364q0-4.32-8-7.65T561.15,353a139.59,139.59,0,0,0-38.22,5.16q-7.78,2.2-14.54,4.8a115.78,115.78,0,0,0-16.23,7.52c-8.37,4.74-14,8.9-16.78,12.51a67.35,67.35,0,0,0-6.13,8.71,16.66,16.66,0,0,0-2.25,8.37q0,12.66,22.28,22.7c.36.13,1.05.36,2.08.66,3.22.86,9.65,2.41,19.33,4.63q19.11,4.38,31.13,8.44t12.09,8.4q0,5.82-13.73,9.65a181.79,181.79,0,0,1-27.35,5.39c-9.1,1.08-15.92,1.74-20.44,2-.84,0-4,0-9.49-.19s-10-.22-13.59-.22c-10.68,0-17.31.49-19.86,1.55s-4.69,3.44-6.11,7.32c-.36,1-.64,1.92-.91,2.83a28.22,28.22,0,0,0-1.17,7.6q0,11.53,32,11.57c.88,0,1.8,0,2.74,0a213.71,213.71,0,0,0,26.19-2.3,183.93,183.93,0,0,0,32.32-7.71Q550.5,477,561,468t10.46-21.44c0-5.22-2.5-10.16-7.49-14.76s-12.32-8.07-21.94-10.35q-28.14-6.66-35.07-8.38-4.79-1.2-8.32-2.35c-1.05-.34-2-.7-2.91-1-2.83-1.08-4.47-2-4.86-2.77a17.94,17.94,0,0,1-.94-5C489.89,398.41,492.8,394.55,498.6,390.36Z"/><path class="a" d="M949.51,453.53c-.42.33-2.89,2.38-7.41,6.18a106.84,106.84,0,0,1-11.62,8.71c-3.19,2-6.08,3-8.63,3a6.45,6.45,0,0,1-4.3-1.61,5,5,0,0,1-1.88-4q0-9.27,15.53-22.69a47.17,47.17,0,0,0,6.44-6.21,10.69,10.69,0,0,0,1.94-6.69,21.2,21.2,0,0,0-4.77-10.54c-.64-.66-2-1-4-1a47.8,47.8,0,0,0-5.91.47q-3.57.45-10,1.41c-4.27.64-8.18,1.19-11.76,1.64a14.08,14.08,0,0,0,1.36-5.55,3.25,3.25,0,0,0-1-2.36,3.4,3.4,0,0,0-2.52-1,7.8,7.8,0,0,0-3.14.91,35.28,35.28,0,0,0-5.82,3.52,51.76,51.76,0,0,0-11.21,11.07,28.76,28.76,0,0,0-2.33,3.64,19.68,19.68,0,0,0-2.61,9.48c0,2.14.37,3.67,1.14,4.55s2.17,1.44,4.19,1.64a82.28,82.28,0,0,1-7.82,9.57c-6.46,5-12,9-16.67,12q-9.19,5.91-18.26,5.88a15.21,15.21,0,0,1-8.73-2.38c-2.42-1.58-3.61-4.19-3.61-7.77l1-5.55a115.43,115.43,0,0,0,22.66-7.1,59.17,59.17,0,0,0,14.84-9,32.19,32.19,0,0,0,6.91-8.13h0a12.83,12.83,0,0,0,.66-1.27,21.23,21.23,0,0,0,2.28-9.16,9.74,9.74,0,0,0-2.25-6.15,9.38,9.38,0,0,0-2.27-1.95,18.13,18.13,0,0,0-9.8-2.66,45.6,45.6,0,0,0-19,4.33,63.47,63.47,0,0,0-17.53,11.9A60.76,60.76,0,0,0,811,447.76a1.35,1.35,0,0,0-.14.3,45.38,45.38,0,0,0-2.69,6.77l-.14-.44-26.88,16.7c-1.33-3-2.44-5.58-3.36-7.55-.55-1.14-1-2.08-1.44-2.83a14.16,14.16,0,0,0-5.52-5.38l37.25-51.9a78.88,78.88,0,0,0,7-14q3.4-8.57,3.44-13.81c0-5.83-1.59-8.77-4.78-8.77q-4.53,0-12.78,11a248.25,248.25,0,0,0-15.76,23.85q-7.57,12.9-12.51,22.22A93.53,93.53,0,0,1,762,440a46.82,46.82,0,0,1-13.68,11c-2.83,1.55-4.91,2.77-6.24,3.63a12.18,12.18,0,0,0-3.44,3.67,9.2,9.2,0,0,0-1.25,3.52,92,92,0,0,1-8.87,6.46q-4.78,3-8.66,3a6.43,6.43,0,0,1-4.27-1.61,5,5,0,0,1-1.89-4q0-9.27,15.54-22.69a46.23,46.23,0,0,0,6.43-6.24,10.68,10.68,0,0,0,2-6.66,21.3,21.3,0,0,0-4.78-10.57c-.63-.63-2-1-4-1A49.54,49.54,0,0,0,723,419q-3.59.46-10,1.42c-4.27.64-8.21,1.19-11.76,1.64a14.08,14.08,0,0,0,1.36-5.55,3.36,3.36,0,0,0-1-2.39,3.52,3.52,0,0,0-2.55-1c-1.78,0-4.74,1.47-8.93,4.44a51.76,51.76,0,0,0-11.21,11.07q-4.95,6.62-4.94,13.12c0,2.14.36,3.66,1.14,4.55s2.14,1.44,4.19,1.64a72.46,72.46,0,0,1-13.15,14.5l0,.23c-8.74,6.18-14.84,9.29-18.34,9.26-3.35,0-5-1.44-5-4.35,0-4,2.13-8.88,6.41-14.68a97.82,97.82,0,0,1,12.95-14.56c.94-.81,2-1.72,3.19-2.72a32.5,32.5,0,0,0,3.39-3.36,20.62,20.62,0,0,0,2.85-4.07,16.33,16.33,0,0,0,1.72-4.94,26.78,26.78,0,0,0,.58-4.77c0-1.94-.49-3.16-1.49-3.64s-3-.75-6-.75c-1.44,0-3.72,1.34-6.85,4s-7,6.24-11.57,10.76-7.43,7.13-8.46,7.88q-6.57,8-19.69,19.92c-8.77,7.93-16.73,11.93-23.94,11.9-.92-.53-1.39-1.61-1.39-3.19,0-2.86,1.22-6.52,3.63-11a41.45,41.45,0,0,1,7.13-10.07,72.64,72.64,0,0,1,7.52-6.13c2.8-2,5.19-3.89,7.21-5.61a48.11,48.11,0,0,0,5.27-4.6,6.08,6.08,0,0,0,1.94-4.33c-.16-2.91-2.58-4.38-7.21-4.38-.72,0-1.66,0-2.8.08s-1.86.11-2.14.11c-3.8,0-6.71.72-8.76,2.17a59.36,59.36,0,0,0-13,11.9,69.79,69.79,0,0,0-10.57,17.06,46.13,46.13,0,0,0-4.13,18.58q0,20.9,15.14,20.92,10.79-.75,20-10.27c6.13-6.35,10.48-11.62,13.12-15.75q-4.83,12.44-4.83,17.28a13.94,13.94,0,0,0,3.22,9.27,10.54,10.54,0,0,0,8.52,3.88c3.38,0,7.15-1.14,11.34-3.41a78.12,78.12,0,0,0,12.57-8.6c4.19-3.44,8.29-7.1,12.29-11l9.79-9.54-.28-2.05c1.86-1.75,3.5-3.33,4.91-4.83a57.09,57.09,0,0,0,6.58-8.46L711.53,442l.39.39q-2.29,2.7-6,7.16a83.87,83.87,0,0,0-6.41,8.51,40.68,40.68,0,0,0-4.3,8.6,26.6,26.6,0,0,0-1.64,9.32,16.23,16.23,0,0,0,3.75,10.68,11.9,11.9,0,0,0,9.79,4.69q7.41,0,20.42-10.57,6.27-5.12,11.48-10a38.73,38.73,0,0,0,3.86,4.83c-.75,1.58-1.53,3.19-2.31,4.85s-1.52,3.17-2.3,4.77q-2.46,5-4.49,10.1a88.39,88.39,0,0,0-3.44,10.35c-.28,1.05-.5,2.08-.7,3.08a35.21,35.21,0,0,0-.69,6.82,47.42,47.42,0,0,0,2.8,15.56c1.86,5.44,4.83,8.16,8.88,8.16q7.53-1.12,17.84-8.27a73.37,73.37,0,0,0,17.92-17.81q7.61-10.65,8.32-21.63a51.82,51.82,0,0,0,.19-5.38,32.59,32.59,0,0,0-.22-4.5,5.12,5.12,0,0,0-.17-1q9-4.41,21.81-15.51a17.54,17.54,0,0,0-.06,1.78,29.76,29.76,0,0,0,.31,3.6,30.49,30.49,0,0,0,5.6,14.82c3.74,5.13,9,7.68,15.76,7.71a43.3,43.3,0,0,0,19.22-5A95.27,95.27,0,0,0,866,475.66a132.43,132.43,0,0,0,15.68-15.39l-.11-.5c1.77-1.64,3.33-3.16,4.68-4.61a52.9,52.9,0,0,0,6.58-8.46l20.69-4.52.39.39q-2.28,2.7-6,7.16a90.27,90.27,0,0,0-6.41,8.51,41.16,41.16,0,0,0-4.3,8.6,27.33,27.33,0,0,0-1.63,9.32,16.5,16.5,0,0,0,3.74,10.68,11.91,11.91,0,0,0,9.79,4.69q7.41,0,20.42-10.57a183.81,183.81,0,0,0,21.39-20ZM764.65,507.15A41.72,41.72,0,0,1,750.42,523c-2.66-4.94-4-10.85-4-17.75a31.88,31.88,0,0,1,1.14-5.14,76.89,76.89,0,0,1,8.07-17.28,58.72,58.72,0,0,0,7.52,1.8c.17,0,.86-.05,2.11-.13s2.77-.11,4.69-.11a46.9,46.9,0,0,1-.22,4.79A46.23,46.23,0,0,1,764.65,507.15Zm90-81.17a3.14,3.14,0,0,1,1.3.25,1.88,1.88,0,0,1,1.08,1.94c0,1.25-1.33,3.39-3.94,6.41a57.63,57.63,0,0,1-10.57,9.18,56.76,56.76,0,0,1-14.75,7.44,44.59,44.59,0,0,1,11.48-16.37c.39-.36.78-.69,1.17-1A35.2,35.2,0,0,1,854.67,426Z"/></svg>