<svg xmlns="http://www.w3.org/2000/svg" viewBox="0 0 1000 1000"><defs><style>.a{fill:#81d0d8;}</style></defs><path class="a" d="M504.89,937.25c-239.09,0-433.6-194.51-433.6-433.6S265.8,70.06,504.89,70.06,938.47,264.57,938.47,503.65,744,937.25,504.89,937.25Zm0-847.45C276.68,89.8,91,275.46,91,503.65S276.68,917.51,504.89,917.51,918.74,731.85,918.74,503.65,733.08,89.8,504.89,89.8Z"/><path class="a" d="M504.89,904c-220.77,0-400.38-179.61-400.38-400.38S284.12,103.29,504.89,103.29s400.36,179.6,400.36,400.36S725.65,904,504.89,904Zm0-784.95c-212.06,0-384.59,172.52-384.59,384.57S292.83,888.23,504.89,888.23,889.46,715.71,889.46,503.65,716.94,119.08,504.89,119.08Z"/><path class="a" d="M794,642.51a25.54,25.54,0,0,1-15.57,11.85,20.12,20.12,0,0,1-4,9c-3.77,4.82-9.64,7.48-16.53,7.48-1,0-2-.12-3-.22,3.58,7.23,3.21,13.07,1.77,17.21a19.86,19.86,0,0,1-9,10.52,26.28,26.28,0,0,1-5.08,17.85,22.82,22.82,0,0,1-18.26,9.13c-8.25,0-15.65-4.28-20.74-11.72a22.08,22.08,0,0,1-2.93.2,19.06,19.06,0,0,1-14.56-6.52,24.31,24.31,0,0,1-5.21-11c-5.68,5.6-11.22,7.14-15.51,7.14A19.3,19.3,0,0,1,652.14,698a28.4,28.4,0,0,1-10.27,2,23.24,23.24,0,0,1-22.16-15c-3-8-1.24-16.79,4.44-24.21A19.54,19.54,0,0,1,622.67,647a19.24,19.24,0,0,1,2-4.51H613.93c4.06,9.57,4.31,19.62.32,28.64a32.24,32.24,0,0,1-29.9,19.28h0a41,41,0,0,1-22.11-6.94,27.54,27.54,0,0,1-18.1,7c-7.18,0-19.49-3.22-29.61-21.89-1.58,10.86-5.11,19.21-10.66,24.8A25.23,25.23,0,0,1,485.59,701a29.87,29.87,0,0,1-11.15-2.25c-7.88,10-18.44,15.66-29.82,15.66a32.31,32.31,0,0,1-27-14.37c-5.89-8.82-7.32-19.79-4.24-31.48a27.84,27.84,0,0,1-13-17.73,26.49,26.49,0,0,1-.33-8.32H379.16a30.23,30.23,0,0,1-3.39,2,20.12,20.12,0,0,1-3.15,10.89c-2.09,3.22-7.11,8.43-17.35,9.09,4.63,6.49,5.24,12.28,4.52,16.59a19.63,19.63,0,0,1-7,11.91c1.72,7.31.75,14.39-2.9,20.13a22.83,22.83,0,0,1-19.35,10.57c-6.86,0-13.37-2.94-18.59-8.24a20.74,20.74,0,0,1-6.63,1.12c-3.71,0-13.8-1.32-18.9-14.58-5.95,8-12.77,9.67-17.12,9.67a20.28,20.28,0,0,1-10.63-3.15,27,27,0,0,1-14.19,4.2,22.76,22.76,0,0,1-20.83-13.17c-3.37-7.19-2.91-15.43,1.08-23a19.82,19.82,0,0,1-3.84-13.28c.38-4.37,2.45-9.85,8.69-15a24.44,24.44,0,0,1-9.66-5.73H137.77C193.86,790.72,337,896.13,504.88,896.13S815.91,790.72,872,642.51Z"/><path class="a" d="M496.79,498.51c9.22,20.69,7.7,57.13,7.7,57.13,20-46.25,25.94-71.06,22.16-82.61-2.48-7.6-11.23-11.59-18.43-8.11-2.84,1.38-5,1-6.47.09a6.65,6.65,0,0,1-3-4.47c-2.9-13.7-10.69-18.71-16.6-20.51a15.75,15.75,0,0,0-14,2.42c-5,3.68-10.63,11-8.76,24.89a6.66,6.66,0,0,1-1.31,5.21c-1.11,1.32-3,2.43-6.12,2.09-7.95-.86-14.85,5.84-14.64,13.83.32,12.15,14.25,33.52,48.62,70.37,0,0-13.66-33.82-11.93-56.4a11.89,11.89,0,0,1,22.73-3.93Z"/><path class="a" d="M480.28,580.54s-36.38,2.55-57.32-6.08a11.9,11.9,0,0,1,3.29-22.84C448.77,549.25,483,562,483,562c-37.8-33.32-59.57-46.63-71.71-46.61-8,0-14.5,7.1-13.41,15,.43,3.12-.63,5-1.92,6.17a6.66,6.66,0,0,1-5.18,1.46c-13.92-1.48-21.09,4.38-24.63,9.45a15.75,15.75,0,0,0-2,14c2,5.86,7.19,13.5,21,16a6.63,6.63,0,0,1,4.55,2.86c.92,1.47,1.4,3.59.1,6.47-3.28,7.29,1,15.92,8.63,18.19C410,608.48,434.62,601.84,480.28,580.54Z"/><path class="a" d="M475.67,645.31A11.9,11.9,0,0,1,455,635.13c4.71-22.16,27.35-50.74,27.35-50.74C439,610,419.56,626.62,415.83,638.19c-2.46,7.61,2.27,16,10.15,17.39,3.1.56,4.58,2.15,5.28,3.73a6.69,6.69,0,0,1-.21,5.38c-5.71,12.78-2.36,21.41,1.37,26.34a15.71,15.71,0,0,0,12.73,6.26c6.18-.06,15.06-2.66,21.7-15a6.7,6.7,0,0,1,4.13-3.45c1.68-.41,3.85-.21,6.18,1.91,5.93,5.37,15.45,4,20-2.59,6.87-10,8.17-35.49,2-85.5C499.16,592.67,490.34,628.06,475.67,645.31Z"/><path class="a" d="M516.53,578.47s30.93,19.32,42.81,38.61a11.89,11.89,0,0,1-16.08,16.54c-19.62-11.32-39.81-41.69-39.81-41.69,11,49.17,20.78,72.73,30.62,79.86,6.48,4.68,15.9,2.77,19.68-4.28,1.49-2.78,3.46-3.7,5.18-3.87A6.7,6.7,0,0,1,564,665.5c10.39,9.38,19.63,8.86,25.48,6.83a15.7,15.7,0,0,0,9.88-10.16c1.86-5.9,2.12-15.15-7.55-25.28a6.67,6.67,0,0,1-2-5c.12-1.72,1-3.73,3.72-5.29,6.94-4,8.58-13.45,3.71-19.79C589.83,597.18,566,588.07,516.53,578.47Z"/><path class="a" d="M618.39,510.15a15.75,15.75,0,0,0-4.8-5.48c-5-3.59-13.76-6.7-26.38-.63a6.7,6.7,0,0,1-5.36.36c-1.6-.65-3.24-2.09-3.89-5.17-1.63-7.83-10.13-12.33-17.67-9.66-11.45,4.06-27.48,23.91-51.9,68,0,0,27.94-23.45,50-28.78a11.9,11.9,0,0,1,10.77,20.41c-16.83,15.15-52,25-52,25,50.17,4.74,75.6,2.72,85.41-4.44,6.46-4.72,7.56-14.27,2-20-2.18-2.27-2.45-4.44-2.08-6.12a6.66,6.66,0,0,1,3.33-4.23c12.13-7,14.49-15.94,14.37-22.12A15.77,15.77,0,0,0,618.39,510.15Z"/><path class="a" d="M509.15,575.32c0-.12,0-.25.05-.37a9,9,0,0,1,4.32-6.77l42.94-25.36-45.18,21.12a9.23,9.23,0,0,1-8.13-.3l-.33-.16a9.13,9.13,0,0,1-5.14-6.23l-10.86-48.68,6.13,49.5a9.13,9.13,0,0,1-2.75,7.59l-.26.27a9.24,9.24,0,0,1-7.55,3l-49.65-4.72,48.95,9.47a9.08,9.08,0,0,1,6.36,4.93c.05.11.11.22.17.33a9.35,9.35,0,0,1,.55,8.16l-19.83,45.75,24.13-43.62a8.49,8.49,0,0,1,6.3-4.49c.41,0,.81-.12,1.22-.21a8.49,8.49,0,0,1,7.44,2.11l37.37,33-34-36.43A9.32,9.32,0,0,1,509.15,575.32Z"/><path class="a" d="M504.14,535.64c.31,5,.42,9.41.43,12.85l2.28,1.6c8.29-19.56,13.9-35.05,17.19-47.15A220,220,0,0,0,504.14,535.64Z"/><path class="a" d="M511,553l1.68,1.18c1.44-1.11,3.19-2.43,5.21-3.91,9.31-22.13,21.5-41.37,36.16-57.16C543.6,500.79,529.87,519.36,511,553Z"/><path class="a" d="M610.61,447a5.37,5.37,0,0,0-7-3.37C546.67,464.93,509.11,515.5,490.7,574l15.39,4.36C521.43,523.84,554.9,475,607.6,453.49A5.31,5.31,0,0,0,610.61,447Z"/><path class="a" d="M599.9,441.27a7,7,0,1,1-8.14-5.74A7,7,0,0,1,599.9,441.27Z"/><path class="a" d="M583,450a6.48,6.48,0,1,1-7.49-5.28A6.48,6.48,0,0,1,583,450Z"/><path class="a" d="M567.19,461.7a6.41,6.41,0,1,1-7.41-5.22A6.41,6.41,0,0,1,567.19,461.7Z"/><path class="a" d="M606.84,453.94a7,7,0,1,0,1.22,9.88A7,7,0,0,0,606.84,453.94Z"/><path class="a" d="M591,463.41a6.48,6.48,0,1,0,1.12,9.09A6.48,6.48,0,0,0,591,463.41Z"/><path class="a" d="M575.08,474.31a6.41,6.41,0,1,0,1.11,9A6.41,6.41,0,0,0,575.08,474.31Z"/><path class="a" d="M495,574.69c5.46-23.61,17.12-46.65,31.11-66.3a189.22,189.22,0,0,1,44.63-44.61c10.08-7.21,21.29-12.12,32.58-17-12.95,6.44-25.13,13.28-36.68,22a175,175,0,0,0-29.35,28.54C518.85,519.73,502.89,546.6,495,574.69Z"/><path class="a" d="M502.1,458.49c.52,1.58,1.83,2.16,2.38,1.94,1.21-.11,2.82-1,4-1.44,8.68-3.16,24.62,1.05,23.49,24.61a119.66,119.66,0,0,1-2.12,15.69c12.68-42-12.41-48-24.46-43-9.78-41-58-31.35-53.6,9.27-12.06-.76-36.07,11.49-8.58,48.73-9.42-16.11-17.63-35-.38-43.52,6.39-3,7-.55,11.22-1.61a2.38,2.38,0,0,0,1-.69c.83-1.06.49-2.76.37-4.14C451.61,432.08,491.75,419.59,502.1,458.49Z"/><path class="a" d="M424.68,607.47c-18,3.93-38.69,6-41.5-13.09-.89-7,1.61-6.68,1.94-11.16.18-.53-.55-1.88-2-2.33-36.81-8.62-31.51-48.75,6.72-46.68,1.64,0,2.62-1,2.58-1.67a22.44,22.44,0,0,0-.14-4.23c-.33-9.64,8.59-18.51,19.37-17.46,8.46.54,18.1,5.5,25.57,9.59-7.1-4.93-16.75-10.61-25.35-11.76a20.44,20.44,0,0,0-23.11,21.72c-42-3.35-47.77,45.49-7.76,53.85C376.68,595.15,381.35,621.91,424.68,607.47Z"/><path class="a" d="M482.31,689.3c-4.55-.86-5.86-2.33-8.91-4.66a2.92,2.92,0,0,0-1.1-.63c-2-1.51-3.92,3.29-5.4,5.33-16.81,25-54,11.86-39.75-25,.5-1.6-.21-2.82-.79-3-1-.62-2.8-.8-4.07-1.18-8.78-2.53-19.37-15.25-4.54-33.72a118.12,118.12,0,0,1,10.94-11.45c-35.48,26.94-17.7,46.26-5.5,49.17-16.12,38.78,28.49,59.51,48.82,24,10,8.26,35.93,11,35.58-34.38C505.73,672.62,501.22,692.51,482.31,689.3Z"/><path class="a" d="M577.35,589.36c17,7.48,34.79,18,25.87,35a16.89,16.89,0,0,1-4.68,5.4,22,22,0,0,0-3.44,2.49c-2,1.34,2,4.89,3.4,6.78,18.62,23.73-5.42,55-36,30.1a4.88,4.88,0,0,0-.56-.34,2.2,2.2,0,0,0-2.51.17c-.93.81-1.67,2.48-2.38,3.51-5,7.34-20.31,14-33.47-6.11a115.13,115.13,0,0,1-7.51-13.94c14.47,41.53,38.28,31.54,45.06,20.42,31.91,27.33,65.42-8.68,37.92-39C608.85,627.6,621.11,603.22,577.35,589.36Z"/><path class="a" d="M586.54,496.19c-3.21-12.48-22.53-30.12-49,6.9,12.36-13.89,27.78-27.59,41.27-13.8,3.32,3.52,3.47,5.66,4.47,9a2.88,2.88,0,0,0,.52,1.16,2.43,2.43,0,0,0,1,.77c1.26.45,2.78-.39,4-.94,29.33-13.5,53.94,21.13,20.67,42.14a5.88,5.88,0,0,0-1.19.87c-.87,1-.91,2.08-.61,2.44a3.25,3.25,0,0,0,.66,1.08c2,2.42,2.35,2.35,3.77,5.35,3.62,7.64,2.44,21.3-18,26.87a119,119,0,0,1-15.58,2.83c44.68-1,41.45-27.11,33.35-36.55C647.73,522.43,623.91,479.4,586.54,496.19Z"/><path class="a" d="M720.18,591.09c-.66,13.84-11.51,33.33-11.51,33.33,23.65-19.76,33.72-31.68,34.83-39a8.24,8.24,0,0,0-7.84-9.5,4,4,0,0,1-3.55-1.74,4.08,4.08,0,0,1-.41-3.26c2.19-8.28-.69-13.16-3.43-15.77a9.56,9.56,0,0,0-3.84-2.25,9.67,9.67,0,0,0-4.45-.27c-3.73.64-8.84,3.09-11.63,11.19a3.81,3.81,0,0,1-6.07,2,8.26,8.26,0,0,0-11.81,3.52c-3.16,6.73-1.43,22.24,7.21,51.82,0,0,1.84-22.23,9-34.09a7.27,7.27,0,0,1,13.5,4.1Z"/><path class="a" d="M688.59,631.37s-20.58-8.62-29.65-19.09A7.27,7.27,0,0,1,667,600.71c13,4.9,28.15,21.24,28.15,21.24-11.49-28.6-19.72-41.86-26.36-45.19a8.24,8.24,0,0,0-11.46,4.52,4,4,0,0,1-2.75,2.85,4.1,4.1,0,0,1-3.23-.63c-7.2-4.64-12.73-3.41-16.06-1.61a9.62,9.62,0,0,0-5,7.11c-.54,3.75.21,9.36,7,14.52a4.08,4.08,0,0,1,1.7,2.81,4,4,0,0,1-1.73,3.56,8.26,8.26,0,0,0-.29,12.32C642.5,627.3,657.78,630.45,688.59,631.37Z"/><path class="a" d="M668.25,665.49a7.28,7.28,0,0,1-8.51-11.26c8.67-10.81,28.9-20.2,28.9-20.2-30.75,2.09-45.9,5.82-51.12,11.1a8.24,8.24,0,0,0,.76,12.3,4,4,0,0,1,1.85,3.49,4.09,4.09,0,0,1-1.59,2.88c-6.64,5.42-7.18,11.05-6.49,14.77a9.58,9.58,0,0,0,5.23,6.92c3.39,1.67,9,2.69,16-2.22a4.06,4.06,0,0,1,3.2-.74,4,4,0,0,1,2.86,2.74,8.24,8.24,0,0,0,11.62,4.08c6.51-3.58,14.23-17.14,24.63-46.16C695.57,643.19,681,660.1,668.25,665.49Z"/><path class="a" d="M709,640.21s11.58,19.07,12.76,32.87a7.28,7.28,0,0,1-13.34,4.62c-7.6-11.59-10.28-33.73-10.28-33.73-7.51,29.89-8.65,45.45-5.23,52a8.24,8.24,0,0,0,11.92,3.08,4,4,0,0,1,3.9-.69,4.09,4.09,0,0,1,2.25,2.41c3.09,8,8.29,10.24,12,10.74a9.62,9.62,0,0,0,8.2-2.84c2.63-2.71,5.32-7.69,2.82-15.89a4.09,4.09,0,0,1,.28-3.27,4,4,0,0,1,3.49-1.87,8.25,8.25,0,0,0,7.48-9.79C743.87,670.6,733.35,659.07,709,640.21Z"/><path class="a" d="M783.41,630.9a9.69,9.69,0,0,0-1.11-4.31c-1.77-3.35-5.67-7.45-14.24-7.6a4.07,4.07,0,0,1-3-1.28,4,4,0,0,1-.7-3.89,8.25,8.25,0,0,0-7-10.14c-7.37-.93-21.59,5.5-47.06,22.87,0,0,21.72-5.13,35.21-2a7.28,7.28,0,0,1,.27,14.12c-13.37,3.65-35.26-.65-35.26-.65,26.11,16.39,40.56,22.28,47.89,21.07A8.25,8.25,0,0,0,765,648.7a4,4,0,0,1,.55-3.91,4.1,4.1,0,0,1,3-1.4c8.56-.48,12.3-4.72,13.94-8.13A9.64,9.64,0,0,0,783.41,630.9Z"/><path class="a" d="M705.8,636.46a2.14,2.14,0,0,1,.13-.19,5.52,5.52,0,0,1,4.22-2.51l30.44-2-30.5-.89a5.64,5.64,0,0,1-4.35-2.4l-.14-.18a5.6,5.6,0,0,1-1.1-4.82L712,593.85l-10.27,28.73A5.56,5.56,0,0,1,698.1,626l-.21.07a5.66,5.66,0,0,1-5-.43l-25.82-16.24L691.25,628a5.54,5.54,0,0,1,2.11,4.44,1.69,1.69,0,0,0,0,.23,5.69,5.69,0,0,1-2,4.61L668,656.83l25.18-17.2a5.21,5.21,0,0,1,4.67-.71c.24.08.48.16.73.22a5.21,5.21,0,0,1,3.49,3.2l11.34,28.3-8.57-29.27A5.67,5.67,0,0,1,705.8,636.46Z"/><path class="a" d="M714,613.4c-1.2,2.8-2.36,5.26-3.3,7.14l.8,1.51a236.5,236.5,0,0,0,22.37-21A134.68,134.68,0,0,0,714,613.4Z"/><path class="a" d="M712.93,624.76l.59,1.11c1.09-.22,2.42-.46,3.93-.71a118.62,118.62,0,0,1,35.48-21.28C745.12,605.21,732.52,611.59,712.93,624.76Z"/><path class="a" d="M796.54,594.25a3.27,3.27,0,0,0-2.89-3.77c-37-4-71.41,13.29-97.57,40.19l7.21,6.61c23.38-25.57,55.11-43.06,89.81-40.3A3.25,3.25,0,0,0,796.54,594.25Z"/><path class="a" d="M792.26,588.18a4.31,4.31,0,1,1-2.87-5.37A4.3,4.3,0,0,1,792.26,588.18Z"/><path class="a" d="M780.65,588.29a4,4,0,1,1-2.64-4.94A4,4,0,0,1,780.65,588.29Z"/><path class="a" d="M768.77,590.35a3.92,3.92,0,1,1-2.61-4.89A3.93,3.93,0,0,1,768.77,590.35Z"/><path class="a" d="M792.57,597a4.3,4.3,0,1,0-2.06,5.73A4.31,4.31,0,0,0,792.57,597Z"/><path class="a" d="M781.3,597.83a4,4,0,1,0-1.89,5.27A3.95,3.95,0,0,0,781.3,597.83Z"/><path class="a" d="M769.61,599.41a3.92,3.92,0,1,0-1.87,5.22A3.91,3.91,0,0,0,769.61,599.41Z"/><path class="a" d="M698.22,632.21c9.47-11.4,22.18-20.78,35.23-27.67a116,116,0,0,1,36.66-12.09c7.49-1.17,15-.77,22.49-.36A139.1,139.1,0,0,0,766.5,594a107.36,107.36,0,0,0-23.89,7.52C726.39,608.76,710.28,619,698.22,632.21Z"/><path class="a" d="M734.09,570.69c-.15,1,.4,1.68.77,1.71a12,12,0,0,0,2.57.31c5.61.67,13.17,7.35,6.06,19.91a71.46,71.46,0,0,1-5.47,8c18.5-19.48,6.43-29.66-1.53-30.22,5.92-25.08-23.08-33.1-31.84-9.69-6.38-3.73-22.87-3.64-18.09,24.26-.72-11.39,0-24,11.77-23.87,4.31.11,3.95,1.61,6.56,2.2a1.43,1.43,0,0,0,.76-.09c.74-.36,1-1.38,1.33-2.16C713.77,542.37,739.14,546.59,734.09,570.69Z"/><path class="a" d="M650.81,630.79c-10.93-2.81-22.81-7.35-19.08-18.57,1.43-4.06,2.72-3.21,4.13-5.57a1.56,1.56,0,0,0-.46-1.82c-17.74-14.84-3.8-35.3,16.51-23.66.9.45,1.72.16,1.87-.2a13.7,13.7,0,0,0,1.09-2.35c2.47-5.35,9.79-7.75,15.39-4.21,4.48,2.62,8.38,8,11.33,12.27-2.52-4.64-6.23-10.4-10.61-13.4a12.52,12.52,0,0,0-18.61,5.52c-22-13.38-38.61,11.71-19,27.28C628,610.85,623.16,626.76,650.81,630.79Z"/><path class="a" d="M659.78,691.35c-2.25-1.72-2.56-2.88-3.59-5a1.69,1.69,0,0,0-.42-.65c-.66-1.37-3,.72-4.42,1.42-16.08,9.06-32.75-8.36-14.86-24.57.72-.73.66-1.6.39-1.84A12.45,12.45,0,0,0,635,659c-4.1-3.8-6.39-13.66,6.8-19.67A73.12,73.12,0,0,1,650.9,636c-26.8,5-22.39,20.41-16.53,25.35-19.47,16.76-.8,40.36,20.07,26.55,3.19,7.27,16.59,15.93,28.9-9C677.16,688.68,669.23,698.3,659.78,691.35Z"/><path class="a" d="M739.2,662.89c7.25,8.78,14.06,19.39,4.51,26.24a10.19,10.19,0,0,1-4.05,1.66,14.72,14.72,0,0,0-2.56.41c-1.43.2-.24,3.23,0,4.64,3.65,18.09-18.08,28.55-28,6.54-.06-.11-.13-.22-.21-.34-.53-.62-1.18-.74-1.42-.6a11.83,11.83,0,0,0-2.27,1.27c-4.73,2.64-14.94,2.06-16.61-12.55a72.57,72.57,0,0,1-.26-9.68c-3.52,26.67,12.23,27.76,19,23.56,9.91,23.71,38.13,13.25,31.45-10.88C745.89,692.45,759.29,682.5,739.2,662.89Z"/><path class="a" d="M769.85,614.52c1.68-7.71-4-22.66-28.66-9.71,10.57-4.19,22.77-7.43,26.34,3.81.85,2.84.34,4,0,6.15a2,2,0,0,0,0,.78,1.44,1.44,0,0,0,.33.68c.56.6,1.62.56,2.47.61,19.73.69,23.65,26.38-.3,28.7a4.14,4.14,0,0,0-.89.15c-.76.31-1.07.89-1,1.17a2.07,2.07,0,0,0,.07.77,11.45,11.45,0,0,1,.58,4c-.13,5.17-4.52,12.31-17.21,9.73a72.1,72.1,0,0,1-9.3-2.74c24.68,11.78,30.11-3.41,28.28-10.79C796.07,645.69,794.89,615.62,769.85,614.52Z"/><path class="a" d="M293.87,590c-5.09,12.89-3.2,35.11-3.2,35.11C277.23,597.41,273,582.4,275,575.24A8.25,8.25,0,0,1,286,569.8a4,4,0,0,0,4-.12,4.06,4.06,0,0,0,1.71-2.81c1.4-8.45,6-11.71,9.6-13a9.47,9.47,0,0,1,4.43-.47,9.57,9.57,0,0,1,4.17,1.57c3.14,2.12,6.78,6.45,6,15a3.79,3.79,0,0,0,4.73,4.27,8.25,8.25,0,0,1,9.31,8.07c.13,7.43-7.82,20.86-27.86,44.28,0,0,7.46-21,5.81-34.78a7.28,7.28,0,0,0-14-1.8Z"/><path class="a" d="M306.12,639.73s22.3.59,34.87-5.23a7.28,7.28,0,0,0-2.61-13.87c-13.83-.85-34.38,7.81-34.38,7.81,22.22-21.36,35.17-30.07,42.6-30.37a8.26,8.26,0,0,1,8.59,8.83,4,4,0,0,0,1.33,3.72,4.08,4.08,0,0,0,3.2.76c8.47-1.27,13,2.12,15.3,5.13a9.62,9.62,0,0,1,1.61,8.52c-1.05,3.64-4,8.44-12.39,10.34a4,4,0,0,0-2.71,1.87,4,4,0,0,0,.11,4,8.25,8.25,0,0,1-4.8,11.35C349.81,655,334.59,651.54,306.12,639.73Z"/><path class="a" d="M310.65,679.19A7.27,7.27,0,0,0,323,672.42c-3.46-13.41-18-30.29-18-30.29,27.18,14.54,39.46,24.16,42,31.13a8.25,8.25,0,0,1-5.75,10.9,4,4,0,0,0-3.12,2.42,4.06,4.06,0,0,0,.27,3.28c3.82,7.66,2,13-.15,16.14a9.62,9.62,0,0,1-7.61,4.15c-3.78.13-9.28-1.23-13.66-8.59a4.07,4.07,0,0,0-2.62-2,4,4,0,0,0-3.73,1.32,8.24,8.24,0,0,1-12.27-1c-4.47-5.94-5.93-21.48-3.49-52.2C294.9,647.64,301.22,669,310.65,679.19Z"/><path class="a" d="M283.91,639.42S265.52,652,258.77,664.14A7.28,7.28,0,0,0,269,673.83c11.69-7.44,23.23-26.53,23.23-26.53-5.43,30.34-10.78,45-16.61,49.61a8.25,8.25,0,0,1-12.14-2.1,4,4,0,0,0-3.27-2.22,4,4,0,0,0-3,1.27c-6.11,6-11.77,5.92-15.4,4.84a9.73,9.73,0,0,1-3.86-2.22,9.61,9.61,0,0,1-2.44-3.73c-1.29-3.56-1.7-9.21,3.94-15.65a4.06,4.06,0,0,0,1.1-3.1,4,4,0,0,0-2.42-3.14,8.25,8.25,0,0,1-2.79-12C239.61,652.78,253.93,646.59,283.91,639.42Z"/><path class="a" d="M219.86,600.34a9.75,9.75,0,0,1,2.79-3.47c3-2.33,8.23-4.46,16.11-1.08a4.1,4.1,0,0,0,3.29.08,4,4,0,0,0,2.23-3.27,8.24,8.24,0,0,1,10.55-6.36c7.1,2.18,17.42,13.89,33.51,40.18,0,0-17.69-13.59-31.29-16.27a7.27,7.27,0,0,0-6,12.75c10.68,8.82,32.41,13.9,32.41,13.9-30.53,4.21-46.13,3.65-52.32-.47a8.25,8.25,0,0,1-1.76-12.19,4,4,0,0,0,1.11-3.8,4.06,4.06,0,0,0-2.14-2.49c-7.6-4-9.28-9.36-9.37-13.15A9.79,9.79,0,0,1,219.86,600.34Z"/><path class="a" d="M288.34,637.3c0-.08,0-.15,0-.23a5.51,5.51,0,0,0-2.82-4l-26.91-14.37,28.17,11.72a5.64,5.64,0,0,0,5-.4l.2-.11a5.58,5.58,0,0,0,3-3.94l5.35-30-2.44,30.41a5.6,5.6,0,0,0,1.88,4.57l.17.15a5.63,5.63,0,0,0,4.69,1.64l30.22-4.19-29.67,7.07a5.52,5.52,0,0,0-3.75,3.18,2,2,0,0,0-.1.21,5.7,5.7,0,0,0-.12,5l13.32,27.44-15.89-26a5.23,5.23,0,0,0-4-2.57,5.9,5.9,0,0,1-.75-.1,5.23,5.23,0,0,0-4.5,1.49l-22,21.14,19.84-23.16A5.68,5.68,0,0,0,288.34,637.3Z"/><path class="a" d="M290.36,612.91c-.06,3.05,0,5.76.07,7.87l-1.35,1a236.2,236.2,0,0,1-11.74-28.37A136,136,0,0,1,290.36,612.91Z"/><path class="a" d="M286.65,623.7l-1,.77c-.91-.65-2-1.41-3.28-2.26a118.74,118.74,0,0,0-23.61-34C265.33,592.65,274.2,603.64,286.65,623.7Z"/><path class="a" d="M223,561.53a3.28,3.28,0,0,1,4.18-2.25c35.36,11.54,59.65,41.46,72.44,76.73l-9.29,3.07c-10.81-32.92-32.55-61.91-65.32-73.65A3.24,3.24,0,0,1,223,561.53Z"/><path class="a" d="M229.35,557.76a4.31,4.31,0,1,0,4.82-3.72A4.31,4.31,0,0,0,229.35,557.76Z"/><path class="a" d="M239.89,562.63a4,4,0,1,0,4.44-3.42A4,4,0,0,0,239.89,562.63Z"/><path class="a" d="M249.88,569.39a3.92,3.92,0,1,0,4.39-3.39A3.92,3.92,0,0,0,249.88,569.39Z"/><path class="a" d="M225.44,565.69a4.3,4.3,0,1,1-.48,6.06A4.3,4.3,0,0,1,225.44,565.69Z"/><path class="a" d="M235.38,571.06a4,4,0,1,1-.45,5.58A4,4,0,0,1,235.38,571.06Z"/><path class="a" d="M245.39,577.3a3.92,3.92,0,1,1-.44,5.53A3.92,3.92,0,0,1,245.39,577.3Z"/><path class="a" d="M297,636.54c-4-14.29-11.69-28.06-20.75-39.7a115.92,115.92,0,0,0-28.46-26.09c-6.34-4.14-13.33-6.85-20.35-9.57a138.6,138.6,0,0,1,23,12.51,106.91,106.91,0,0,1,18.69,16.67C281,603.58,291.41,619.58,297,636.54Z"/><path class="a" d="M289.58,565.71c-.28,1-1.07,1.37-1.41,1.25a12.62,12.62,0,0,1-2.47-.78c-5.4-1.7-15,1.29-13.71,15.66a71.22,71.22,0,0,0,1.71,9.54c-8.86-25.37,6.31-29.69,13.81-26.93,4.9-25.29,34.63-20.69,33,4.25,7.35-.78,22.35,6.07,6.53,29.55,5.33-10.09,9.85-21.83-.92-26.6-4-1.67-4.27-.16-6.89-.69a1.46,1.46,0,0,1-.65-.39c-.53-.63-.37-1.68-.33-2.52C319.73,548.24,294.87,541.66,289.58,565.71Z"/><path class="a" d="M340.81,654.72c11.12,1.93,23.8,2.67,25-9.09.36-4.29-1.16-4-1.48-6.77-.13-.32.28-1.17,1.17-1.47,22.27-6.25,18-30.63-5.34-28.36-1,0-1.62-.56-1.62-.95a13.93,13.93,0,0,1,0-2.59c0-5.9-5.73-11.09-12.3-10.16-5.15.55-10.91,3.84-15.37,6.53,4.21-3.2,10-6.92,15.19-7.85a12.5,12.5,0,0,1,14.69,12.67c25.57-3.16,30.39,26.54,6.16,32.7C369.82,645.93,367.67,662.41,340.81,654.72Z"/><path class="a" d="M307.74,706.25c2.76-.65,3.52-1.58,5.32-3.08a1.86,1.86,0,0,1,.66-.42c1.16-1,2.48,1.91,3.44,3.12,10.94,14.86,33.29,5.82,23.64-16.3-.35-1,.06-1.73.4-1.84a13.15,13.15,0,0,1,2.46-.82c5.3-1.78,11.44-9.83,1.89-20.73a72.72,72.72,0,0,0-7-6.71c22.39,15.53,12,27.81,4.65,29.91,10.88,23.28-15.84,37.12-29.2,16-5.89,5.31-21.66,7.7-22.65-20.08C293,696.67,296.27,708.71,307.74,706.25Z"/><path class="a" d="M247,647.67c-10.22,5-20.79,11.9-14.89,22.07a10.15,10.15,0,0,0,3,3.17,13.62,13.62,0,0,1,2.17,1.44c1.23.76-1.11,3-1.9,4.23-10.75,15,4.76,33.45,22.8,17.45.1-.08.21-.15.33-.23a1.36,1.36,0,0,1,1.54,0,12.36,12.36,0,0,1,1.55,2.08c3.23,4.36,12.78,8,20.3-4.61a73,73,0,0,0,4.22-8.72c-7.75,25.76-22.57,20.29-27,13.67-18.78,17.54-40.2-3.59-24.2-22.84C228.78,671.87,220.65,657.29,247,647.67Z"/><path class="a" d="M239,591c1.63-7.71,13-19,30.12,2.93-7.92-8.16-17.7-16.13-25.58-7.35-1.94,2.24-2,3.55-2.5,5.62a1.77,1.77,0,0,1-.29.73,1.45,1.45,0,0,1-.57.49c-.76.31-1.71-.17-2.5-.47-18.28-7.48-32.41,14.33-11.52,26.3a3.92,3.92,0,0,1,.75.5c.56.59.61,1.25.44,1.48a2.06,2.06,0,0,1-.38.67,11.26,11.26,0,0,0-2.16,3.37c-2,4.77-.93,13.08,11.69,16a71.5,71.5,0,0,0,9.6,1.32c-27.33.6-26.05-15.48-21.34-21.46C202.25,608.62,215.68,581.69,239,591Z"/><path class="a" d="M710.14,284.93A13.81,13.81,0,0,0,714.3,287a18.19,18.19,0,0,0,5.26.71,32.75,32.75,0,0,0,6.88-.88,31.58,31.58,0,0,0,7.38-2.58,20.07,20.07,0,0,0,5.76-4.22,9.73,9.73,0,0,0,2.33-6.92,10.3,10.3,0,0,0-3.79-7.84q-3.79-3.42-12.1-3.42a23.42,23.42,0,0,0-14.22,4.34,13.65,13.65,0,0,0-4.21,4.83,15.07,15.07,0,0,0-1.46,6.93C706.13,280.65,707.47,283,710.14,284.93Z"/><path class="a" d="M790.79,331.56A51.77,51.77,0,0,1,779,344.24a36.52,36.52,0,0,1-7,4.05,18.93,18.93,0,0,1-7.64,1.54,9.09,9.09,0,0,1-6.84-2.88,9.19,9.19,0,0,1-2.75-6.5,27.53,27.53,0,0,1,1.08-7.47q3.35-12.6,15.94-26.11a17.55,17.55,0,0,0-3.13-2.54,8.06,8.06,0,0,0-4.46-1.71q-4.68,0-14.6,9.42a111.67,111.67,0,0,0-9.09,10,107.5,107.5,0,0,0-8.3,11.68c-1,1.55-1.82,3.1-2.64,4.65a48.13,48.13,0,0,1-6.5,5.9,36.52,36.52,0,0,1-7,4.05,18.92,18.92,0,0,1-7.63,1.54,9.06,9.06,0,0,1-6.84-2.88,9.16,9.16,0,0,1-2.76-6.5A27.56,27.56,0,0,1,700,333q3.33-12.6,15.93-26.11a17.55,17.55,0,0,0-3.13-2.54,8.06,8.06,0,0,0-4.46-1.71q-4.68,0-14.6,9.42a114.78,114.78,0,0,0-9.09,10,107.5,107.5,0,0,0-8.3,11.68c-.95,1.55-1.81,3.1-2.63,4.65a49.43,49.43,0,0,1-6.5,5.9q-7.6,5.6-13.77,5.59-4.75,0-4.75-7.55t5.42-22.73q1.5-4.26,2.84-7.84c.88-2.39,1.69-4.46,2.41-6.21s1.2-3,1.42-3.72a27.33,27.33,0,0,0-6.75-.91,12.39,12.39,0,0,0-2.8.45c-1.2.31-2.54,1.35-4,3.13q-2.85-2.08-9.43-2.08A78.6,78.6,0,0,0,604.12,310q-15.69,7.34-25.36,19a44.56,44.56,0,0,0-8.11,13.91c-3.63,2.88-7,4.35-10.08,4.35q-5.51,0-11.26-10.09,4.52-10.42,4.51-18.81t-1.17-12.47a10.11,10.11,0,0,0-2-3.84c-.87-.94-2.38-1.41-4.55-1.41s-4.78,1.41-7.84,4.25a27.81,27.81,0,0,0-3.34,3.8,28.21,28.21,0,0,0-2.29,3.67q-.87,1.71-2.63,12.22a93.1,93.1,0,0,0-1.25,15.09v1.26a7.14,7.14,0,0,0,.09,1.08q-7.84,7.85-12.35,7.84a4.73,4.73,0,0,1-3.5-1.42q-4.59-4.59-6.18-17.43,6.59-11.76,6.59-18.94a10.89,10.89,0,0,0-2-5.92,10.32,10.32,0,0,0-2.09-2.38,4.48,4.48,0,0,0-2.92-1q-1.74,0-5.75,2.09a36,36,0,0,0-3.21,1.83,15.92,15.92,0,0,0-2.59,2.05,12.69,12.69,0,0,0-2.21,4.46,113.27,113.27,0,0,0-5.17,25.11A61.15,61.15,0,0,1,476,346.79q-5.5,3-8.92,3-4.5,0-4.51-9.76a53.07,53.07,0,0,1,.67-7.67q2.34-17.19,11.1-27.95a10.86,10.86,0,0,0-5.76-2.17l-.08.09a9.31,9.31,0,0,0-5.43,2.17q-10,7.43-18.51,20.18a74.37,74.37,0,0,0-6,10.61,50.67,50.67,0,0,1-9.09,8.91q-7.59,5.6-13.76,5.59-4.76,0-4.76-7.55t5.42-22.73q1.5-4.26,2.84-7.84c.89-2.39,1.69-4.46,2.42-6.21s1.19-3,1.42-3.72a27.47,27.47,0,0,0-6.76-.91,12.24,12.24,0,0,0-2.79.45q-1.8.46-4.05,3.13-2.83-2.08-9.43-2.08A78.63,78.63,0,0,0,366.39,310Q350.7,317.3,341,329a44.47,44.47,0,0,0-8.14,14c-5.35,4.54-10.5,6.85-15.46,6.85a7.36,7.36,0,0,1-7.26-4.75,15.43,15.43,0,0,1-1.29-4.88,69.29,69.29,0,0,1-.3-7.26q0-4.54,3.51-16.64a68.44,68.44,0,0,0,7.88.5q3.63,0,5.21-1.92,3-3.84,3.51-10.59c-2.17.16-4.31.25-6.43.25s-4.22-.06-6.34-.17q2.83-8.26,6.43-16.85,12-29.44,20.93-40.62a16,16,0,0,0-4.67-2.75,6.88,6.88,0,0,0-2.63-.51,3.21,3.21,0,0,0-2.46,1.26q-3.33,4.17-7.5,10.26a352.21,352.21,0,0,0-27,47.12q-9-1.66-33.7-8.42,4.68-14.69,7.18-26.19,4.25-19.11,2.33-20.94c-1.61-1.55-4.09-2.33-7.42-2.33q-1.68,18.68-14.18,46.37a85.69,85.69,0,0,0-18.35-2.33A55.93,55.93,0,0,0,201.9,299a64.92,64.92,0,0,0-12.22,11.43,75.88,75.88,0,0,0-9.09,13.72A71.17,71.17,0,0,0,174.91,339a57.87,57.87,0,0,0-2,14.38,48.53,48.53,0,0,0,1.42,12.22q4.42,17.85,22,17.86,13.61,0,26.86-12.35,22-20.52,39-68.32,7.75,2.34,15.64,5.09t16.22,5q-12.42,28.77-12.51,46.54,0,20.44,19.35,20.44,7.1,0,16.94-7.43a79,79,0,0,0,8.84-7.67c1.69-1.69,3.3-3.43,4.86-5.2A20.47,20.47,0,0,0,337.19,370q6.26,6.25,16.69,6.25,16.42,0,27.86-13.34v2a8,8,0,0,0,1.33,4q4.17,7.35,16.35,7.34,9.58,0,19.69-7.17a66.64,66.64,0,0,0,8.5-7.34,90,90,0,0,0,7.17-8.23,38.67,38.67,0,0,0,4.1,15.48q4.74,9.18,12,9.18,15.35,0,37.28-22.77,1.66,10,5.59,15.76a17.47,17.47,0,0,0,5,5.09,12,12,0,0,0,6.76,1.92,22.62,22.62,0,0,0,7.76-1.42q11.67-4.33,22.69-17.85,7.34,7.17,19.18,7.18a12.79,12.79,0,0,0,5.34-1.26,31.56,31.56,0,0,0,8.72-5.95A20.57,20.57,0,0,0,574.92,370q6.26,6.25,16.68,6.25,16.44,0,27.86-13.34v2a8,8,0,0,0,1.34,4q4.17,7.35,16.35,7.34,9.58,0,19.68-7.17a66,66,0,0,0,8.51-7.34c.9-.92,1.73-1.85,2.57-2.78a20.32,20.32,0,0,0,1.69,7.62q4.57,10.17,17.51,10.17A44,44,0,0,0,711,369.43a60.57,60.57,0,0,0,9.55-7.42c1.14-1.09,2.22-2.19,3.27-3.29a20.73,20.73,0,0,0,1.69,7.88q4.59,10.17,17.52,10.17,12.25,0,23.86-7.34a61,61,0,0,0,9.55-7.42,84.19,84.19,0,0,0,7.79-8.47,86.49,86.49,0,0,0,6.89-10.22c2.3-3.94,3.46-6.84,3.46-8.67Q794.55,331.32,790.79,331.56Zm-555.86-7.67q-17,24.76-28.53,24.77-11.09,0-11.09-16.6a30.7,30.7,0,0,1,9.92-22.85,40.35,40.35,0,0,1,12.85-8,43.08,43.08,0,0,1,16.22-3.13,72.53,72.53,0,0,1,14.81,1.34A199.87,199.87,0,0,1,234.93,323.89Zm163.28-3.17q-4.8,7-11.22,14.68-12.09,14.43-21,14.43-8.09,0-8.09-9.68,0-11.76,13-20.6,13.77-9.35,34.62-9.51Q403,313.72,398.21,320.72Zm237.73,0q-4.8,7-11.22,14.68-12.11,14.43-21,14.43-8.1,0-8.09-9.68,0-11.76,13-20.6,13.75-9.35,34.62-9.51Z"/><path class="a" d="M794,265.25q-3.81-3.42-12.1-3.42a23.42,23.42,0,0,0-14.22,4.34,13.55,13.55,0,0,0-4.21,4.83,15,15,0,0,0-1.46,6.93c0,2.72,1.33,5.06,4,7a13.75,13.75,0,0,0,4.17,2.05,18.19,18.19,0,0,0,5.26.71,32.83,32.83,0,0,0,6.88-.88,31.58,31.58,0,0,0,7.38-2.58,19.88,19.88,0,0,0,5.75-4.22,9.73,9.73,0,0,0,2.34-6.92A10.34,10.34,0,0,0,794,265.25Z"/><path class="a" d="M202,481.9a.62.62,0,0,1,.71.64v5.34a.68.68,0,0,1-.71.71H177a.68.68,0,0,1-.71-.71V435a.67.67,0,0,1,.71-.71h25a.67.67,0,0,1,.71.71v5.4a.68.68,0,0,1-.71.72H183.11V455h9.46a.68.68,0,0,1,.71.72v5.33a.68.68,0,0,1-.71.71h-9.46V481.9Z"/><path class="a" d="M236.69,454.54H231.3a.67.67,0,0,1-.71-.71V448a7.09,7.09,0,0,0-6.9-6.89,7.18,7.18,0,0,0-7.11,6.89c0,14.57,20.83,4.05,20.83,26.44a13.87,13.87,0,0,1-13.72,14.15c-7.89,0-13.86-5.76-13.86-13.73v-6.32a.68.68,0,0,1,.71-.71h5.33a.67.67,0,0,1,.71.71v6.32a7,7,0,0,0,7.11,7,7.35,7.35,0,0,0,4.9-2l-.07.07a9.12,9.12,0,0,0,2.07-5.47c0-17.06-20.76-5.4-20.76-25.73,0-8,5.61-14.5,13.86-14.5A14,14,0,0,1,237.41,448v5.83A.67.67,0,0,1,236.69,454.54Z"/><path class="a" d="M261.21,487.88a.67.67,0,0,1-.71.71h-5.4a.67.67,0,0,1-.71-.71V441.11h-9.18a.68.68,0,0,1-.71-.72V435a.67.67,0,0,1,.71-.71h25a.67.67,0,0,1,.72.71v5.4a.68.68,0,0,1-.72.72h-9Z"/><path class="a" d="M278,487.88V435a.67.67,0,0,1,.71-.71h17.92a8.11,8.11,0,0,1,7.82,8v38.67a7.77,7.77,0,0,1-7.82,7.68H278.75A.68.68,0,0,1,278,487.88Zm6.83-6h11.8a1.21,1.21,0,0,0,1-1V442.24c0-.49-.64-.93-1-1.13h-11.8Z"/><path class="a" d="M712,447.36a.65.65,0,0,1-.15-1L721,434.49a.6.6,0,0,1,.85-.21h5.26a.67.67,0,0,1,.71.71v52.89a.67.67,0,0,1-.71.71H721.7a.67.67,0,0,1-.72-.71V445.66l-3.76,4.82a.65.65,0,0,1-1,.15Z"/><path class="a" d="M734.41,448A13.79,13.79,0,0,1,762,448v5.19l.15,20.54c.07,8-5.83,14.86-14.07,14.86-7.4,0-13.58-7.11-13.65-14.51l-.08-.77a.67.67,0,0,1,.71-.72h5.41a.67.67,0,0,1,.71.72v1.55a7.1,7.1,0,0,0,6.9,6.9c3.69,0,7.1-1.92,7.1-6.9l.08-7.24a14,14,0,0,1-7.11,1.91,13.68,13.68,0,0,1-13.72-13.71Zm6.82,7.82a6.85,6.85,0,0,0,6.9,6.89,7.09,7.09,0,0,0,7.11-6.89V448a7.37,7.37,0,0,0-7.11-7,7.09,7.09,0,0,0-4.91,2.14V443a7.59,7.59,0,0,0-2,5Z"/><path class="a" d="M799.65,474.86c0,7.75-6.89,13.73-14.64,13.73s-15.64-5.83-15.64-13.73v-5.11c0-4.26,2.42-8,6-10.52a13.51,13.51,0,0,1-4.2-10v-1.57a13.79,13.79,0,0,1,27.58,0v1.57a13.72,13.72,0,0,1-4.34,10.16,13.45,13.45,0,0,1,5.26,10.38Zm-6.83-5.11c0-3.48-3.4-6.89-8.17-6.89s-8.53,3.41-8.53,6.89v5.11c0,3.7,5.19,7,8.89,7a7.05,7.05,0,0,0,4.9-2.13v.07c1.21-1.35,2.91-3.13,2.91-5Zm-.92-22.11a6.85,6.85,0,0,0-6.89-6.9,7.09,7.09,0,0,0-7.11,6.9v1.57a7.29,7.29,0,0,0,7,7,6.93,6.93,0,0,0,5-2.13v.07a7.56,7.56,0,0,0,2-5Z"/><path class="a" d="M805.69,448a13.79,13.79,0,0,1,27.57,0v5.19l.14,20.54c.07,8-5.82,14.86-14.07,14.86-7.39,0-13.58-7.11-13.64-14.51l-.08-.77a.67.67,0,0,1,.71-.72h5.4a.67.67,0,0,1,.71.72v1.55a7.1,7.1,0,0,0,6.9,6.9c3.7,0,7.1-1.92,7.1-6.9l.08-7.24a14,14,0,0,1-7.11,1.91,13.67,13.67,0,0,1-13.71-13.71Zm6.81,7.82a6.85,6.85,0,0,0,6.9,6.89,7.08,7.08,0,0,0,7.11-6.89V448a7.36,7.36,0,0,0-7.11-7,7.06,7.06,0,0,0-4.9,2.14V443a7.6,7.6,0,0,0-2,5Z"/></svg>