<svg xmlns="http://www.w3.org/2000/svg" viewBox="0 0 353 446"><defs><style>.a{fill:#333;}</style></defs><path class="a" d="M228.86,104.83l0,.5v-.5Z"/><path class="a" d="M228.86,104.83l0,.5v-.5Zm0,0,0,.5v-.5Zm0,0,0,.5v-.5Z"/><path class="a" d="M335,364.55c-.28-8.2-1.13-16.48-1.95-24.5-.36-3.45-.73-7-1-10.54l-3.3-36.6q-3.18-35.19-6.32-70.38-2.68-30.17-5.31-60.33-2-23.32-4.1-46.66c-.84-9.58-5.93-14.25-15.56-14.27h-3.31c-12.28,0-25,0-37.49,0h-.7c0-.23-.05-.58-.07-.78A79.65,79.65,0,0,0,195.19,27.6a33.75,33.75,0,0,0-3.81-.65,15.24,15.24,0,0,1-5.32-1.32l-.55-.29H165l-.53,1.12h-.33a8.5,8.5,0,0,0-1.34.11,80.34,80.34,0,0,0-45.86,25.61,78.68,78.68,0,0,0-19.82,48.32c0,.22,0,.57-.06.8h-.69c-5.16,0-10.37,0-15.41,0-7.92,0-16.12.08-24.17-.15-10.35-.3-16.22,5.21-17,15.88-1.2,16.37-2.71,33-4.18,49.18q-.68,7.46-1.34,14.92-1.84,20.72-3.72,41.44l-.11,1.24q-2.13,23.61-4.24,47.22c-.92,10.29-1.8,20.58-2.7,31-1.67,19.33-3.4,39.31-5.27,58.94a48.9,48.9,0,0,0,11.12,36.89c12.32,15,29.18,22.64,50.13,22.76,7,0,14.62.06,23.88.06h76.5q46.43,0,92.94,0c15.14,0,27.89-3.84,39-11.74C327.8,397.48,335.62,382.56,335,364.55ZM124.48,101.32a8.56,8.56,0,0,1-1,0c0-.17,0-.39,0-.69,2.69-25.21,21.25-45,45.14-48.13,25.68-3.37,48.91,10.58,57.78,34.72a64.43,64.43,0,0,1,2.94,13.56,5,5,0,0,1,.06.55l-.66,0c-7.64,0-15.85-.07-26.61-.07H162.76C150.21,101.26,137.24,101.25,124.48,101.32Zm104.38,3.51h0v.5Zm68.58,281.7c-6.76,5.16-14.92,7.57-25.67,7.58q-34.39.06-68.8,0H147.05q-32.91,0-65.81,0c-10.84,0-19-2.42-25.66-7.56-8.16-6.29-11.73-13.82-10.9-23,3.89-43.24,7.69-86.34,11.37-128l.05-.58c2.78-31.45,6.06-68.71,9.31-106.62,0-.14,0-.32,0-.48h.35c10.51.11,20.91.11,31,0h.11v.27c-.11,9.29-.08,18.46,0,28.62,0,8.74,5.35,14.61,13.22,14.61s13.22-5.87,13.25-14.6v-2.86c0-8.32.06-16.92,0-25.38,0-.29,0-.5,0-.66l.51,0c33.48.1,67.89.1,105.18,0,.27,0,.47,0,.62,0a4.9,4.9,0,0,1,0,.57c-.14,9-.09,18.24,0,27.21v1.42c0,8.38,5.45,14.25,13.23,14.28S256,165.51,256,157.16c0-8.58.09-18.69,0-28.62,0-.32,0-.55,0-.72h.47c10.85.18,21.54.11,30.56,0h.43c0,.15,0,.32,0,.44,2.4,28.05,4.94,57.1,7.76,88.79q2.16,24.41,4.38,48.81,1.86,20.55,3.7,41.09c.45,5,.92,10.09,1.38,15.13,1.33,14.3,2.69,29.08,3.67,43.63C308.94,373.58,305.25,380.58,297.44,386.53Z"/></svg>