<svg xmlns="http://www.w3.org/2000/svg" viewBox="0 0 1000 1000"><defs><style>.a{fill:#81d0d8;}</style></defs><path class="a" d="M112.89,663.1a1465.79,1465.79,0,0,1,295.36-50.82c114-7.86,228.68-1.2,341.44,16.92,50.43,8.1,100.33,20.09,149.48,33.9-43.46-7.36-86.73-15-130.41-21.11-55-7.68-110.38-12.48-165.79-15.3-113.32-5.77-226.5-.57-339.13,12.56C213.17,645.16,163.14,654.57,112.89,663.1Z"/><path class="a" d="M327.09,621.92a45.76,45.76,0,1,1,45.76-45.76A45.81,45.81,0,0,1,327.09,621.92Zm0-87.77a42,42,0,1,0,42,42A42.06,42.06,0,0,0,327.09,534.15Z"/><path class="a" d="M327.09,610.3a34.14,34.14,0,1,1,34.14-34.14A34.18,34.18,0,0,1,327.09,610.3Zm0-67A32.89,32.89,0,1,0,360,576.16,32.92,32.92,0,0,0,327.09,543.28Z"/><path class="a" d="M296.47,576.16a30.63,30.63,0,1,0,30.62-30.62A30.62,30.62,0,0,0,296.47,576.16Z"/><path class="a" d="M311.12,575.53c1.2,8.17,7.25,15,16,15s14.77-6.79,16-15a16,16,0,1,1-31.95,0Z"/><path class="a" d="M327.09,580.06a3.9,3.9,0,1,1,3.9-3.9A3.91,3.91,0,0,1,327.09,580.06Zm0-7a3.16,3.16,0,1,0,3.16,3.15A3.16,3.16,0,0,0,327.09,573Z"/><path class="a" d="M666.27,621.92A45.76,45.76,0,1,1,712,576.16,45.81,45.81,0,0,1,666.27,621.92Zm0-87.77a42,42,0,1,0,42,42A42.07,42.07,0,0,0,666.27,534.15Z"/><path class="a" d="M666.27,610.3a34.14,34.14,0,1,1,34.13-34.14A34.18,34.18,0,0,1,666.27,610.3Zm0-67a32.89,32.89,0,1,0,32.89,32.88A32.93,32.93,0,0,0,666.27,543.28Z"/><circle class="a" cx="666.27" cy="576.16" r="30.63"/><path class="a" d="M650.3,575.53c1.2,8.17,7.25,15,16,15s14.77-6.79,16-15a16,16,0,1,1-32,0Z"/><path class="a" d="M666.27,580.06a3.9,3.9,0,1,1,3.9-3.9A3.91,3.91,0,0,1,666.27,580.06Zm0-7a3.16,3.16,0,1,0,3.16,3.15A3.16,3.16,0,0,0,666.27,573Z"/><path class="a" d="M789.13,540.88H789A264.61,264.61,0,0,0,780,468.6l-.38-1.37H219.34l-.17,1.68A268,268,0,0,0,221.44,541a11.69,11.69,0,0,0,1.49,23.29H233.6l.15,0h33.78A7.48,7.48,0,0,0,274.7,559l2.52-8.54A16,16,0,0,1,292.53,539h69.13A16,16,0,0,1,377,550.45l2.53,8.54a7.47,7.47,0,0,0,7.16,5.35H604.74a7.48,7.48,0,0,0,7.17-5.35l4.49-15.19a16,16,0,0,1,15.31-11.43h69.13a16,16,0,0,1,15.3,11.43l4.5,15.19a7.47,7.47,0,0,0,7.16,5.35h51.3l.13,0h9.9a11.72,11.72,0,0,0,0-23.44Z"/><path class="a" d="M798.45,504.4l-1.05-7.69a14.91,14.91,0,0,0-5.81-10,15.74,15.74,0,0,0-2.46-1.53l0-.24a2.57,2.57,0,0,0-2.89-2.2l-6.07.82,0,.25-.46.06,5.11,37.55.46-.06.06.42,6.07-.83a2.57,2.57,0,0,0,2.2-2.89l-.06-.42a14.76,14.76,0,0,0,2-2.13A15,15,0,0,0,798.45,504.4Zm-4.13,10.25a12.32,12.32,0,0,1-1,1.13l-3.9-28.66a11.94,11.94,0,0,1,1.31.82,13.46,13.46,0,0,1,5.23,9L797,504.6A13.48,13.48,0,0,1,794.32,514.65Z"/><path class="a" d="M261.85,379H715a24.56,24.56,0,0,1,17.84,7.53c1.57,1.66,3.09,3.34,4.58,5H240.22A24.88,24.88,0,0,1,261.85,379Z"/><path class="a" d="M244.29,412.89c3.14-8.74,2.08-9.45,24.09-7.13-12.72,1.35-17.11.32-19,2a1.29,1.29,0,0,0,.76,2.26l18.29,1.35-19.69,1.46a2.16,2.16,0,0,0-1.89,1.51,2,2,0,0,0,1.75,2.56l17.42,1.3-19.43,1.45a2.11,2.11,0,0,0-1.87,1.48l0,.08a1.94,1.94,0,0,0,1.72,2.53l17.2,1.29-19.34,1.45a2,2,0,0,0-1.71,1.34l-.07.22a1.93,1.93,0,0,0,.23,1.68,2,2,0,0,0,1.48.86l17,1.28-19.24,1.44a2,2,0,0,0-1.7,1.32,1.72,1.72,0,0,0-.07.21,2,2,0,0,0,.21,1.71,2,2,0,0,0,1.48.87l16.92,1.28-19.22,1.44a2,2,0,0,0-1.7,1.31l-.07.21a1.94,1.94,0,0,0,1.7,2.58l16.88,1.28-18,1.37a1.28,1.28,0,0,0-1.14.93,1.31,1.31,0,0,0,.47,1.4c2.3,1.7,7.78.79,18.72,1.95C228.87,454.14,229.2,454.49,244.29,412.89Z"/><path class="a" d="M575.88,398.48H443.29a12,12,0,0,0-12,11.95v38a12,12,0,0,0,12,12H575.88a12,12,0,0,0,12-12v-38A12,12,0,0,0,575.88,398.48Zm10.46,49.92a10.48,10.48,0,0,1-10.46,10.46H443.29a10.47,10.47,0,0,1-10.46-10.46v-38A10.47,10.47,0,0,1,443.29,400H575.88a10.48,10.48,0,0,1,10.46,10.46Z"/><path class="a" d="M734,443.66l-16.38-38a11.94,11.94,0,0,0-11-7.21H609.49a12,12,0,0,0-12,11.95v38a12,12,0,0,0,12,12H723.05a12,12,0,0,0,11-16.69Zm-2.24,10.49a10.42,10.42,0,0,1-8.73,4.71H609.49A10.47,10.47,0,0,1,599,448.4v-38A10.47,10.47,0,0,1,609.49,400h97.17a10.46,10.46,0,0,1,9.61,6.32l16.38,38A10.43,10.43,0,0,1,731.78,454.15Z"/><path class="a" d="M409.67,398.48h-105a34.41,34.41,0,0,0-32.4,22.92L263,447.74a9.47,9.47,0,0,0,8.92,12.61H409.67a12,12,0,0,0,12-12v-38A12,12,0,0,0,409.67,398.48Zm10.46,49.92a10.47,10.47,0,0,1-10.46,10.46H271.93a8,8,0,0,1-7.51-10.62l9.3-26.34a32.9,32.9,0,0,1,31-21.93h105a10.47,10.47,0,0,1,10.46,10.46Z"/><path class="a" d="M575.88,401.71H443.29a8.73,8.73,0,0,0-8.72,8.72v38a8.73,8.73,0,0,0,8.72,8.72H575.88a8.73,8.73,0,0,0,8.71-8.72v-38A8.73,8.73,0,0,0,575.88,401.71ZM437.06,448.4v-38a6.24,6.24,0,0,1,6.23-6.23H552.22v50.43H443.29A6.24,6.24,0,0,1,437.06,448.4Zm145,0a6.24,6.24,0,0,1-6.22,6.23H554.71V404.2h21.17a6.24,6.24,0,0,1,6.22,6.23Z"/><path class="a" d="M714.67,407a8.71,8.71,0,0,0-8-5.27H609.49a8.73,8.73,0,0,0-8.71,8.72v38a8.73,8.73,0,0,0,8.71,8.72H723a8.72,8.72,0,0,0,8-12.17ZM603.27,448.4v-38a6.24,6.24,0,0,1,6.22-6.23h92.13v50.43H609.49A6.24,6.24,0,0,1,603.27,448.4Zm125,3.42a6.21,6.21,0,0,1-5.21,2.81H704.11V404.2h2.55a6.22,6.22,0,0,1,5.72,3.76l16.38,38A6.22,6.22,0,0,1,728.25,451.82Z"/><path class="a" d="M409.67,401.71h-105a31.17,31.17,0,0,0-29.35,20.77l-9.3,26.34a6.24,6.24,0,0,0,5.87,8.3H409.67a8.73,8.73,0,0,0,8.72-8.72v-38A8.73,8.73,0,0,0,409.67,401.71ZM268.88,453.05a3.69,3.69,0,0,1-.47-3.4l9.3-26.34a28.67,28.67,0,0,1,27-19.11H386v50.43H271.93A3.7,3.7,0,0,1,268.88,453.05Zm147-4.65a6.24,6.24,0,0,1-6.23,6.23H388.51V404.2h21.16a6.24,6.24,0,0,1,6.23,6.23Z"/><path class="a" d="M775.79,457.12h-18.5a8.79,8.79,0,0,1-7.5-4.28c-26.83-44.92-19.6-59.95-15.24-64.32l.92-.93.88,1c17,18.73,30.07,41.24,38.88,66.91Zm-40.33-65.83c-3.32,4.57-8,19.38,16.47,60.27a6.29,6.29,0,0,0,5.36,3.07h15C763.78,430.45,751.4,409.15,735.46,391.29Z"/><path class="a" d="M272.9,357.75c4.54-.18,9.12-.34,13.69-.5.17-8.3-4.25-17-7.28-22a1.34,1.34,0,0,1,1.77-1.9,60.53,60.53,0,0,1,24.4,23.24c99.88-3,206.81-1.55,308.65,6.22a1.38,1.38,0,0,1,.77,2.43,9,9,0,0,1-6.11,2.08c-111.58-4.45-227-4.47-335.51-.06a4.77,4.77,0,0,1-.38-9.54Z"/><path class="a" d="M302.08,356.38a29.27,29.27,0,0,0-2-3.83c-.71-1.09-1.52-2.38-2.53-3.65a45.37,45.37,0,0,0-3.34-3.86,45.92,45.92,0,0,0-7.31-6.13,32.91,32.91,0,0,0-3.72-2.22l.88.81,2.33,2.07c1,.84,2,1.89,3.2,3s2.38,2.29,3.54,3.53c2.37,2.43,4.64,5,6.27,7Z"/><path class="a" d="M608.45,364.11s-20.65-1.51-51.67-3.1c-15.51-.73-33.61-1.62-53-2.23l-29.91-.87c-10.19-.3-20.55-.42-30.9-.64l-30.9-.25-29.93.12-28,.51-25.07.81-21.16,1.09c-6.31.28-11.79.8-16.31,1.11l-14.19,1.06,14.21-.81c4.52-.23,10-.65,16.31-.82l21.17-.79,25.06-.56,28-.3,29.91,0,30.89.34c10.35.19,20.7.27,30.88.54l29.91.78c19.4.54,37.51,1.16,53,1.77l37.5,1.56Z"/><path class="a" d="M323.5,342.27l10.9-.4c.14-6.6-3.39-13.54-5.8-17.49a1.08,1.08,0,0,1,1.42-1.52,48.3,48.3,0,0,1,19.42,18.51c79.52-2.39,164.66-1.23,245.74,5a1.09,1.09,0,0,1,1,.76,1.11,1.11,0,0,1-.34,1.17,7.2,7.2,0,0,1-4.87,1.65c-88.84-3.54-180.78-3.56-267.13,0a3.8,3.8,0,0,1-.3-7.6Z"/><path class="a" d="M346.74,341.18a23.41,23.41,0,0,0-1.63-3.05c-.56-.87-1.21-1.89-2-2.91a37.15,37.15,0,0,0-2.66-3.07,36.58,36.58,0,0,0-5.81-4.88,27.47,27.47,0,0,0-3-1.77l.7.64,1.85,1.65c.77.68,1.62,1.51,2.55,2.38s1.9,1.82,2.82,2.81c1.89,1.94,3.69,4,5,5.54Z"/><path class="a" d="M590.66,347.33s-16.44-1.2-41.14-2.46c-12.35-.58-26.76-1.3-42.21-1.78l-23.82-.69c-8.11-.24-16.36-.34-24.6-.51l-24.6-.2-23.83.09-22.29.41-19.95.64-16.86.87c-5,.23-9.38.64-13,.89l-11.3.84,11.32-.65c3.6-.18,8-.51,13-.65l16.86-.63,19.95-.44,22.27-.24,23.82,0,24.6.28c8.23.15,16.47.21,24.58.43l23.82.61c15.44.44,29.86.93,42.21,1.41l29.85,1.25Z"/><rect class="a" x="477.53" y="345.85" width="3.74" height="32.68"/><rect class="a" x="364.44" y="345.85" width="3.74" height="32.68"/><path class="a" d="M479.39,345.85l-17.57,5.44-18.06,5.41L423,362.78l-20.78,5.92-18.16,5.06-17.77,4.77,17.57-5.45,18.06-5.41,20.74-6.08,20.78-5.92,18.17-5.05Z"/><path class="a" d="M366.31,345.85l17.77,4.77,18.16,5.05L423,361.59l20.74,6.08,18.06,5.41,17.57,5.45-17.76-4.77-18.17-5.06-20.78-5.92-20.74-6.08-18.06-5.41Z"/><path class="a" d="M206.4,329.43a3.16,3.16,0,0,0,1.58,2.78,7.34,7.34,0,0,0,4,1.23,10.82,10.82,0,0,0,4.92-1.12,10.49,10.49,0,0,0,4.4-4.25,9.74,9.74,0,0,0,1.41-3.74,8.73,8.73,0,0,0-.17-3.26,7.13,7.13,0,0,0-1.29-2.6,7.29,7.29,0,0,0-2-1.79A4.61,4.61,0,0,0,216,316a9.58,9.58,0,0,0-3.29,1.27,20.49,20.49,0,0,0-3.4,2.58L205.88,323q-1.57,1.51-3.85,3.59a29.84,29.84,0,0,1-4.9,3.65,16.34,16.34,0,0,1-5.41,2.1,7.47,7.47,0,0,1-5.44-1.06,6.84,6.84,0,0,1-2.69-3.5,15.53,15.53,0,0,1-.89-5.87,28.43,28.43,0,0,1,1.3-7.54,38,38,0,0,1,4-8.61,45.25,45.25,0,0,1,4.85-6.83,17.15,17.15,0,0,1,3.95-3.43,6,6,0,0,1,3.07-1,4.67,4.67,0,0,1,2.18.58,3.11,3.11,0,0,1,1.28,1.86,11.79,11.79,0,0,1,.5,2.86,19.1,19.1,0,0,1,0,3,12.23,12.23,0,0,1-.39,2.33,10.78,10.78,0,0,0-1.29-1.77,3.37,3.37,0,0,0-2.33-1.16,5.41,5.41,0,0,0-3.46,1.37,21.1,21.1,0,0,0-4.67,5.9,25.05,25.05,0,0,0-2.44,5.23,25.46,25.46,0,0,0-1.19,5.06,11.93,11.93,0,0,0,.14,4.07,3.55,3.55,0,0,0,1.51,2.39,2.92,2.92,0,0,0,2.63.06,15.26,15.26,0,0,0,3.52-2q1.95-1.44,4.23-3.47c1.52-1.35,3.08-2.78,4.7-4.3s3.21-2.89,4.85-4.27a32.7,32.7,0,0,1,4.86-3.43,13.88,13.88,0,0,1,4.59-1.71,5.8,5.8,0,0,1,4.07.78,8.78,8.78,0,0,1,3.2,3.46,12.56,12.56,0,0,1,1.33,5.15,20,20,0,0,1-.8,6.36,28.8,28.8,0,0,1-3.21,7.24,31.15,31.15,0,0,1-4.52,5.84,26.31,26.31,0,0,1-5,4,15.44,15.44,0,0,1-4.67,2,4.78,4.78,0,0,1-3.53-.36,4,4,0,0,1-1.87-2.45,8.38,8.38,0,0,1-.15-3.4,14.75,14.75,0,0,1,1-3.51A12,12,0,0,1,206.4,329.43Z"/><path class="a" d="M232.46,291.11a12.91,12.91,0,0,0,4.47,2,10.63,10.63,0,0,0,4,.12,9.71,9.71,0,0,0,3.4-1.26,9.82,9.82,0,0,0,2.48-2.11,8.05,8.05,0,0,0,1.51-3,8.82,8.82,0,0,0,.23-3.68,9.88,9.88,0,0,0-1.4-3.87,12.71,12.71,0,0,0-3.49-3.61c-1.36-1.11-3-2.4-5-3.85q-2.55-1.86-6.31-4.55t-9-6.18c-.24-.13-.28-.54-.12-1.25a12,12,0,0,1,.86-2.34,19.64,19.64,0,0,1,1.44-2.47,5.7,5.7,0,0,1,1.67-1.69q4.3,2.64,8.07,5.33t6.56,4.86q3.28,2.58,6.06,5a15.54,15.54,0,0,1,5.13,5.82,14.22,14.22,0,0,1,1.46,6.53,17.9,17.9,0,0,1-1.36,6.51,24.79,24.79,0,0,1-9.66,11.39,12.61,12.61,0,0,1-6.78,1.72,18.75,18.75,0,0,1-7.45-2,42.54,42.54,0,0,1-8.31-5.48,39.59,39.59,0,0,1-4.29-3.83q-1.8-1.78-3.86-4.13a36.18,36.18,0,0,1-3.68-5,1.88,1.88,0,0,1-.66-2.23,12.65,12.65,0,0,1,1.26-2.95,25.87,25.87,0,0,1,2.65-3.61q4.47,5.28,8.18,9t6.35,6.11A66.5,66.5,0,0,0,232.46,291.11Z"/><path class="a" d="M302.28,240.69A4.88,4.88,0,0,1,299,242.2a4.5,4.5,0,0,1-2.63-1.32,17.67,17.67,0,0,1-2.61-3.22,38.68,38.68,0,0,0-3.19-4.12,96.65,96.65,0,0,1-6.25-8,50.83,50.83,0,0,0-5.68-6.88l-.41-.47a2.16,2.16,0,0,0-.43-.36c.21.67.45,1.42.7,2.26s.53,1.81.79,2.87c.63,2.26,1.31,4.53,2,6.84s1.43,4.56,2.11,6.73,1.31,4.2,1.88,6.08,1,3.47,1.34,4.78a10.55,10.55,0,0,1,.41,3.2,5.34,5.34,0,0,1-.52,2.08,4.24,4.24,0,0,1-1.15,1.39L284,255.08a27.76,27.76,0,0,0-3.93-2.54c-1.61-.88-3.18-1.7-4.74-2.43-1.8-.85-3.69-1.69-5.68-2.48q-4.73-2.43-9-4.12c-2.87-1.13-5.18-2.08-6.94-2.88a62.65,62.65,0,0,0,3.79,5.43c1.51,2,3.07,3.91,4.66,5.8s3.16,3.62,4.7,5.2a47.61,47.61,0,0,0,3.9,3.65,9,9,0,0,0,1.37,1,13.07,13.07,0,0,0,1.33.82,8.09,8.09,0,0,0,1.45.55,5.46,5.46,0,0,1-.49,1c-.22.35-.49.7-.77,1.06s-.64.84-1,1.27a10.62,10.62,0,0,1-3.66,3.07,2.83,2.83,0,0,1-2.85-.49,24.14,24.14,0,0,1-2.27-2.19c-1.06-1.12-2.25-2.44-3.55-4s-2.65-3.15-4-4.88-2.62-3.39-3.71-5c-.86-1.3-1.79-2.7-2.81-4.2-.88-1.33-1.91-2.84-3.11-4.54s-2.48-3.53-3.86-5.52a2,2,0,0,1,.24-1,8.06,8.06,0,0,1,.67-1.16,11.54,11.54,0,0,1,1-1.37l1.72-1.89c.41-.46.8-.88,1.18-1.27s.54-.52.47-.42c1.22.28,2.2.53,2.93.77s1.55.54,2.47.93l3.54,1.6c1.46.67,3.51,1.58,6.18,2.74q5.5,2.4,9.55,4.25c2.7,1.22,4.75,2.17,6.15,2.83,0-.63-.08-1.29-.17-2a20.56,20.56,0,0,0-.48-2.39c-.23-.9-.53-1.92-.91-3.07s-.83-2.5-1.38-4.06c-.53-1.79-1.12-3.69-1.78-5.72q-.88-2.52-2.06-5.72t-2.64-6.49q1.54-2.34,2.56-3.73c.69-.93,1.21-1.65,1.58-2.17s.78-1,1-1.28a2.76,2.76,0,0,1,1-.41,12.54,12.54,0,0,1,1.27-.09,7.74,7.74,0,0,1,2,.31l1.67,1.9,2.67,3c1,1.15,2.07,2.4,3.19,3.76s2.27,2.71,3.43,4.06,2.28,2.68,3.38,4,2.06,2.45,2.88,3.46a43,43,0,0,0,3.32,3.83,16.72,16.72,0,0,0,2.67,2.26,6.77,6.77,0,0,0,2.24,1,4.62,4.62,0,0,0,2.06,0c-.08.17-.25.48-.49.92a17.1,17.1,0,0,1-1,1.53c-.4.57-.83,1.15-1.31,1.71A12.38,12.38,0,0,1,302.28,240.69Z"/><path class="a" d="M353.85,207.79c-1.46.84-2.63,1.13-3.5.88a4.47,4.47,0,0,1-2.33-1.78,17.49,17.49,0,0,1-2-3.65,35.82,35.82,0,0,0-2.37-4.64,96.85,96.85,0,0,1-4.64-9.06,50.54,50.54,0,0,0-4.31-7.82c-.12-.19-.22-.37-.31-.53a2.48,2.48,0,0,0-.36-.44l.27,2.36c.1.88.18,1.86.24,3,.2,2.33.45,4.7.73,7.1s.56,4.74.83,7,.5,4.38.71,6.32.36,3.6.44,4.94a10.38,10.38,0,0,1-.2,3.23,5.05,5.05,0,0,1-.91,2,4.06,4.06,0,0,1-1.37,1.15l-1.55.79a27.48,27.48,0,0,0-3.38-3.23c-1.42-1.17-2.82-2.25-4.21-3.26-1.61-1.18-3.32-2.34-5.12-3.51q-4.2-3.26-8.11-5.7c-2.61-1.64-4.7-3-6.29-4.13a64.08,64.08,0,0,0,2.72,6.05c1.12,2.22,2.29,4.4,3.5,6.56s2.44,4.15,3.65,6a47.82,47.82,0,0,0,3.16,4.3,8.22,8.22,0,0,0,1.15,1.28,10,10,0,0,0,1.17,1.05,6.79,6.79,0,0,0,1.31.82,5.19,5.19,0,0,1-.67.86,10.11,10.11,0,0,1-.94.88c-.37.36-.79.71-1.24,1.07a10.61,10.61,0,0,1-4.15,2.34,2.83,2.83,0,0,1-2.71-1,22.85,22.85,0,0,1-1.83-2.58c-.83-1.3-1.76-2.81-2.75-4.55s-2-3.59-3.05-5.55-1.95-3.82-2.74-5.58c-.59-1.43-1.25-3-2-4.65-.62-1.47-1.35-3.14-2.21-5s-1.78-3.93-2.78-6.14a2.21,2.21,0,0,1,.43-.94,8.15,8.15,0,0,1,.88-1,9.05,9.05,0,0,1,1.27-1.15c.76-.59,1.44-1.1,2-1.54s1-.73,1.4-1,.63-.42.55-.33c1.15.49,2.05.93,2.73,1.29a25.13,25.13,0,0,1,2.25,1.38c.82.56,1.88,1.3,3.19,2.22s3.15,2.21,5.56,3.83q5,3.41,8.6,6t5.52,3.93c.09-.62.16-1.29.2-2a20.49,20.49,0,0,0,0-2.45c-.06-.92-.16-2-.32-3.17s-.36-2.62-.61-4.26c-.19-1.85-.41-3.83-.69-5.94-.26-1.77-.59-3.77-1-6s-.84-4.53-1.38-6.86q2-2,3.21-3.19l1.95-1.85c.55-.5,1-.86,1.23-1.06a2.69,2.69,0,0,1,1-.23,11.08,11.08,0,0,1,1.28.16,7.7,7.7,0,0,1,1.87.66c.27.45.69,1.18,1.29,2.18s1.28,2.15,2.06,3.46,1.58,2.73,2.44,4.28,1.72,3.08,2.61,4.63,1.75,3.05,2.58,4.52,1.58,2.78,2.2,3.93a41.15,41.15,0,0,0,2.56,4.37,16.58,16.58,0,0,0,2.2,2.72,6.54,6.54,0,0,0,2,1.39,4.61,4.61,0,0,0,2,.36l-.65.82c-.33.39-.74.82-1.23,1.32s-1,1-1.6,1.44A11.65,11.65,0,0,1,353.85,207.79Z"/><path class="a" d="M353.78,168.15a2.71,2.71,0,0,1-1-.44,6.18,6.18,0,0,1-.74-.61,2,2,0,0,1-.59-.8,2.46,2.46,0,0,1-.33-.84c0-.22-.06-.46-.1-.71a.78.78,0,0,1,.19-.66c.4-.23.85-.48,1.38-.75s1-.53,1.46-.8l1.64-.88a4,4,0,0,1,1-1.18c.57-.48,1.2-1,1.88-1.44s1.36-.89,2-1.25a3.4,3.4,0,0,1,1.43-.52l.44,1.09c1.32-.65,2.69-1.3,4.12-2s3-1.34,4.65-2l5.69-2.38c1.5-.63,3-1.25,4.58-1.84s2.75-1,3.6-1.34a1.34,1.34,0,0,1,1.22.21,2.16,2.16,0,0,1,.79,1.29,4.64,4.64,0,0,1-.1,2.16,7.7,7.7,0,0,1-1.45,2.76c-1.33.32-2.69.7-4.09,1.13l-3.87,1.24c-1.39.47-2.7,1-3.95,1.5-1.61.64-3.2,1.31-4.75,2s-3,1.34-4.48,2q1.1,2.53,2.44,5.78c.88,2.17,1.8,4.36,2.74,6.58l2-.92,2.07-.94,5.45-2.41a39.77,39.77,0,0,1,4.74-1.79,7.61,7.61,0,0,1,3.35-.39c.84.15,1.26.75,1.25,1.8l-.1,2.95a1.43,1.43,0,0,0-1-.12,11.88,11.88,0,0,0-1.65.32c-.67.15-1.41.34-2.22.58a52.18,52.18,0,0,0-6.06,2.35q-3.24,1.45-6.1,3l0,0q1.91,4.58,3,7.65c.72,2.06,1.25,3.66,1.59,4.82.65-.34,1.3-.66,1.94-1s1.31-.62,2-1c1.84-.86,3.77-1.7,5.8-2.55,1.71-.72,3.62-1.49,5.75-2.31s4.22-1.54,6.27-2.16a1.62,1.62,0,0,1,.86,1.23,6.64,6.64,0,0,1,.1,1.84,19.54,19.54,0,0,1-.4,2.46q-3.63,1.14-7,2.34c-2.22.81-4.2,1.53-5.94,2.18-2.06.78-4,1.53-5.73,2.27a48.39,48.39,0,0,0-7.55,3.4c-1.77,1-3,1.78-3.75,2.24a1.48,1.48,0,0,1-1.23.31,4.86,4.86,0,0,1-1.27-.68,3.1,3.1,0,0,1-1.1-1.84,1.19,1.19,0,0,1,0-.31c0-.14.12-.31.35-.48s.76-.48,1.39-.85,1.43-.84,2.37-1.37c-.46-1.46-1.1-3.31-1.93-5.53s-1.62-4.48-2.42-6.78a3.79,3.79,0,0,1-2.92-.51,4.48,4.48,0,0,1-2.08-2.48c.29-.19.62-.38,1-.58a11.15,11.15,0,0,0,1.08-.6c.39-.24.79-.46,1.19-.66-.3-.93-.61-1.75-.9-2.49s-.52-1.39-.69-2a42.81,42.81,0,0,0-1.65-4.4l-1.75-3.95-1.45.7c-.4.21-.83.41-1.29.63Z"/><path class="a" d="M425.81,170.8c-.83-1-1.61-1.86-2.34-2.6l-1.91-1.9a50.79,50.79,0,0,1-6.72,2.72,60.65,60.65,0,0,0,1.73,5.89c.31,1,.59,1.86.85,2.54s.49,1.28.7,1.76.42.94.63,1.33a5.62,5.62,0,0,0,.81,1.11,17,17,0,0,1-2.86,2,26.39,26.39,0,0,1-2.53,1.21,10.09,10.09,0,0,1-2.43.73,16.24,16.24,0,0,1-1.14-1.43,9.33,9.33,0,0,1-1-2.18c-.32-.94-.67-2.17-1-3.66s-.76-3.43-1.18-5.79a5.18,5.18,0,0,0-.11-.79,4,4,0,0,1-.11-.78l-1.54.27-1.55.26a6.54,6.54,0,0,1-1-1.38,4.93,4.93,0,0,1-.44-1.09,1.82,1.82,0,0,1-.05-.91,20.41,20.41,0,0,0,2.66-.5l1.23-.3c-.28-1.56-.55-3.14-.85-4.75s-.57-3.18-.86-4.71-.59-3-.88-4.37-.54-2.63-.77-3.77a14.81,14.81,0,0,0-3.54,3.9,9.2,9.2,0,0,0-1.45,4.65,3.52,3.52,0,0,1-2-.24,7.56,7.56,0,0,1-1.52-.86,8.25,8.25,0,0,1-1.37-1.34,2.9,2.9,0,0,1-.53-2.1,7.2,7.2,0,0,1,.72-2.33,10.31,10.31,0,0,1,1.47-2.16,12.36,12.36,0,0,1,1.75-1.68c1-.76,2.11-1.49,3.25-2.18a33.37,33.37,0,0,1,3.89-2,13.49,13.49,0,0,1,1.74-1.59,7.17,7.17,0,0,1,1.93-1.12,1.23,1.23,0,0,1,1.85.76c.48-.16,1-.31,1.54-.47s1.1-.31,1.7-.46a34.6,34.6,0,0,1,6.64-.95,23.84,23.84,0,0,1,6.71.55,14.13,14.13,0,0,1,5.57,2.62,9.08,9.08,0,0,1,3.2,5.2,10.89,10.89,0,0,1-.92,7.6,20.34,20.34,0,0,1-6.27,7.13c.55.56,1.24,1.26,2.09,2.09s1.72,1.8,2.62,2.88a40.49,40.49,0,0,0,3.9,3.58,25.39,25.39,0,0,0,4,2.69,16,16,0,0,0,4,1.51,10.2,10.2,0,0,0,3.87.16,6,6,0,0,1-2.08,2.15,12.51,12.51,0,0,1-2.65,1.24,17,17,0,0,1-3.27.82,9.69,9.69,0,0,1-4.48-.51,13.51,13.51,0,0,1-3.71-2.15,28.77,28.77,0,0,1-3.2-3.06C427.57,172.91,426.64,171.83,425.81,170.8ZM410.5,149.91c.21.81.42,1.78.65,2.92s.49,2.37.79,3.69.6,2.7.9,4.15.64,2.89,1,4.31c1.44-.52,3-1.16,4.7-1.93a18.85,18.85,0,0,0,4.54-2.88,11.85,11.85,0,0,0,3.09-4,7.75,7.75,0,0,0,.33-5.3,6.59,6.59,0,0,0-2.16-3.61,9.3,9.3,0,0,0-3.73-1.86,16.16,16.16,0,0,0-4.5-.44,22.88,22.88,0,0,0-4.58.65l-.82.21a6.86,6.86,0,0,0-.89.28A29.21,29.21,0,0,0,410.5,149.91Z"/><path class="a" d="M515.32,169.88a5.84,5.84,0,0,1-1.9,1.28,11.13,11.13,0,0,1-2.09.66,11.3,11.3,0,0,1-2.53.26,4.09,4.09,0,0,1-1.1-.14c-.34-.06-.71-.15-1.1-.26a3,3,0,0,1-1-.56c-.85-1.85-1.62-3.64-2.29-5.39s-1.27-3.29-1.77-4.66c-.62-1.59-1.15-3.1-1.59-4.51-1.52,0-3.79.08-6.79.2s-6.25.36-9.73.7q-1.49,3.43-2.33,5.77a38,38,0,0,0-1.22,3.87,7.52,7.52,0,0,0-.26,2.51,4.17,4.17,0,0,0,.57,1.7,9.13,9.13,0,0,1-2.28,1.23,12.51,12.51,0,0,1-2.05.56,11.07,11.07,0,0,1-2.11.18,15.16,15.16,0,0,1-2.2-.24,2.32,2.32,0,0,1-1.25-.58,1.42,1.42,0,0,1-.29-1.2,11.12,11.12,0,0,1,.56-2.1c.32-.76.9-2.12,1.77-4.08s1.84-4.21,2.93-6.72a18.52,18.52,0,0,1-4.94-.06,3.23,3.23,0,0,1-2.48-2.05c.9-.22,1.86-.43,2.89-.63l3-.59c1.06-.18,2.16-.35,3.28-.5,1.1-2.52,2.22-5,3.38-7.43s2.23-4.64,3.23-6.59l4.59-8.89c.11-.22.69-.49,1.75-.79a34,34,0,0,1,3.52-.77,29.22,29.22,0,0,1,3.7-.38,3.48,3.48,0,0,1,2.3.43c.2.78.47,1.75.82,2.91s.68,2.26,1,3.34c.38,1.26.82,2.56,1.31,3.89.58,1.86,1.19,3.92,1.86,6.19s1.5,4.68,2.49,7.24,2.15,5.2,3.48,7.93A60.39,60.39,0,0,0,515.32,169.88Zm-24.06-16.8c1.8-.09,3.29-.17,4.47-.2s2.2-.06,3-.06l-.28-.83c-.38-1.37-.79-2.84-1.21-4.41s-.84-3.1-1.25-4.63-.82-3-1.21-4.35-.71-2.58-1-3.62c-.53,1-1.13,2.19-1.82,3.58l-2.21,4.54c-.78,1.65-1.59,3.36-2.4,5.16L485,153.58c1-.12,2-.21,3-.28Z"/><path class="a" d="M525,142.93a2.37,2.37,0,0,1-1.24-.7,7.59,7.59,0,0,1-1-1.26,8.69,8.69,0,0,1-.91-1.69,6.31,6.31,0,0,1-.5-2,2.76,2.76,0,0,1,.29-1.42,2.93,2.93,0,0,1,1-1,9.73,9.73,0,0,1,1.53-.84,23.06,23.06,0,0,1,3.87-1.15,41.88,41.88,0,0,1,6.4-.91l.06-.56a2.21,2.21,0,0,1,.1-.5,2.39,2.39,0,0,0,.09-.45l6.79-.69a3.37,3.37,0,0,1,1.43.13c.5.15.65.52.47,1.1a3.35,3.35,0,0,1-.11.55,5.85,5.85,0,0,1-.19.6,36.44,36.44,0,0,1,9.6,2.57,25,25,0,0,1,7.14,4.53,17.25,17.25,0,0,1,4.27,6.06,14.16,14.16,0,0,1,1,7.13,19.25,19.25,0,0,1-3.44,9.36,23.26,23.26,0,0,1-6.91,6.23,32.35,32.35,0,0,1-9.08,3.61,53.09,53.09,0,0,1-9.85,1.43,8.59,8.59,0,0,1-1.68.6,15.36,15.36,0,0,1-2.26.42,19.73,19.73,0,0,1-2.44.15,9.63,9.63,0,0,1-2.14-.21,1.52,1.52,0,0,1,.08-.33,2.62,2.62,0,0,0,.09-.39,1.39,1.39,0,0,1,.13-.44,34.16,34.16,0,0,1-5.67-.87,2.64,2.64,0,0,1-1-1,1.61,1.61,0,0,1-.35-.6,1.47,1.47,0,0,1-.28-.6,1.58,1.58,0,0,1,.14-1.23,46,46,0,0,0,7.89.9c.34-1.58.73-3.52,1.16-5.79s.88-4.74,1.35-7.41c.3-1.55.59-3.2.87-5s.56-3.52.81-5.29.51-3.48.76-5.16.45-3.21.61-4.63a15.07,15.07,0,0,0-6.59,2.34A4.65,4.65,0,0,0,525,142.93Zm15,2c-.51,2.46-1,4.89-1.33,7.26s-.71,4.62-1,6.75-.48,4-.62,5.78-.25,3.21-.33,4.41a27.58,27.58,0,0,0,13.64-5.29,16.18,16.18,0,0,0,6.18-11.36,14.24,14.24,0,0,0-.48-5.87,13,13,0,0,0-2.72-4.84,15.35,15.35,0,0,0-4.7-3.51,20.93,20.93,0,0,0-6.32-1.91l-.33,0c-.3,1.1-.62,2.36-1,3.76S540.35,143.17,540,145Z"/><path class="a" d="M576.93,161.05a88.27,88.27,0,0,1-.94-9.7c-.07-2.5,0-4.45.06-5.88a12.78,12.78,0,0,1,.45-3c.21-.59.33-1,.37-1.1a3.29,3.29,0,0,1,3.5-2.83,12.63,12.63,0,0,1,4.24-.05,7.27,7.27,0,0,1,2,.48,3.1,3.1,0,0,0-.84,1.24,9.47,9.47,0,0,0-.4,2.24c-.08,1-.14,2.37-.2,4.08s-.12,4-.19,6.77c-.06,2.08-.07,4.1,0,6.09s.12,3.87.21,5.65.22,3.45.36,5,.27,2.92.43,4.12c.57-.87,1.19-1.88,1.86-3s1.4-2.41,2.17-3.72,1.6-2.65,2.49-4,1.83-2.69,2.79-4c1.06-1.62,2.17-3.26,3.34-4.9q1.5-2.11,3.36-4.52a44.63,44.63,0,0,1,3.85-4.33,15.59,15.59,0,0,1,4,0,15.16,15.16,0,0,1,3.1.67,16.5,16.5,0,0,1,2.66,1.14c-.73.62-1.53,1.37-2.38,2.2s-1.7,1.75-2.54,2.67-1.7,1.89-2.52,2.88-1.63,2-2.39,2.88q-2.67,3.31-5.38,6.82c-1.49,1.94-3,3.94-4.39,6-1.25,1.73-2.56,3.61-3.9,5.62s-2.59,3.93-3.69,5.75c0,.18-.41.3-1.09.36a16.55,16.55,0,0,1-2.35,0,22.15,22.15,0,0,1-2.79-.35,8.7,8.7,0,0,1-2.44-.83,45.63,45.63,0,0,1-1.34-6.41q-.51-3.53-.84-6.62C577.26,165.91,577.07,163.48,576.93,161.05Z"/><path class="a" d="M619.36,155.17a3.24,3.24,0,0,1-.46-1,6,6,0,0,1-.12-1,1.82,1.82,0,0,1,.12-1,2.32,2.32,0,0,1,.32-.84l.41-.59a.8.8,0,0,1,.59-.35q.67.15,1.53.39c.57.16,1.1.3,1.6.41l1.81.47a3.89,3.89,0,0,1,1.56-.15c.74,0,1.53.11,2.36.22s1.6.28,2.31.46a3.67,3.67,0,0,1,1.41.57l-.44,1.11c1.41.42,2.86.88,4.36,1.37s3.1,1,4.77,1.71c2.06.77,4,1.47,5.79,2.13,1.53.56,3.06,1.15,4.61,1.77s2.72,1.12,3.54,1.48a1.33,1.33,0,0,1,.75,1,2.11,2.11,0,0,1-.3,1.48,4.79,4.79,0,0,1-1.55,1.52,7.72,7.72,0,0,1-2.93,1c-1.2-.67-2.45-1.32-3.78-2s-2.54-1.21-3.66-1.74c-1.34-.6-2.65-1.13-3.92-1.58-1.63-.63-3.23-1.24-4.83-1.79s-3.13-1.1-4.62-1.6c-.62,1.73-1.35,3.69-2.17,5.89s-1.66,4.43-2.47,6.68L628,172l2.17.72,5.62,2a37.57,37.57,0,0,1,4.69,1.92,7.68,7.68,0,0,1,2.71,2,1.54,1.54,0,0,1-.31,2.17l-2.08,2.1c0-.22-.25-.48-.65-.77a10.61,10.61,0,0,0-1.42-.89c-.59-.34-1.26-.71-2-1.09a51.65,51.65,0,0,0-6-2.41c-2.24-.76-4.39-1.42-6.47-2l0,.06c-1.15,3.09-2.15,5.63-3,7.63s-1.58,3.53-2.12,4.61c.71.19,1.4.41,2.07.63s1.38.44,2.15.66c1.92.62,3.92,1.32,6,2.09,1.74.64,3.67,1.37,5.78,2.23s4.14,1.74,6.06,2.7a1.64,1.64,0,0,1-.21,1.48,7.49,7.49,0,0,1-1.18,1.41,23.17,23.17,0,0,1-2,1.53c-2.29-1.1-4.53-2.1-6.7-3s-4.13-1.76-5.84-2.47c-2-.83-3.94-1.58-5.74-2.24a48.87,48.87,0,0,0-7.84-2.66c-2-.45-3.42-.75-4.27-.92a1.52,1.52,0,0,1-1.11-.61,5,5,0,0,1-.47-1.37,3,3,0,0,1,.46-2.08.73.73,0,0,1,.19-.26.68.68,0,0,1,.58-.1c.35,0,.88.16,1.6.32l2.65.62c.67-1.4,1.46-3.18,2.37-5.37s1.86-4.38,2.86-6.61a3.81,3.81,0,0,1-1.8-2.37,4.44,4.44,0,0,1,.17-3.23c.34.06.72.15,1.12.26a11.15,11.15,0,0,0,1.21.29c.44.09.88.21,1.31.33.41-.88.77-1.69,1-2.43s.57-1.37.84-1.9a45.23,45.23,0,0,0,1.79-4.35l1.41-4.07L622,156l-1.37-.42C620.18,155.4,619.74,155.27,619.36,155.17Z"/><path class="a" d="M649.48,198.83c.31-.67.81-1.58,1.47-2.71s1.43-2.37,2.28-3.73,1.76-2.77,2.74-4.27,1.91-3,2.83-4.44,1.79-2.86,2.63-4.18S663,177,663.61,176l1.33-2c.37-.55.76-1.18,1.14-1.87a12.32,12.32,0,0,0,.91-1.94,8.86,8.86,0,0,0,1.12.24l.9.1,1.08.07a13.27,13.27,0,0,1,1.62.3,9.65,9.65,0,0,1,1.24.38,10.46,10.46,0,0,1,1.23.49,9.61,9.61,0,0,1,1.36.77q-.3,3.45-.31,6.5t.08,6c.07,1.95.18,3.93.36,5.94s.29,4.13.38,6.38.24,4.41.33,6.32.15,3.53.15,4.92q1.14-1.69,2.51-3.79c.92-1.41,1.83-2.86,2.74-4.37s1.8-3,2.66-4.48l2.41-4.13c.75-1.29,1.4-2.41,1.95-3.39s1-1.71,1.2-2.16a2.89,2.89,0,0,1,2.14-1.48,9.48,9.48,0,0,1,3,0,14.36,14.36,0,0,1,3,.75,16.65,16.65,0,0,1,2,.86,4.59,4.59,0,0,1,.71.47l.49.4a1.44,1.44,0,0,1,.32.37,8.84,8.84,0,0,0-3.19,1.38,12.62,12.62,0,0,0-2.27,2.08,13.06,13.06,0,0,0-1.66,2.35c-.46.82-.89,1.57-1.27,2.27q-1.46,2.4-3.61,5.91c-1.25,2-2.76,4.54-4.54,7.58s-3.86,6.71-6.26,11c-1.35,0-2.57-.08-3.67-.18a7.7,7.7,0,0,1-3.61-1.51,2.8,2.8,0,0,1-1.16-1.3,6.34,6.34,0,0,1-.41-1.86,19.55,19.55,0,0,1,0-2.66c0-1,.06-2.25,0-3.69q-.09-3.8-.24-7.68t-.3-7.4c-.1-2.33-.21-4.47-.32-6.4s-.22-3.51-.31-4.72a62.2,62.2,0,0,0-11.21,18.29c-.23.73-.44,1.49-.62,2.29s-.26,1.5-.38,2.41a13.74,13.74,0,0,0-.07,2.89,9.41,9.41,0,0,1-3.11-.25,20.5,20.5,0,0,1-2.39-.83,10.94,10.94,0,0,1-2.11-1.24,2.11,2.11,0,0,1-.62-1.23,6.36,6.36,0,0,1-.06-1.87,12.31,12.31,0,0,1,.41-2.19A12.65,12.65,0,0,1,649.48,198.83Z"/><path class="a" d="M705.43,198.16a2.76,2.76,0,0,1-.07-1,6.07,6.07,0,0,1,.19-1,8,8,0,0,1,.39-1l.58-.77a3.12,3.12,0,0,1,.52-.57,1,1,0,0,1,.69-.21c1.58.79,3.23,1.73,5,2.79l4.91,3q2.64,1.67,5.18,3.35a8.15,8.15,0,0,1,1.56.45,1.77,1.77,0,0,1,.89.65c.09.06.08.25,0,.56l.27.2,4.75,3.37q1.95,1.36,3.79,2.76c1.24.94,2.18,1.67,2.84,2.2a1.2,1.2,0,0,1,.41,1.14,2.65,2.65,0,0,1-.76,1.4,5.58,5.58,0,0,1-1.88,1.19,7,7,0,0,1-3,.42,36.34,36.34,0,0,0-3-2.79l-2.9-2.46c-1.1-.89-2.13-1.71-3.13-2.44l-.34-.26q-1.28,1.86-2.89,4.06t-3.31,4.42q-1.68,2.21-3.35,4.31c-1.1,1.4-2.08,2.64-3,3.73l-3.39,4.59a28.63,28.63,0,0,0-2.2,3.4,9.35,9.35,0,0,0-1,2.61,4.21,4.21,0,0,0,.18,2.17l-.59,0a6.92,6.92,0,0,1-1.2-.09A8.13,8.13,0,0,1,700,238a5.7,5.7,0,0,1-1.74-1,6.36,6.36,0,0,1-2.59-3.46,6.1,6.1,0,0,1,.48-3.78,19.31,19.31,0,0,1,2.77-4.39c1.27-1.57,2.76-3.34,4.48-5.29,1.19-1.32,2.39-2.68,3.62-4.11s2.41-2.8,3.56-4.12,2.22-2.56,3.21-3.72,1.87-2.15,2.64-3c-1.16-.8-2.36-1.6-3.61-2.37-1.08-.71-2.26-1.48-3.56-2.28S706.69,198.91,705.43,198.16Z"/><path class="a" d="M730.49,244.67a12.88,12.88,0,0,0-2.33,4.3,10.54,10.54,0,0,0-.42,4,9.19,9.19,0,0,0,1,3.47,9.77,9.77,0,0,0,1.92,2.64,8.2,8.2,0,0,0,2.85,1.72,8.87,8.87,0,0,0,3.64.5,10,10,0,0,0,4-1.12A12.59,12.59,0,0,0,745,257c1.21-1.28,2.61-2.85,4.21-4.69l5-6c2-2.38,4.24-5.21,6.81-8.5.13-.24.55-.25,1.25,0a11.82,11.82,0,0,1,2.27,1,18.18,18.18,0,0,1,2.36,1.61,5.73,5.73,0,0,1,1.57,1.8q-3,4.09-5.91,7.65c-2,2.38-3.75,4.43-5.33,6.19-1.87,2.05-3.66,4-5.38,5.68a15.48,15.48,0,0,1-6.18,4.69,14.43,14.43,0,0,1-6.62,1,18.22,18.22,0,0,1-6.4-1.83,22.39,22.39,0,0,1-5.48-3.79,22,22,0,0,1-5.17-6.69,12.57,12.57,0,0,1-1.22-6.88A18.52,18.52,0,0,1,723.3,241a42.34,42.34,0,0,1,6.08-7.89,39.22,39.22,0,0,1,4.12-4q1.92-1.67,4.4-3.54a35.62,35.62,0,0,1,5.22-3.31,1.87,1.87,0,0,1,2.27-.49,12.49,12.49,0,0,1,2.86,1.46,28.36,28.36,0,0,1,3.39,2.91c-3.72,2.72-6.93,5.22-9.59,7.5s-4.85,4.25-6.55,5.89A62.83,62.83,0,0,0,730.49,244.67Z"/><path class="a" d="M769.3,292.09c.56-1.17,1-2.25,1.38-3.22s.68-1.83.93-2.54a49.87,49.87,0,0,1-5.28-5,60,60,0,0,0-4.62,4c-.79.7-1.44,1.3-2,1.83s-1,1-1.32,1.38a12.21,12.21,0,0,0-.93,1.12,5.61,5.61,0,0,0-.67,1.2,16.25,16.25,0,0,1-3-1.77,27.16,27.16,0,0,1-2.15-1.78,9.73,9.73,0,0,1-1.67-1.92,15.29,15.29,0,0,1,.81-1.62,9,9,0,0,1,1.56-1.84c.72-.69,1.69-1.51,2.89-2.48s2.78-2.12,4.76-3.5a3.79,3.79,0,0,0,.67-.42,3.93,3.93,0,0,1,.66-.43l-.88-1.29-.89-1.29a6.32,6.32,0,0,1,.83-1.53,5.2,5.2,0,0,1,.79-.85,2,2,0,0,1,.81-.43,20,20,0,0,0,1.56,2.21l.79,1,4-2.75c1.35-.93,2.65-1.85,3.92-2.76s2.46-1.78,3.6-2.61,2.17-1.61,3.11-2.29a15.05,15.05,0,0,0-5-1.6,9.37,9.37,0,0,0-4.83.64,3.55,3.55,0,0,1-.61-1.89,7.78,7.78,0,0,1,.15-1.74,7.9,7.9,0,0,1,.64-1.82,2.92,2.92,0,0,1,1.69-1.35,6.8,6.8,0,0,1,2.41-.31,9.53,9.53,0,0,1,2.58.42,13.79,13.79,0,0,1,2.27.88c1.11.62,2.23,1.3,3.33,2a36,36,0,0,1,3.44,2.71,14.4,14.4,0,0,1,2.17.91,7.36,7.36,0,0,1,1.82,1.29,1.22,1.22,0,0,1,.08,2c.35.37.7.77,1.07,1.2s.75.88,1.13,1.37a34.63,34.63,0,0,1,3.65,5.62,24.06,24.06,0,0,1,2.3,6.33,14.15,14.15,0,0,1-.05,6.15,9.19,9.19,0,0,1-3.38,5.09,10.85,10.85,0,0,1-7.3,2.33,20.24,20.24,0,0,1-9.1-2.71c-.27.73-.62,1.65-1,2.77s-.91,2.31-1.51,3.6a39.87,39.87,0,0,0-1.63,5,25.61,25.61,0,0,0-.75,4.76,16.35,16.35,0,0,0,.3,4.3,10.25,10.25,0,0,0,1.48,3.58,5.83,5.83,0,0,1-2.82-1,12.33,12.33,0,0,1-2.23-1.88,16.62,16.62,0,0,1-2.11-2.64,9.35,9.35,0,0,1-1.41-4.27,13.11,13.11,0,0,1,.4-4.27,27.68,27.68,0,0,1,1.44-4.19C768.12,294.56,768.71,293.27,769.3,292.09Zm12.58-22.65c-.65.52-1.44,1.12-2.39,1.8s-2,1.44-3,2.27-2.2,1.67-3.39,2.55-2.36,1.79-3.5,2.7c1.07,1.1,2.31,2.25,3.72,3.47a19,19,0,0,0,4.5,2.92,12.19,12.19,0,0,0,4.94,1.13,7.86,7.86,0,0,0,5-1.92,6.69,6.69,0,0,0,2.38-3.47,9.42,9.42,0,0,0,.12-4.17,15.73,15.73,0,0,0-1.48-4.27,22.53,22.53,0,0,0-2.51-3.89l-.52-.66c-.18-.22-.39-.44-.63-.68A28.83,28.83,0,0,0,781.88,269.44Z"/><path class="a" d="M805,297.45a2.78,2.78,0,0,1,.27-1.09,4.91,4.91,0,0,1,.48-.83,1.93,1.93,0,0,1,.68-.71,2.46,2.46,0,0,1,.77-.47l.69-.21a.74.74,0,0,1,.68.07c.3.35.63.76,1,1.24s.69.91,1,1.31l1.15,1.47a4,4,0,0,1,1.33.83c.56.47,1.15,1,1.73,1.61s1.09,1.2,1.56,1.77a3.6,3.6,0,0,1,.76,1.32l-1,.61c.85,1.19,1.73,2.44,2.62,3.74s1.81,2.72,2.74,4.26c1.17,1.86,2.26,3.6,3.29,5.21q1.32,2.07,2.59,4.21c.83,1.43,1.47,2.55,1.91,3.33a1.33,1.33,0,0,1,0,1.24,2.16,2.16,0,0,1-1.15,1,4.5,4.5,0,0,1-2.14.26,7.7,7.7,0,0,1-2.95-1c-.55-1.26-1.15-2.54-1.81-3.85s-1.28-2.51-1.85-3.61c-.7-1.29-1.41-2.5-2.14-3.64-.9-1.49-1.81-3-2.74-4.36s-1.82-2.78-2.7-4.09c-1.55,1-3.31,2.12-5.3,3.36s-4,2.49-6,3.79c.4.6.82,1.21,1.22,1.82s.84,1.24,1.28,1.89q1.67,2.55,3.28,5a40.48,40.48,0,0,1,2.54,4.38,7.67,7.67,0,0,1,.94,3.24c0,.85-.53,1.37-1.57,1.53l-2.93.4a1.47,1.47,0,0,0,0-1,10.48,10.48,0,0,0-.59-1.58c-.25-.63-.57-1.33-.94-2.09a53.62,53.62,0,0,0-3.32-5.59c-1.31-2-2.63-3.8-3.92-5.51l-.05,0q-4.2,2.64-7,4.22c-1.91,1.05-3.4,1.85-4.49,2.37.45.58.87,1.16,1.26,1.75s.83,1.19,1.3,1.83c1.15,1.68,2.3,3.44,3.47,5.3,1,1.57,2.08,3.33,3.23,5.29s2.22,3.91,3.17,5.84a1.61,1.61,0,0,1-1.08,1,6.29,6.29,0,0,1-1.79.39,17,17,0,0,1-2.49,0c-1.15-2.27-2.3-4.42-3.46-6.48s-2.2-3.9-3.14-5.51q-1.65-2.85-3.18-5.27a50.09,50.09,0,0,0-4.59-6.89c-1.33-1.57-2.27-2.68-2.84-3.32a1.5,1.5,0,0,1-.51-1.17,5,5,0,0,1,.46-1.37,3.07,3.07,0,0,1,1.63-1.38,1,1,0,0,1,.31-.09c.14,0,.31.07.53.28s.6.66,1.07,1.23,1,1.26,1.73,2.1c1.37-.7,3.09-1.64,5.14-2.81s4.15-2.35,6.29-3.51a3.82,3.82,0,0,1,0-3,4.48,4.48,0,0,1,2.1-2.46,9.14,9.14,0,0,1,.73.9c.26.34.51.65.78,1a12.21,12.21,0,0,1,.84,1.06c.86-.46,1.63-.88,2.3-1.3s1.29-.74,1.83-1a43,43,0,0,0,4.07-2.35l3.6-2.39c-.3-.4-.61-.84-.93-1.3l-.84-1.18Z"/><path class="a" d="M78.68,515.23c.37,0,.61.18.61.55v4.58a.58.58,0,0,1-.61.61H57.19a.58.58,0,0,1-.61-.61V474.93a.58.58,0,0,1,.61-.61H78.68a.58.58,0,0,1,.61.61v4.64a.57.57,0,0,1-.61.61H62.44v12h8.12a.58.58,0,0,1,.61.61v4.58a.57.57,0,0,1-.61.61H62.44v17.28Z"/><path class="a" d="M108.45,491.73h-4.64a.59.59,0,0,1-.61-.62v-5a6.1,6.1,0,0,0-5.92-5.93,6.18,6.18,0,0,0-6.11,5.93c0,12.51,17.89,3.48,17.89,22.7A11.91,11.91,0,0,1,97.28,521a11.53,11.53,0,0,1-11.91-11.79v-5.43a.58.58,0,0,1,.62-.61h4.57a.57.57,0,0,1,.61.61v5.43a6,6,0,0,0,6.11,6.05,6.37,6.37,0,0,0,4.22-1.71l-.07.06a7.85,7.85,0,0,0,1.77-4.7c0-14.65-17.83-4.64-17.83-22.1,0-6.9,4.83-12.46,11.91-12.46a12,12,0,0,1,11.78,11.79v5A.58.58,0,0,1,108.45,491.73Z"/><path class="a" d="M129.49,520.36a.58.58,0,0,1-.61.61h-4.64a.58.58,0,0,1-.61-.61V480.18h-7.87a.57.57,0,0,1-.61-.61v-4.64a.58.58,0,0,1,.61-.61h21.49a.58.58,0,0,1,.61.61v4.64a.58.58,0,0,1-.61.61h-7.76Z"/><path class="a" d="M143.94,520.36V474.93a.58.58,0,0,1,.61-.61h15.39a7,7,0,0,1,6.71,6.84v33.22a6.67,6.67,0,0,1-6.71,6.59H144.55A.58.58,0,0,1,143.94,520.36Zm5.86-5.13h10.14a1,1,0,0,0,.85-.85V481.16c0-.43-.55-.79-.85-1H149.8Z"/><path class="a" d="M851.21,485.56a.54.54,0,0,1-.12-.85l7.87-10.2a.51.51,0,0,1,.73-.19h4.52a.58.58,0,0,1,.61.61v45.43a.58.58,0,0,1-.61.61h-4.64a.58.58,0,0,1-.61-.61V484.09l-3.24,4.15a.55.55,0,0,1-.85.13Z"/><path class="a" d="M870.48,486.11a11.85,11.85,0,0,1,23.69,0v4.45l.12,17.65c.06,6.9-5,12.76-12.09,12.76-6.34,0-11.66-6.11-11.72-12.46l-.06-.67a.58.58,0,0,1,.61-.61h4.64a.58.58,0,0,1,.61.61v1.34a6.1,6.1,0,0,0,5.92,5.93c3.18,0,6.11-1.65,6.11-5.93l.06-6.22a12,12,0,0,1-6.11,1.64,11.75,11.75,0,0,1-11.78-11.78Zm5.86,6.71a5.9,5.9,0,0,0,5.92,5.93,6.09,6.09,0,0,0,6.11-5.93v-6.71a6.32,6.32,0,0,0-6.11-6.05,6,6,0,0,0-4.21,1.84v-.07a6.5,6.5,0,0,0-1.71,4.28Z"/><path class="a" d="M926.5,509.18c0,6.66-5.92,11.79-12.57,11.79s-13.44-5-13.44-11.79v-4.39a11.17,11.17,0,0,1,5.13-9,11.65,11.65,0,0,1-3.6-8.61V485.8a11.85,11.85,0,0,1,23.69,0v1.35a11.76,11.76,0,0,1-3.72,8.72,11.55,11.55,0,0,1,4.51,8.92Zm-5.85-4.39c0-3-2.94-5.92-7-5.92s-7.33,2.92-7.33,5.92v4.39c0,3.18,4.46,6.05,7.64,6.05a6,6,0,0,0,4.21-1.84v.07c1-1.16,2.51-2.69,2.51-4.28Zm-.8-19a5.89,5.89,0,0,0-5.92-5.92,6.08,6.08,0,0,0-6.11,5.92v1.35a6.27,6.27,0,0,0,6,6,6,6,0,0,0,4.28-1.83v.06a6.5,6.5,0,0,0,1.71-4.27Z"/><path class="a" d="M931.68,486.11a11.85,11.85,0,0,1,23.69,0v4.45l.11,17.65c.07,6.9-5,12.76-12.08,12.76-6.35,0-11.67-6.11-11.72-12.46l-.07-.67a.58.58,0,0,1,.61-.61h4.64a.59.59,0,0,1,.62.61v1.34a6.1,6.1,0,0,0,5.92,5.93c3.17,0,6.1-1.65,6.1-5.93l.07-6.22a12,12,0,0,1-6.11,1.64,11.75,11.75,0,0,1-11.78-11.78Zm5.85,6.71a5.9,5.9,0,0,0,5.93,5.93,6.1,6.1,0,0,0,6.11-5.93v-6.71a6.33,6.33,0,0,0-6.11-6.05,6,6,0,0,0-4.21,1.84v-.07a6.51,6.51,0,0,0-1.72,4.28Z"/><path class="a" d="M149.36,793.3a42,42,0,0,1-9.13-15.06,47.68,47.68,0,0,1-2.94-15.61q0-7.18.78-8.08a8.61,8.61,0,0,1,1.75-1.55,14.08,14.08,0,0,1,4.16-1.8q6.69,17.14,24.72,22a42.85,42.85,0,0,0,11.7,1.63,49.09,49.09,0,0,0,10.53-1,24.53,24.53,0,0,0,8-3.22q7.42-4.9,7.42-14.77,0-7.5-5.95-16.72Q197.9,735.05,195,731c-2-2.69-3.78-5.43-5.46-8.2q-6-9.55-6-16.36a29.21,29.21,0,0,1,1.92-11.34,28.26,28.26,0,0,1,5.26-8.15,36.33,36.33,0,0,1,7.87-6.4,52.62,52.62,0,0,1,9.83-4.66,67.32,67.32,0,0,1,22.52-3.75q11.25,0,17.7,2.33t9.17,4.77c1.82,1.63,2.74,3.24,2.74,4.81a9.34,9.34,0,0,1-.74,3.95,18.37,18.37,0,0,1-1.87,3.15,22.25,22.25,0,0,1-4.82,4.81q-5.62-9-18.76-12.64a33.83,33.83,0,0,0-8.93-1.15,38.58,38.58,0,0,0-9.34,1.15,29.18,29.18,0,0,0-8.16,3.26Q200,691.18,200,698.51a13.79,13.79,0,0,0,2.82,8,68.43,68.43,0,0,0,7,8.32q4.2,4.33,9.09,9.06A93.51,93.51,0,0,1,228,734q9.87,12.56,9.87,24.75t-4.57,21.13A43.5,43.5,0,0,1,221,794.76q-15.49,12.15-39.07,12.16Q162,806.92,149.36,793.3Z"/><path class="a" d="M322.54,763.52q0,9.79,6.93,9.79,6,0,13.46-5.47a50.28,50.28,0,0,0,11.59-12.4c2.44-.16,3.67.85,3.67,3q0,2.76-3.39,8.48a101.05,101.05,0,0,1-6.57,9.87,88.08,88.08,0,0,1-7.09,8.15,64.48,64.48,0,0,1-8.32,7.18q-9.87,7-19.25,7-14.2,0-18.93-10.12a53.71,53.71,0,0,1-18.92,9.22,30.08,30.08,0,0,1-7.63.9,24.15,24.15,0,0,1-8.32-1.51,19.65,19.65,0,0,1-7.06-4.36q-6-5.88-6-16.15,0-11.5,7.83-24.15a72.75,72.75,0,0,1,16.64-18.6q9.3-7.33,15-7.34c2.07,0,4.4,1.63,7,4.9a53.35,53.35,0,0,0-13.78,14.35Q272.94,756,273,763.85q0,9.46,7.91,9.46t12.31-2.69q3.18-12.72,14.28-26.26t20.15-16.89q2.92-1.07,8,2.77a16.51,16.51,0,0,1,1.88,1.55,42.85,42.85,0,0,0-11.26,16.15Q322.53,756.6,322.54,763.52Z"/><path class="a" d="M383.23,750.23a99.86,99.86,0,0,1-16.64-2q-8.41,14.59-16.48,26-1.07,1.71-4.81.89-6.69-1.46-7.67-3.42A54.33,54.33,0,0,0,358,745.49q-8.56-3.91-8.56-11.09,0-4.41,5.79-11.25,5.46-6.71,8.08-6.7c5.32,0,9.38,1.37,12.15,4.09a5.42,5.42,0,0,1,1.63,4.11c0,1.72-.93,4.59-2.77,8.61q12.56,6.11,31.65,7.18a13.26,13.26,0,0,1-4.73,9.13,3.41,3.41,0,0,1-2.29,1.06A29.91,29.91,0,0,0,390.81,762a10.7,10.7,0,0,0-.73,3.76q0,7.57,9.05,7.58,6.12,0,13.54-5.47a50.28,50.28,0,0,0,11.59-12.4q3.67-.24,3.67,3,0,2.76-3.39,8.48a101.1,101.1,0,0,1-6.56,9.87,89.75,89.75,0,0,1-7.1,8.15,63.82,63.82,0,0,1-8.32,7.18q-9.87,7-19.33,7-16.08,0-21.54-9.95a15.67,15.67,0,0,1-1.87-7.79,22.29,22.29,0,0,1,1.83-8.77,37.92,37.92,0,0,1,5-8.41A52.85,52.85,0,0,1,383.23,750.23Z"/><path class="a" d="M418.31,771.51c-3.49-4.34-5.23-8.18-5.23-11.49a4.87,4.87,0,0,1,1.51-3.72,21.3,21.3,0,0,1,3.88-2.81,72.56,72.56,0,0,1,11.33-5.3,241.55,241.55,0,0,1,30.51-43.81q17-19.1,26.51-19.09a8.26,8.26,0,0,1,6.94,3.92,15.29,15.29,0,0,1,2.77,9.22,29.84,29.84,0,0,1-1.71,10.15,42.49,42.49,0,0,1-4.73,9.3,57.82,57.82,0,0,1-7.22,8.73,64.26,64.26,0,0,1-9.18,7.62,66.39,66.39,0,0,1-21.78,10.2q9.13,3.27,11.42,19.5a60.1,60.1,0,0,1,.57,7.22v3.3a19.68,19.68,0,0,0,5.18.57,18.58,18.58,0,0,0,7.06-1.63,36.31,36.31,0,0,0,7.58-4.32,54.23,54.23,0,0,0,12.48-13.63q3.68-.24,3.68,3c0,1.57-1,4.32-3.1,8.23a109.32,109.32,0,0,1-5.76,9.83,89,89,0,0,1-5.78,7.71,57.9,57.9,0,0,1-6.57,6.69q-7.68,6.45-14.93,6.44a17,17,0,0,1-2.77-.24q-4.25,18-13,29.77Q438.13,840,426.05,840q-9,0-13.46-9.55-3.91-8.32-3.91-22.35T418.31,771.51Zm21.85,17.21a114.9,114.9,0,0,0-.73,12.57,68.5,68.5,0,0,0,.53,9.58c.36,2.37,1.18,3.55,2.49,3.55,1.68,0,3.43-1.95,5.22-5.87A64.47,64.47,0,0,0,452,794.43,99,99,0,0,1,440.16,788.72Zm8.41-36.05L446,760.83a37.77,37.77,0,0,0,8.4,8.89Q454,755.28,448.57,752.67Zm36.62-50.82q0-4.65-2.73-4.65c-1.82,0-3.82,1-6,2.86A43.13,43.13,0,0,0,469.7,708q-7.35,10.44-14.36,26.76A45.63,45.63,0,0,0,476,721.35Q485.19,711.32,485.19,701.85Z"/><path class="a" d="M555.51,779.26a15.08,15.08,0,0,1,2.56-8.35,41.11,41.11,0,0,1,6.82-7.84,114,114,0,0,1,9.74-7.87q5.52-4,11.38-8.64t11.71-10.08a79.29,79.29,0,0,0,10.65-12.19A71.24,71.24,0,0,0,621.5,690.6q-25.29,2.28-33.77,4.61T575,700.63q-4.28,3.11-4.28,6.93a26.06,26.06,0,0,0,.61,6.25,42.77,42.77,0,0,0,1.35,4.36c.49,1.3.93,2.48,1.34,3.5a7.7,7.7,0,0,1,.61,2.78c0,1.47-1.84,3.07-5.54,4.81q-5.07,2.37-7.39,2.37a7.06,7.06,0,0,1-4.44-1.68,24,24,0,0,1-4.16-4.36q-5-6.6-5-12.8a17.65,17.65,0,0,1,3.1-10.53,28,28,0,0,1,8.37-7.51,53.88,53.88,0,0,1,12.35-5.3A142.69,142.69,0,0,1,587,685.87q8-1.47,16.44-2.37T620,681.91q8.07-.69,15.3-1.34T648,679q12-2,12.64-5.22a34,34,0,0,1,1.8-6.08,24.61,24.61,0,0,1,2.69-5q3.42-4.89,7.42-4.89t6.53,4a14.88,14.88,0,0,1,2.44,8.12,10.87,10.87,0,0,1-1.95,6.81,17.54,17.54,0,0,1-5.43,4.45,40.21,40.21,0,0,1-8.28,3.3,99.25,99.25,0,0,1-10.44,2.36q-8.88,1.56-24.8,2.94c.11,2.4.17,4.69.17,6.89s0,4.92-.13,8.16-.32,7.28-.73,12.12-.93,9.65-1.55,14.43-1.32,9.27-2.08,13.46q-2.28,13.06-4.52,18.44a78.78,78.78,0,0,1-5.27,10.36,87.19,87.19,0,0,1-6.64,9.46,89.2,89.2,0,0,1-7.71,8.36,63.92,63.92,0,0,1-8.32,6.73q-9,6.12-16.24,6.12c-4.79,0-9.67-2.75-14.68-8.24S555.51,785,555.51,779.26Z"/><path class="a" d="M682.75,750.23a99.73,99.73,0,0,1-16.63-2q-8.42,14.59-16.48,26-1.07,1.71-4.82.89c-4.45-1-7-2.11-7.66-3.42a54.39,54.39,0,0,0,20.39-26.19Q649,741.58,649,734.4q0-4.41,5.8-11.25,5.46-6.71,8.07-6.7,8,0,12.15,4.09a5.36,5.36,0,0,1,1.64,4.11q0,2.58-2.78,8.61,12.57,6.11,31.65,7.18a13.18,13.18,0,0,1-4.73,9.13,3.37,3.37,0,0,1-2.28,1.06A29.91,29.91,0,0,0,690.34,762a10.7,10.7,0,0,0-.73,3.76q0,7.57,9,7.58,6.12,0,13.54-5.47a50.24,50.24,0,0,0,11.58-12.4q3.68-.24,3.67,3c0,1.84-1.12,4.67-3.38,8.48a103,103,0,0,1-6.56,9.87,89.75,89.75,0,0,1-7.1,8.15,63.9,63.9,0,0,1-8.33,7.18q-9.86,7-19.33,7-16.07,0-21.53-9.95a15.68,15.68,0,0,1-1.88-7.79,22.3,22.3,0,0,1,1.84-8.77,37.87,37.87,0,0,1,5-8.41A53,53,0,0,1,682.75,750.23Z"/><path class="a" d="M714.57,789.71a21.29,21.29,0,0,1-1.71-9,31.14,31.14,0,0,1,2.32-11.3,74.89,74.89,0,0,1,6-11.87,103,103,0,0,1,8.11-11.41,112.78,112.78,0,0,1,8.89-9.75q9.71-9.23,14.28-9.22a7.83,7.83,0,0,1,4.36,1.68,17,17,0,0,1,3.06,2.48q-12.32,13.22-15.58,25.53a26.69,26.69,0,0,0-1.06,7.3,9.39,9.39,0,0,0,9.38,9.18A18.59,18.59,0,0,0,760,771.8a35,35,0,0,0,6.82-4,50.43,50.43,0,0,0,11.58-12.4c2.44-.16,3.67.85,3.67,3,0,1.79-1.13,4.61-3.38,8.48a85.09,85.09,0,0,1-6.73,10,84.09,84.09,0,0,1-7.63,8.28,59,59,0,0,1-9.34,7.26,43.15,43.15,0,0,1-23.33,7.18Q719.06,799.66,714.57,789.71Zm62.81-80.55a34.64,34.64,0,0,1-14,3.38,17.41,17.41,0,0,1-5.14-.7,13.59,13.59,0,0,1-4.08-2Q750.3,707,750.3,703a14.64,14.64,0,0,1,1.42-6.77,13.49,13.49,0,0,1,4.12-4.74,23,23,0,0,1,13.91-4.24q8.12,0,11.83,3.35a10.06,10.06,0,0,1,3.71,7.67A9.56,9.56,0,0,1,783,705,20,20,0,0,1,777.38,709.16Z"/><path class="a" d="M773.22,836.61q0,3.25-5.47,3.26-12.63,0-17-10.44a21.68,21.68,0,0,1-1.63-8.52,39.45,39.45,0,0,1,1.51-10.28,115.43,115.43,0,0,1,4.16-12.24q2.65-6.64,6.24-14t7.67-14.73c2.72-4.9,5.56-9.62,8.53-14.2s5.91-8.75,8.84-12.56q11.75-15.24,18.61-16.15a11.57,11.57,0,0,1,1.71-.16c.49,0,1.08,0,1.79.08a5.22,5.22,0,0,1,4,2q-1.39,3-3.31,7.06t-4,8.93a89.26,89.26,0,0,1,33.93-16.48,46,46,0,0,1,11.17-1.47q10.61,0,5.47,9.79A79.51,79.51,0,0,1,848.67,747q-4.24,5.76-6.36,8.94-5.05,7.5-5.06,11.25c0,4.47,2.42,6.69,7.26,6.69q6.36,0,14.36-5.71a48.58,48.58,0,0,0,12.23-12.73c1.42-.11,2.38.17,2.9.82a3.44,3.44,0,0,1,.77,2.16,11,11,0,0,1-1.06,3.72,58.29,58.29,0,0,1-3.38,6.52,74.34,74.34,0,0,1-5.63,8.24,81.21,81.21,0,0,1-7.55,8.36,60.19,60.19,0,0,1-9.29,7.39,43,43,0,0,1-23.34,7.09q-13,0-17.45-9.38a16.86,16.86,0,0,1-1.47-7.42,21.08,21.08,0,0,1,2.49-9.39,60.65,60.65,0,0,1,6-9.58,100,100,0,0,1,7.33-8.6q3.84-4,6.49-6.94a19.45,19.45,0,0,0,3.39-4.65c.48-1.14-.17-1.71-2-1.71a19,19,0,0,0-6.9,1.75,61.13,61.13,0,0,0-8.76,4.61,67.54,67.54,0,0,0-16.8,14.27Q773.46,817.53,773.22,836.61Z"/></svg>