<svg xmlns="http://www.w3.org/2000/svg" viewBox="0 0 512 512"><defs><style>.a{fill:#fff;}</style></defs><path class="a" d="M304.9,256A48.9,48.9,0,1,1,256,207.1,48.9,48.9,0,0,1,304.9,256Z"/><path class="a" d="M370.37,169.47a48.53,48.53,0,0,0-27.84-27.84c-5.17-2-12.94-4.4-27.24-5-15.48-.7-20.12-.86-59.29-.86s-43.82.15-59.29.86c-14.3.65-22.07,3-27.24,5a48.53,48.53,0,0,0-27.84,27.84c-2,5.17-4.4,12.94-5,27.25-.71,15.47-.86,20.11-.86,59.28s.15,43.82.86,59.29c.65,14.3,3,22.07,5,27.24a48.53,48.53,0,0,0,27.84,27.84c5.17,2,12.94,4.41,27.24,5.06,15.47.7,20.11.85,59.29.85s43.82-.15,59.28-.85c14.31-.65,22.08-3,27.25-5.06a48.57,48.57,0,0,0,27.84-27.84c2-5.17,4.4-12.94,5.05-27.24.71-15.47.86-20.11.86-59.29s-.15-43.81-.86-59.28C374.77,182.41,372.38,174.64,370.37,169.47ZM256,331.34A75.34,75.34,0,1,1,331.34,256,75.34,75.34,0,0,1,256,331.34Zm78.32-136a17.61,17.61,0,1,1,17.6-17.61A17.6,17.6,0,0,1,334.32,195.29Z"/><path class="a" d="M256,.5C114.91.5.5,114.91.5,256S114.91,511.5,256,511.5,511.5,397.09,511.5,256,397.09.5,256,.5Zm145.83,316c-.71,15.61-3.2,26.28-6.82,35.61A75,75,0,0,1,352.1,395c-9.33,3.62-20,6.1-35.61,6.82s-20.64.88-60.49.88-44.84-.17-60.49-.88-26.28-3.2-35.61-6.82A75,75,0,0,1,117,352.1c-3.62-9.33-6.1-20-6.81-35.61s-.89-20.65-.89-60.49.16-44.84.88-60.49,3.19-26.28,6.82-35.61A75,75,0,0,1,159.9,117c9.33-3.62,20-6.1,35.61-6.82s20.65-.88,60.49-.88,44.84.17,60.49.89,26.28,3.19,35.61,6.81A75,75,0,0,1,395,159.9c3.63,9.33,6.11,20,6.82,35.61s.88,20.65.88,60.49S402.55,300.84,401.83,316.49Z"/></svg>